<?xml version="1.0" standalone="no"?>
<!DOCTYPE svg PUBLIC "-//W3C//DTD SVG 1.1//EN" "http://www.w3.org/Graphics/SVG/1.1/DTD/svg11.dtd" >
<svg xmlns="http://www.w3.org/2000/svg" xmlns:xlink="http://www.w3.org/1999/xlink" version="1.1">
<metadata>
Created by FontForge 20170731 at Sat Sep 16 19:41:28 2006
 By Aleksey,,,
(c) Copyright 2006 Berthold LLC. All Rights Reserved. This font software computer program is the property of Berthold. You may not reproduce, modify, adapt, translate, alter nor create derivative works of the font software. You may not reverse engineer, decompile, decrypt, disassemble, nor seek to discover the source code of the font software.
</metadata>
<defs>
<font id="Cosmos-Medium" horiz-adv-x="604" >
  <font-face 
    font-family="Cosmos Medium"
    font-weight="500"
    font-stretch="normal"
    units-per-em="1000"
    panose-1="2 0 8 3 5 0 0 2 0 4"
    ascent="750"
    descent="-250"
    x-height="512"
    cap-height="706"
    bbox="-145 -218 1351 923"
    underline-thickness="50"
    underline-position="-200"
    unicode-range="U+0020-FB02"
  />
<missing-glyph horiz-adv-x="500" 
d="M0 0v706h500v-706h-500zM250 401l170 255h-340zM280 353l170 -258v516zM80 50h340l-170 258zM50 611v-516l170 258z" />
    <glyph glyph-name="fi" unicode="fi" horiz-adv-x="583" 
d="M219 432v-432h-133v432h-78v80h78v58q0 73 42.5 115.5t123.5 42.5q80 0 119 -45l-21 -30q-26 13 -51 13q-44 0 -62 -32.5t-18 -75.5v-46h117v-80h-117zM531 653q0 -31 -22 -53t-53 -22q-30 0 -52 22.5t-22 52.5t22 52t52 22t52.5 -22t22.5 -52zM524 0h-133v512h133v-512z
" />
    <glyph glyph-name="fl" unicode="fl" horiz-adv-x="583" 
d="M525 0h-134v706h134v-706zM219 432v-432h-133v432h-78v80h78v58q0 73 42.5 115.5t123.5 42.5q80 0 119 -45l-21 -30q-26 13 -51 13q-44 0 -62 -32.5t-18 -75.5v-46h117v-80h-117z" />
    <glyph glyph-name=".notdef" horiz-adv-x="500" 
d="M0 0v706h500v-706h-500zM250 401l170 255h-340zM280 353l170 -258v516zM80 50h340l-170 258zM50 611v-516l170 258z" />
    <glyph glyph-name=".null" horiz-adv-x="0" 
 />
    <glyph glyph-name="nonmarkingreturn" horiz-adv-x="333" 
 />
    <glyph glyph-name="space" unicode=" " horiz-adv-x="292" 
 />
    <glyph glyph-name="exclam" unicode="!" horiz-adv-x="292" 
d="M93 706h143v-156q0 -216 -51 -353h-41q-31 100 -41 188.5t-10 212.5v108zM242 61q0 -31 -23 -54.5t-55 -23.5t-55.5 23t-23.5 55t23.5 55.5t55.5 23.5t55 -23.5t23 -55.5z" />
    <glyph glyph-name="quotedbl" unicode="&#x22;" horiz-adv-x="339" 
d="M27 743h109l-34 -308h-39zM203 743h109l-34 -308h-39z" />
    <glyph glyph-name="numbersign" unicode="#" horiz-adv-x="660" 
d="M442 232l-32 -232h-80l33 232h-99l-34 -232h-78l32 232h-147v70h158l13 99h-148v72h158l30 218h82l-32 -218h99l29 218h80l-31 -218h147v-72h-157l-13 -99h150v-70h-160zM273 303h100l14 98h-99z" />
    <glyph glyph-name="dollar" unicode="$" horiz-adv-x="646" 
d="M299 783h60v-82q76 0 135 -44t69 -121l-39 -11q-46 88 -165 96v-212q45 -7 81 -18t75.5 -32.5t62 -59t22.5 -88.5q0 -70 -38.5 -123t-92 -77t-110.5 -26v-79h-60v79q-41 0 -81.5 10t-78 31.5t-62 60.5t-26.5 90l40 10q29 -66 80.5 -92t127.5 -26v224l-66 14
q-175 37 -175 190q0 95 71.5 149.5t169.5 54.5v82zM299 421v196q-42 -7 -70.5 -32t-28.5 -66q0 -75 99 -98zM359 279v-202q41 12 67 40t26 66q0 73 -93 96z" />
    <glyph glyph-name="percent" unicode="%" horiz-adv-x="958" 
d="M686 683l-333 -683h-84l333 683h84zM393 467q0 -64 -16.5 -115t-59 -86.5t-107.5 -35.5q-83 0 -134.5 57.5t-51.5 172.5q0 63 17 114t60 87t107 36q91 0 138 -67t47 -163zM290 467q0 165 -82 165q-25 0 -42.5 -18.5t-25 -48.5t-10.5 -55t-3 -50q0 -167 83 -167
q80 0 80 174zM934 224q0 -64 -16.5 -115t-59 -86.5t-107.5 -35.5q-83 0 -134.5 57.5t-51.5 172.5q0 63 17 114t60 87t107 36q91 0 138 -67t47 -163zM831 224q0 165 -82 165q-25 0 -42.5 -18.5t-25 -48.5t-10.5 -55t-3 -50q0 -167 83 -167q80 0 80 174z" />
    <glyph glyph-name="ampersand" unicode="&#x26;" horiz-adv-x="750" 
d="M575 329h46q-1 -81 -7.5 -116.5t-26.5 -82.5q56 -56 85 -75.5t76 -33.5l-8 -36q-34 -4 -52 -4q-45 0 -94 15t-80 41q-1 -1 -17 -11t-22.5 -13.5t-25 -12t-34 -11.5t-40.5 -6.5t-53 -3.5q-124 0 -196.5 62.5t-72.5 150.5q0 42 14 76.5t40 59.5t48 40t53 31q-37 80 -37 133
q0 72 49.5 124.5t144.5 52.5q78 0 130.5 -40.5t52.5 -109.5q0 -36 -15 -66t-43.5 -52.5t-52.5 -36t-60 -29.5q65 -93 156 -193q19 34 27.5 61t14.5 86zM331 452q91 41 91 108q0 30 -18.5 51t-48.5 21t-47 -22t-17 -53q0 -37 40 -105zM260 314q-63 -44 -63 -114
q0 -59 46.5 -95t106.5 -36q42 0 94 25q-21 18 -45.5 44.5t-47.5 55.5t-39 50t-34 46z" />
    <glyph glyph-name="quotesingle" unicode="'" horiz-adv-x="163" 
d="M27 743h109l-34 -308h-39z" />
    <glyph glyph-name="parenleft" unicode="(" horiz-adv-x="271" 
d="M268 0h-41q-187 142 -187 353q0 106 49.5 201t137.5 152h41q-94 -154 -94 -355q0 -177 94 -351z" />
    <glyph glyph-name="parenright" unicode=")" horiz-adv-x="271" 
d="M2 706h41q87 -59 137 -152.5t50 -199.5q0 -108 -49 -200t-138 -154h-41q94 154 94 356q0 176 -94 350z" />
    <glyph glyph-name="asterisk" unicode="*" horiz-adv-x="417" 
d="M273 536l63 -84q-18 -21 -28.5 -29t-34.5 -21l-64 86l-60 -87q-35 16 -65 45l59 90l-101 36q6 42 25 76l100 -36v109q28 4 42 4q18 0 40 -5v-108l100 35q14 -23 18 -35.5t7 -40.5z" />
    <glyph glyph-name="plus" unicode="+" horiz-adv-x="724" 
d="M426 42h-128v219h-205v100h205v216h128v-216h205v-100h-205v-219z" />
    <glyph glyph-name="comma" unicode="," horiz-adv-x="250" 
d="M220 129l-162 -293l-39 9l57 284h144z" />
    <glyph glyph-name="hyphen" unicode="-" horiz-adv-x="355" 
d="M34 311h287v-86h-287v86z" />
    <glyph glyph-name="period" unicode="." horiz-adv-x="250" 
d="M204 63q0 -32 -23.5 -55.5t-55.5 -23.5t-56 23.5t-24 55.5q0 33 23.5 56t56.5 23q32 0 55.5 -23.5t23.5 -55.5z" />
    <glyph glyph-name="slash" unicode="/" horiz-adv-x="437" 
d="M439 706l-310 -706h-130l309 706h131z" />
    <glyph glyph-name="zero" unicode="0" horiz-adv-x="646" 
d="M605 341q0 -73 -16 -135.5t-49.5 -113.5t-91 -80.5t-134.5 -29.5q-73 0 -128 30.5t-86.5 82.5t-46.5 112.5t-15 129.5q0 74 15 136.5t47.5 115.5t89 83t133.5 30q75 0 131.5 -30.5t88 -83t47 -114.5t15.5 -133zM453 334q0 42 -4 81t-16 87.5t-40 78t-70 29.5
q-133 0 -133 -268q0 -269 130 -269q133 0 133 261z" />
    <glyph glyph-name="one" unicode="1" horiz-adv-x="646" 
d="M404 0h-141v525l-127 -40l-18 39l247 161h39v-685z" />
    <glyph glyph-name="two" unicode="2" horiz-adv-x="646" 
d="M567 0h-513v45l220 237q61 66 89 113t28 94q0 55 -37.5 88.5t-93.5 33.5q-101 0 -166 -124l-40 12q14 98 79 150t166 52q108 0 173.5 -58t65.5 -149q0 -74 -35.5 -129t-149.5 -173l-88 -91h302v-101z" />
    <glyph glyph-name="three" unicode="3" horiz-adv-x="646" 
d="M47 180l40 11q13 -23 21.5 -35t30.5 -35t54.5 -35t73.5 -12q70 0 112.5 35t42.5 93q0 16 -5.5 33.5t-20.5 39t-48 35.5t-81 14q-25 0 -38 -1v89q15 -1 41 -1q48 0 89 27t41 77q0 26 -11.5 46t-27 29.5t-35 15.5t-30 7t-18.5 1q-112 0 -170 -122l-42 14q14 63 34 96
q59 100 223 100q37 0 73.5 -9.5t70 -29t54 -54.5t20.5 -81q0 -36 -18 -70q-19 -36 -47 -53.5t-75 -32.5q78 -13 125.5 -59.5t47.5 -117.5q0 -16 -4.5 -37.5t-21.5 -54t-44.5 -58t-80.5 -44t-122 -18.5q-57 0 -101.5 13t-70.5 32t-44 47t-25.5 52t-12.5 53z" />
    <glyph glyph-name="four" unicode="4" horiz-adv-x="646" 
d="M600 165h-92v-165h-137v165h-346v43l313 476h170v-425h92v-94zM371 259v298l-190 -298h190z" />
    <glyph glyph-name="five" unicode="5" horiz-adv-x="646" 
d="M119 684h418v-100h-294l-18 -137q53 8 90 8q121 0 192 -63q74 -65 74 -169q0 -64 -31 -119q-68 -121 -254 -121q-48 0 -87.5 9.5t-65 26.5t-44 36t-28.5 43t-15.5 43t-7.5 39l42 13q57 -124 183 -124q69 0 113 40.5t44 103.5q0 10 -1.5 22.5t-11 36t-26 42t-50 32.5
t-78.5 14q-40 0 -74 -13t-47.5 -24t-32.5 -30l-40 12z" />
    <glyph glyph-name="six" unicode="6" horiz-adv-x="646" 
d="M575 504l-43 -9q-15 55 -57 85.5t-99 30.5q-157 0 -176 -244q25 41 69 63.5t95 22.5q96 0 161 -64.5t65 -160.5q0 -25 -6 -54t-23 -64t-44 -62.5t-74.5 -46.5t-107.5 -19q-71 0 -125.5 27.5t-86.5 75t-47.5 105.5t-15.5 126q0 59 9.5 113t32 104.5t55.5 87.5t84 59
t114 22q95 0 153.5 -53t66.5 -145zM443 215q0 59 -28.5 98.5t-84.5 39.5q-16 0 -32.5 -5.5t-35.5 -18.5t-31 -42.5t-12 -70.5q0 -57 27.5 -100.5t81.5 -43.5q56 0 85.5 41.5t29.5 101.5z" />
    <glyph glyph-name="seven" unicode="7" horiz-adv-x="646" 
d="M79 582v102h504v-41l-300 -643h-153l281 582h-332z" />
    <glyph glyph-name="eight" unicode="8" horiz-adv-x="646" 
d="M181 374q-2 1 -20 13.5t-27.5 21.5t-23.5 26t-21 39t-7 49q0 75 65 127t173 52q65 0 114.5 -18t76.5 -47t40 -58.5t13 -57.5q0 -91 -103 -147q136 -63 136 -180q0 -85 -75 -148.5t-202 -63.5q-110 0 -191 57t-81 155q0 21 5 42t17.5 47.5t41 50.5t69.5 40zM228 513
q0 -34 26 -64t69 -30q39 0 66.5 28t27.5 67t-28 66.5t-67 27.5t-66.5 -28.5t-27.5 -66.5zM197 198q0 -47 34.5 -85.5t89.5 -38.5q51 0 87.5 37t36.5 88q0 52 -36.5 88t-87.5 36t-87.5 -37t-36.5 -88z" />
    <glyph glyph-name="nine" unicode="9" horiz-adv-x="646" 
d="M71 180l43 9q40 -116 156 -116q159 0 175 244q-57 -86 -164 -86q-96 0 -160.5 64.5t-64.5 160.5q0 26 6 55t23.5 64.5t44.5 62.5t74.5 45.5t107.5 18.5q71 0 125 -27.5t85.5 -74.5t47 -105.5t15.5 -125.5q0 -75 -15.5 -141t-49 -123t-93 -90t-138.5 -33q-94 0 -150 52
t-68 146zM427 468q0 58 -28 101t-82 43q-55 0 -84.5 -42.5t-29.5 -100.5t27.5 -98t82.5 -40q56 0 85 39.5t29 97.5z" />
    <glyph glyph-name="colon" unicode=":" horiz-adv-x="292" 
d="M246 442q0 -33 -23 -56.5t-56 -23.5t-56 23.5t-23 56.5q0 32 23.5 55.5t55.5 23.5t55.5 -23.5t23.5 -55.5zM247 62q0 -32 -24 -56t-56 -24t-55.5 24t-23.5 56t24 55.5t55 23.5q32 0 56 -23.5t24 -55.5z" />
    <glyph glyph-name="semicolon" unicode=";" horiz-adv-x="292" 
d="M278 442q0 -32 -23.5 -56t-55.5 -24q-33 0 -56 23.5t-23 56.5q0 32 23.5 55.5t55.5 23.5t55.5 -23.5t23.5 -55.5zM260 130l-161 -294l-39 10l56 284h144z" />
    <glyph glyph-name="less" unicode="&#x3c;" horiz-adv-x="724" 
d="M579 27l-466 230v116l466 229v-116l-348 -165l348 -166v-128z" />
    <glyph glyph-name="equal" unicode="=" horiz-adv-x="724" 
d="M625 146h-526v105h526v-105zM625 351h-526v106h526v-106z" />
    <glyph glyph-name="greater" unicode="&#x3e;" horiz-adv-x="724" 
d="M143 601l465 -230v-116l-465 -229v116l347 165l-347 166v128z" />
    <glyph glyph-name="question" unicode="?" horiz-adv-x="542" 
d="M285 190h-42q-7 39 -7 67q0 77 46 144q7 10 22.5 30t23.5 31.5t15.5 30.5t7.5 39q0 43 -29 71.5t-72 28.5q-54 0 -93 -34.5t-55 -88.5l-44 9q2 35 15.5 70t39 67.5t69.5 52.5t101 20q106 0 162.5 -55t56.5 -124q0 -42 -19 -77.5t-41.5 -55.5t-57.5 -47.5t-52 -46.5
q-18 -19 -28 -43t-13 -40.5t-6 -48.5zM343 62q0 -32 -23 -55t-55 -23t-55.5 23t-23.5 55t23.5 55t55.5 23q31 0 54.5 -23t23.5 -55z" />
    <glyph glyph-name="at" unicode="@" horiz-adv-x="863" 
d="M777 82l31 -38q-71 -70 -135 -105q-111 -61 -238 -61q-174 0 -284 104.5t-110 269.5q0 192 134 326t327 134q149 0 237 -81t88 -217q0 -131 -73 -233q-79 -110 -167 -110q-74 0 -85 79q-67 -80 -140 -80q-58 0 -93 43t-35 114q0 114 76 201q84 96 222 96q39 0 112 -14
l-53 -234q-13 -56 -13 -91q0 -48 34 -48q23 0 50 30q37 42 63 114.5t26 135.5q0 107 -67 169t-183 62q-158 0 -267.5 -115t-109.5 -281q0 -138 87.5 -222t232.5 -84q114 0 228 61q48 26 105 75zM503 221l50 236q-29 4 -44 4q-83 0 -136 -74q-52 -75 -52 -162q0 -41 18 -65.5
t49 -24.5q62 0 115 86z" />
    <glyph glyph-name="A" unicode="A" horiz-adv-x="708" 
d="M708 0h-152l-70 156h-292l-70 -156h-125l336 706h49zM443 249l-105 229l-102 -229h207z" />
    <glyph glyph-name="B" unicode="B" horiz-adv-x="625" 
d="M65 706h284q102 0 152.5 -50.5t50.5 -118.5q0 -60 -37 -100t-96 -54q81 -6 128.5 -50.5t47.5 -122.5q0 -71 -43 -123q-43 -53 -100 -70t-139 -17h-248v706zM206 618v-224h23q97 0 138 34.5t41 84.5q0 54 -37.5 79.5t-91.5 25.5h-73zM206 346v-258h87q79 0 118.5 36
t39.5 93q0 129 -188 129h-57z" />
    <glyph glyph-name="C" unicode="C" horiz-adv-x="688" 
d="M629 174l40 -16q-57 -179 -272 -179q-86 0 -152.5 26.5t-104 66t-61.5 92t-32 97t-8 88.5q0 174 104 277.5t258 103.5q102 0 176 -44.5t91 -138.5l-40 -12q-24 53 -74 80t-110 27q-119 0 -186 -83t-67 -203t64 -204.5t179 -84.5q126 0 195 107z" />
    <glyph glyph-name="D" unicode="D" horiz-adv-x="729" 
d="M63 706h255q93 0 142 -15q111 -33 169.5 -125t58.5 -212q0 -109 -55.5 -203t-153.5 -128q-66 -23 -187 -23h-229v706zM207 612v-515h107q61 0 106 22t69.5 59.5t36 81.5t11.5 95q0 88 -35 151q-36 66 -91 86t-145 20h-59z" />
    <glyph glyph-name="E" unicode="E" horiz-adv-x="562" 
d="M547 0h-483v706h442v-96h-299v-196h262v-97h-262v-221h340v-96z" />
    <glyph glyph-name="F" unicode="F" horiz-adv-x="500" 
d="M504 610h-297v-193h258v-99h-258v-318h-143v706h440v-96z" />
    <glyph glyph-name="G" unicode="G" horiz-adv-x="750" 
d="M423 358h271v-307q-147 -72 -288 -72q-163 0 -264 101.5t-101 265.5q0 104 37 179q46 94 136.5 148.5t195.5 54.5q93 0 169 -46t91 -132l-39 -15q-60 100 -180 100q-119 0 -188.5 -79t-69.5 -199q0 -113 65 -199.5t174 -86.5q49 0 123 27v163h-132v97z" />
    <glyph glyph-name="H" unicode="H" horiz-adv-x="708" 
d="M644 0h-142v320h-297v-320h-142v706h142v-290h297v290h142v-706z" />
    <glyph glyph-name="I" unicode="I" horiz-adv-x="271" 
d="M207 0h-143v706h143v-706z" />
    <glyph glyph-name="J" unicode="J" horiz-adv-x="479" 
d="M278 706h142v-485q0 -78 -14 -115q-23 -62 -79.5 -94.5t-126.5 -32.5q-76 0 -129 38.5t-72 110.5l39 17q47 -84 124 -84q116 0 116 174v471z" />
    <glyph glyph-name="K" unicode="K" horiz-adv-x="667" 
d="M683 0h-179l-298 348v-348h-142v706h142v-313l297 313h144l-299 -314z" />
    <glyph glyph-name="L" unicode="L" horiz-adv-x="542" 
d="M526 0h-462v706h144v-607h318v-99z" />
    <glyph glyph-name="M" unicode="M" horiz-adv-x="896" 
d="M865 0h-143l-59 427l-186 -427h-76l-190 423l-61 -423h-121l112 706h81l228 -506l222 506h82z" />
    <glyph glyph-name="N" unicode="N" horiz-adv-x="750" 
d="M686 -9h-35l-474 529v-520h-113v706h126l384 -432v432h112v-715z" />
    <glyph glyph-name="O" unicode="O" horiz-adv-x="771" 
d="M733 355q0 -48 -9 -95.5t-33.5 -99.5t-62.5 -91t-101.5 -64.5t-144.5 -25.5q-165 0 -254.5 102.5t-89.5 269.5q0 168 90 272.5t256 104.5q161 0 255 -100.5t94 -272.5zM580 355q0 52 -9.5 98t-30.5 88.5t-61 67.5t-95 25q-52 0 -91 -24.5t-60 -65.5t-30.5 -86t-9.5 -94
q0 -54 8 -100.5t28 -92t60 -72t97 -26.5q46 0 81 17.5t56 44.5t34 65.5t18 75.5t5 79z" />
    <glyph glyph-name="P" unicode="P" horiz-adv-x="562" 
d="M64 706h268q116 0 173 -53t57 -133q0 -70 -43 -120t-103 -72t-128 -22q-18 0 -81 7v-313h-143v706zM207 610v-250h22q41 0 79.5 10t71.5 41.5t33 79.5q0 61 -42.5 90t-98.5 29h-65z" />
    <glyph glyph-name="Q" unicode="Q" horiz-adv-x="771" 
d="M193 367q0 -54 8 -101t28 -93t60 -73t97 -27q46 0 81 17.5t56 44.5t34 65.5t18 75.5t5 79q0 52 -9.5 98t-30.5 88.5t-61 67.5t-95 25q-91 0 -141 -74t-50 -193zM903 -136l-13 -35q-28 -2 -54 -2q-193 0 -377 75q-93 38 -171 87q-85 20 -138 70q-112 102 -112 287
q0 47 7.5 93t30 100.5t59 94.5t100.5 67t148 27q68 0 123.5 -17.5t91 -44t62.5 -64t40 -71.5t21 -72.5t10 -61t2 -42.5q0 -79 -22.5 -149.5t-74 -128t-125.5 -78.5q40 -21 91 -46q133 -62 301 -89z" />
    <glyph glyph-name="R" unicode="R" horiz-adv-x="625" 
d="M64 706h258q74 0 124.5 -17.5t82.5 -70.5q26 -43 26 -100q0 -63 -32.5 -110t-89.5 -73l197 -335h-160l-180 304q-38 0 -83 8v-312h-143v706zM207 609v-248h13q95 0 142 39t47 96q0 113 -143 113h-59z" />
    <glyph glyph-name="S" unicode="S" 
d="M555 547l-41 -10q-10 29 -29.5 50.5t-39 32t-43.5 16.5t-36.5 7t-24.5 1q-24 0 -48 -5t-49.5 -16t-41 -34t-15.5 -55q0 -43 32 -67.5t103 -38.5q132 -25 189 -79.5t57 -135.5q0 -43 -16 -83t-48.5 -74.5t-89.5 -55.5t-131 -21q-128 0 -192 61t-72 150l39 14
q20 -46 51 -77t65 -43t55.5 -15.5t41.5 -3.5q73 0 111.5 36.5t38.5 83.5q0 30 -13 52t-37.5 34.5t-45.5 18.5t-52 11q-228 37 -228 206q0 25 5.5 50.5t23 58t46 56.5t79.5 40.5t118 16.5q43 0 80.5 -8.5t72 -28t57.5 -56.5t28 -89z" />
    <glyph glyph-name="T" unicode="T" horiz-adv-x="562" 
d="M562 610h-208v-610h-144v610h-209v96h561v-96z" />
    <glyph glyph-name="U" unicode="U" horiz-adv-x="708" 
d="M644 0h-143v83q-74 -105 -209 -105q-90 0 -145 42q-54 41 -71 97.5t-17 153.5v435h144v-461q0 -74 33.5 -123.5t104.5 -49.5q85 0 160 79v555h143v-706z" />
    <glyph glyph-name="V" unicode="V" horiz-adv-x="708" 
d="M709 706l-337 -718h-35l-338 718h155l216 -487l217 487h122z" />
    <glyph glyph-name="W" unicode="W" horiz-adv-x="938" 
d="M937 706l-231 -716h-41l-191 467l-196 -467h-45l-232 716h147l135 -450l175 450h52l176 -455l135 455h116z" />
    <glyph glyph-name="X" unicode="X" horiz-adv-x="667" 
d="M661 0h-166l-176 261l-186 -261h-136l255 358l-237 348h166l157 -228l164 228h135l-233 -326z" />
    <glyph glyph-name="Y" unicode="Y" horiz-adv-x="708" 
d="M-1 706h152l202 -511l235 511h122l-326 -698q-30 -64 -51.5 -100t-53.5 -68t-73.5 -45t-100.5 -13q-27 0 -81 6v40q53 5 86 16t66 41q30 27 48.5 57.5t51.5 102.5z" />
    <glyph glyph-name="Z" unicode="Z" horiz-adv-x="667" 
d="M634 0h-613v31l399 577h-368v98h574v-35l-396 -572h404v-99z" />
    <glyph glyph-name="bracketleft" unicode="[" horiz-adv-x="354" 
d="M341 0h-264v706h264v-88h-131v-530h131v-88z" />
    <glyph glyph-name="backslash" unicode="\" horiz-adv-x="437" 
d="M439 0h-130l-310 706h131z" />
    <glyph glyph-name="bracketright" unicode="]" horiz-adv-x="354" 
d="M277 0h-264v88h131v530h-131v88h264v-706z" />
    <glyph glyph-name="asciicircum" unicode="^" horiz-adv-x="724" 
d="M628 284h-133l-134 305l-138 -305h-126l207 422h118z" />
    <glyph glyph-name="underscore" unicode="_" horiz-adv-x="500" 
d="M510 -216h-520v79h520v-79z" />
    <glyph glyph-name="grave" unicode="`" horiz-adv-x="292" 
d="M261 591l-34 -30l-197 175h134z" />
    <glyph glyph-name="a" unicode="a" horiz-adv-x="562" 
d="M504 0h-130v59q-68 -74 -165 -74q-88 0 -130 51t-42 116q0 86 63.5 133.5t151.5 47.5q53 0 122 -21q0 60 -30 102t-103 42q-87 0 -140 -76l-34 17q55 137 212 137q225 0 225 -215v-319zM374 105v130q-50 20 -86 20q-47 0 -78.5 -25t-31.5 -71q0 -42 25 -67t67 -25
q47 0 104 38z" />
    <glyph glyph-name="b" unicode="b" 
d="M59 706h133v-253q55 80 158 80q73 0 124 -40.5t72.5 -100t21.5 -131.5q0 -133 -68 -208.5t-158 -75.5t-150 76v-53h-133v706zM192 384v-266q45 -59 107 -59q38 0 65.5 19.5t40.5 52.5t18.5 65.5t5.5 68.5q0 45 -10.5 84.5t-40.5 70.5t-76 31q-71 0 -110 -67z" />
    <glyph glyph-name="c" unicode="c" horiz-adv-x="521" 
d="M517 369l-35 -12q-19 47 -57 74.5t-86 27.5q-69 0 -114 -56.5t-45 -146.5q0 -81 40.5 -141t118.5 -60q92 0 143 97l35 -13q-48 -160 -217 -160q-116 0 -188.5 77t-72.5 193q0 125 70.5 205t193.5 80q84 0 140 -42t74 -123z" />
    <glyph glyph-name="d" unicode="d" 
d="M545 0h-134v53q-67 -73 -157 -73q-72 0 -123 40.5t-72.5 100t-21.5 130.5q0 112 59 197.5t166 85.5q91 0 149 -77v249h134v-706zM411 118v266q-40 67 -105 67q-51 0 -91 -45t-40 -145q0 -48 9.5 -90t40.5 -76.5t80 -34.5q34 0 58 14t48 44z" />
    <glyph glyph-name="e" unicode="e" 
d="M573 243h-394q5 -81 52.5 -130t127.5 -49q58 0 92.5 21t72.5 71l33 -16q-52 -161 -240 -161q-73 0 -129 25.5t-88 67.5t-47.5 90.5t-15.5 100.5q0 118 74.5 195t201.5 77q119 0 189.5 -71.5t70.5 -204.5v-16zM182 321h246q-7 60 -33 95t-84 35t-86 -34t-43 -96z" />
    <glyph glyph-name="f" unicode="f" horiz-adv-x="333" 
d="M219 432v-432h-133v432h-78v80h78v58q0 73 42.5 115.5t123.5 42.5q80 0 119 -45l-21 -30q-26 13 -51 13q-44 0 -62 -32.5t-18 -75.5v-46h117v-80h-117z" />
    <glyph glyph-name="g" unicode="g" 
d="M412 512h134v-447q0 -91 -26.5 -149.5t-101.5 -91.5q-63 -27 -134 -27q-85 0 -150.5 39t-78.5 118l32 14q51 -91 156 -91q51 0 86.5 18.5t52.5 49t23.5 59t6.5 60.5v36q-66 -80 -168 -80q-19 0 -43 6t-53.5 24t-53.5 44.5t-40 73t-16 104.5q0 117 61 189.5t159 72.5
q100 0 154 -78v56zM412 159v226q-45 69 -108 69q-44 0 -74 -30t-40.5 -68t-10.5 -82q0 -82 34 -128t87 -46q56 0 112 59z" />
    <glyph glyph-name="h" unicode="h" horiz-adv-x="583" 
d="M523 0h-133v317q0 129 -87 129q-55 0 -111 -60v-386h-133v706h133v-258q63 80 162 80q80 0 124.5 -47t44.5 -126v-355z" />
    <glyph glyph-name="i" unicode="i" horiz-adv-x="250" 
d="M198 653q0 -31 -22 -53t-53 -22q-30 0 -52 22.5t-22 52.5t22 52t52 22t52.5 -22t22.5 -52zM191 0h-133v512h133v-512z" />
    <glyph glyph-name="j" unicode="j" horiz-adv-x="250" 
d="M200 653q0 -31 -22 -53t-53 -22q-30 0 -52 22.5t-22 52.5t22 52t52 22t52.5 -22t22.5 -52zM60 512h132v-533q0 -55 -19 -92t-54.5 -55.5t-68.5 -26t-80 -10.5l-4 38q57 11 75.5 40.5t18.5 92.5v546z" />
    <glyph glyph-name="k" unicode="k" horiz-adv-x="562" 
d="M566 0h-153q-36 32 -72.5 72t-81 93.5t-67.5 79.5v-245h-132v706h132v-409l202 215h137l-210 -220z" />
    <glyph glyph-name="l" unicode="l" horiz-adv-x="250" 
d="M192 0h-134v706h134v-706z" />
    <glyph glyph-name="m" unicode="m" horiz-adv-x="875" 
d="M817 0h-133v366q0 32 -19.5 55.5t-56.5 23.5q-64 0 -104 -72v-373h-133v351q0 40 -20 67t-59 27q-61 0 -100 -72v-373h-134v512h134v-64q60 79 163 79q110 0 142 -90q61 90 167 90q76 0 114.5 -41t38.5 -115v-371z" />
    <glyph glyph-name="n" unicode="n" horiz-adv-x="583" 
d="M522 0h-133v332q0 112 -86 112q-57 0 -111 -63v-381h-134v512h134v-67q62 82 166 82q77 0 120.5 -45t43.5 -119v-363z" />
    <glyph glyph-name="o" unicode="o" 
d="M39 251q0 132 74.5 207t188.5 75q86 0 147.5 -40t89.5 -100.5t28 -133.5q0 -32 -6.5 -65.5t-25 -73.5t-47 -70t-78.5 -50.5t-114 -20.5q-118 0 -187.5 76t-69.5 196zM179 261q0 -34 5 -65.5t18 -64t39 -52t62 -19.5q35 0 60.5 19t38 49.5t18.5 61.5t6 63q0 34 -5.5 65.5
t-18 63.5t-38.5 51t-62 19q-45 0 -74.5 -33t-39 -73.5t-9.5 -84.5z" />
    <glyph glyph-name="p" unicode="p" 
d="M58 512h133v-50q74 72 165 72q55 0 97 -24.5t65.5 -65.5t35 -88.5t11.5 -99.5q0 -115 -56.5 -196t-162.5 -81q-89 0 -155 77v-253h-133v709zM191 397v-272q43 -64 110 -64q36 0 62.5 18t39.5 48.5t18.5 61.5t5.5 65q0 35 -6 67.5t-19.5 63.5t-41 50t-64.5 19
q-59 0 -105 -57z" />
    <glyph glyph-name="q" unicode="q" 
d="M546 -197h-133v252q-67 -75 -160 -75q-57 0 -100 23.5t-67 64t-36 88.5t-12 103q0 72 23.5 132.5t75.5 100.5t126 40q48 0 82 -18.5t68 -56.5v55h133v-709zM413 125v269q-45 60 -106 60q-48 0 -79 -33t-41.5 -75t-10.5 -90q0 -49 10 -89.5t41 -72.5t80 -32q63 0 106 63z
" />
    <glyph glyph-name="r" unicode="r" horiz-adv-x="375" 
d="M59 512h134v-63q61 78 153 78q16 0 38 -2v-117q-51 24 -89 24q-46 0 -102 -35v-397h-134v512z" />
    <glyph glyph-name="s" unicode="s" horiz-adv-x="479" 
d="M438 398l-36 -11q-13 34 -48.5 52.5t-84.5 18.5q-40 0 -71 -16t-31 -52q0 -32 26.5 -48t96.5 -31q71 -16 105 -41q55 -42 55 -119q0 -25 -9.5 -51.5t-32 -55t-68.5 -47t-109 -18.5q-84 0 -146 38t-69 117l35 8q17 -45 62 -66.5t98 -21.5q56 0 79.5 25t23.5 51
q0 55 -89 78q-14 4 -38 9t-39 9.5t-28 9.5q-89 39 -89 129q0 65 54.5 117t157.5 52q75 0 129.5 -34t65.5 -102z" />
    <glyph glyph-name="t" unicode="t" horiz-adv-x="354" 
d="M216 432v-275q0 -47 22.5 -80t69.5 -33q22 0 49 10l15 -32q-59 -41 -131 -41q-77 0 -118 42.5t-41 116.5v292h-81v80h81v139h134v-139h117v-80h-117z" />
    <glyph glyph-name="u" unicode="u" horiz-adv-x="583" 
d="M523 0h-134v63q-63 -79 -159 -79q-81 0 -126.5 41.5t-45.5 123.5v363h134v-341q0 -46 21.5 -76t70.5 -30q54 0 105 57v390h134v-512z" />
    <glyph glyph-name="v" unicode="v" horiz-adv-x="500" 
d="M504 512l-232 -516h-41l-236 516h144l131 -302l126 302h108z" />
    <glyph glyph-name="w" unicode="w" horiz-adv-x="750" 
d="M750 512l-193 -516h-48l-135 298l-135 -298h-49l-190 516h139l100 -299l133 299h44l124 -299l103 299h107z" />
    <glyph glyph-name="x" unicode="x" horiz-adv-x="521" 
d="M522 0h-150l-124 180l-132 -180h-118l194 262l-171 250h151l98 -143l108 143h117l-168 -226z" />
    <glyph glyph-name="y" unicode="y" horiz-adv-x="500" 
d="M501 512l-219 -490q-16 -36 -24 -53t-23.5 -46t-27.5 -42.5t-32 -32t-40.5 -27t-48.5 -14.5t-62 -6q-6 0 -18.5 0.5t-15.5 0.5v38q31 0 59.5 14t48 33.5t39 50.5t30 54t24.5 55l8 19l-199 446h144l121 -297l127 297h109z" />
    <glyph glyph-name="z" unicode="z" horiz-adv-x="521" 
d="M484 0h-472v34l279 395h-250v83h443v-28l-281 -400h281v-84z" />
    <glyph glyph-name="braceleft" unicode="{" horiz-adv-x="305" 
d="M304 712v-45q-57 -9 -77 -33t-20 -76v-82q0 -53 -20 -79.5t-69 -43.5q49 -16 69 -43t20 -80v-76q0 -58 19 -82.5t78 -33.5v-45h-53q-92 0 -132 29t-40 115v77q0 57 -14.5 82t-59.5 34v47q43 8 58.5 32.5t15.5 77.5v86q0 81 41 110t146 29h38z" />
    <glyph glyph-name="bar" unicode="|" horiz-adv-x="287" 
d="M77 745h133v-784h-133v784z" />
    <glyph glyph-name="braceright" unicode="}" horiz-adv-x="305" 
d="M0 667v45h54q92 0 132 -29t40 -115v-79q0 -56 14 -80t60 -34v-47q-43 -8 -58.5 -32t-15.5 -73v-90q0 -81 -41 -110.5t-146 -29.5h-39v45q57 8 77.5 33.5t20.5 78.5v79q0 53 20 79.5t69 43.5q-49 16 -69 43t-20 80v73q0 59 -20 85.5t-78 33.5z" />
    <glyph glyph-name="asciitilde" unicode="~" horiz-adv-x="724" 
d="M602 402l56 -84q-49 -64 -87 -89t-84 -25q-40 0 -120 40l-36 18q-64 32 -104 32q-27 0 -48 -14.5t-57 -59.5l-56 85q43 63 79 88.5t85 25.5q48 0 128 -40l50 -25q52 -26 79 -26q55 0 115 74z" />
    <glyph glyph-name="nbspace" unicode="&#xa0;" horiz-adv-x="292" 
 />
    <glyph glyph-name="exclamdown" unicode="&#xa1;" horiz-adv-x="292" 
d="M195 0h-143v156q0 216 51 353h41q31 -100 41 -188.5t10 -212.5v-108zM46 645q0 31 23 54.5t55 23.5t55.5 -23t23.5 -55t-23.5 -55.5t-55.5 -23.5t-55 23.5t-23 55.5z" />
    <glyph glyph-name="cent" unicode="&#xa2;" horiz-adv-x="542" 
d="M517 369l-35 -12q-22 46 -49.5 70.5t-73.5 30.5v-402q44 5 72 29t51 67l35 -13q-38 -130 -159 -155v-85h-59v80q-109 0 -184.5 74.5t-75.5 193.5q0 125 69.5 206t191.5 81v79h59v-85q129 -26 158 -159zM300 60v393q-59 -15 -89.5 -71t-30.5 -122q0 -44 10 -81.5t38 -71
t72 -47.5z" />
    <glyph glyph-name="sterling" unicode="&#xa3;" horiz-adv-x="646" 
d="M638 101l-35 -101h-448q-41 0 -68 -10l-19 39q49 33 79.5 85.5t30.5 108.5q0 9 -5 59h-143v87h125q-16 96 -16 127q0 96 71.5 151.5t169.5 55.5q93 0 150.5 -48t62.5 -144l-48 -6q-4 54 -41 85t-90 31q-20 0 -40.5 -6t-41.5 -20t-34.5 -41.5t-13.5 -65.5q0 -45 19 -119
h145v-87h-140v-11q0 -102 -91 -170h421z" />
    <glyph glyph-name="currency" unicode="&#xa4;" horiz-adv-x="680" 
d="M569 638l71 -71l-78 -77q27 -46 37.5 -77.5t10.5 -72.5q0 -80 -49 -154l78 -78l-71 -70l-77 79q-46 -28 -77 -38t-74 -10q-80 0 -152 48l-78 -76l-69 69l78 77q-49 71 -49 153q0 80 49 151l-77 76l70 70l76 -76q70 48 153 48q84 0 151 -48zM508 337q0 75 -48 125t-119 50
q-72 0 -120.5 -49.5t-48.5 -123.5t48.5 -123t121.5 -49q70 0 118 49.5t48 120.5z" />
    <glyph glyph-name="yen" unicode="&#xa5;" horiz-adv-x="625" 
d="M635 684l-143 -271h78v-81h-121l-48 -89h169v-82h-212l-14 -26q-16 -29 -22.5 -41t-20.5 -35.5t-21.5 -33t-22 -26.5t-25.5 -23.5t-27.5 -16.5t-33.5 -14t-39 -7t-47 -3q-26 0 -76 6v33q91 6 137 44t93 131l-5 12h-187v82h151l-38 89h-113v81h77l-118 271h139l166 -407
l211 407h113z" />
    <glyph glyph-name="brokenbar" unicode="&#xa6;" horiz-adv-x="287" 
d="M77 745h133v-333h-133v333zM77 295h133v-334h-133v334z" />
    <glyph glyph-name="section" unicode="&#xa7;" horiz-adv-x="562" 
d="M497 529l-42 -7q-11 54 -48 86t-90 32q-39 0 -70 -23.5t-31 -60.5q0 -36 27.5 -58.5t86.5 -43.5q90 -33 134 -71.5t44 -107.5q0 -91 -90 -156q73 -63 73 -138q0 -28 -12 -58t-36.5 -59t-69 -47.5t-102.5 -18.5q-100 0 -158.5 48.5t-63.5 149.5l42 9q24 -116 148 -116
q54 0 80 22.5t26 57.5q0 31 -21.5 48.5t-64.5 34.5l-71 29q-140 57 -140 170q0 53 24.5 88.5t72.5 63.5q-72 53 -72 144q0 87 66 134t157 47t145.5 -52t55.5 -147zM269 341l-84 36q-38 -32 -38 -75q0 -18 9 -34.5t19.5 -27.5t31.5 -22.5t33 -17t36.5 -15t30.5 -11.5
q14 -6 68 -30q37 34 37 74q0 18 -8 33.5t-16 25.5t-28.5 22t-28.5 16t-33.5 14.5t-28.5 11.5z" />
    <glyph glyph-name="dieresis" unicode="&#xa8;" horiz-adv-x="292" 
d="M324 649q0 -29 -21.5 -50.5t-50.5 -21.5q-30 0 -51 21t-21 51q0 29 21.5 50.5t50.5 21.5t50.5 -21.5t21.5 -50.5zM113 649q0 -29 -21.5 -50.5t-50.5 -21.5t-51 21.5t-22 50.5t22 50.5t51 21.5t50.5 -21.5t21.5 -50.5z" />
    <glyph glyph-name="copyright" unicode="&#xa9;" horiz-adv-x="774" 
d="M573 450l-32 -16q-44 73 -116 73q-58 0 -95 -43t-37 -111q0 -69 36.5 -112.5t94.5 -43.5q71 0 119 76l31 -17q-47 -125 -180 -125q-92 0 -151.5 61.5t-59.5 156.5q0 97 62 160.5t157 63.5q129 0 171 -123zM743 356q0 -151 -104.5 -255t-252.5 -104q-149 0 -252 104
t-103 254q0 149 103 251.5t253 102.5q149 0 252.5 -102.5t103.5 -250.5zM702 351q0 136 -91 228.5t-224 92.5t-225 -92.5t-92 -226.5q0 -133 92.5 -226.5t223.5 -93.5t223.5 93.5t92.5 224.5z" />
    <glyph glyph-name="ordfeminine" unicode="&#xaa;" horiz-adv-x="375" 
d="M332 374h-88v33q-42 -42 -102 -42q-49 0 -81 31t-32 78q0 56 42.5 87t97.5 31q31 0 75 -12q-1 15 -3 24t-9.5 25.5t-25 25.5t-44.5 9q-52 0 -88 -49l-27 13q32 92 142 92q143 0 143 -140v-206zM244 446v79q-27 11 -52 11q-28 0 -47.5 -14.5t-19.5 -43.5q0 -26 14.5 -40.5
t40.5 -14.5q30 0 64 23z" />
    <glyph glyph-name="guillemotleft" unicode="&#xab;" horiz-adv-x="500" 
d="M471 143h-111l-125 125l125 127h111l-125 -127zM254 143h-111l-125 125l125 127h111l-125 -127z" />
    <glyph glyph-name="logicalnot" unicode="&#xac;" horiz-adv-x="724" 
d="M507 259h-438v102h566v-347h-128v245z" />
    <glyph glyph-name="uni00AD" unicode="&#xad;" horiz-adv-x="355" 
d="M34 311h287v-86h-287v86z" />
    <glyph glyph-name="registered" unicode="&#xae;" horiz-adv-x="774" 
d="M743 356q0 -151 -104.5 -255t-252.5 -104q-149 0 -252 104t-103 254q0 149 103 251.5t253 102.5q149 0 252.5 -102.5t103.5 -250.5zM702 351q0 136 -91 228.5t-224 92.5t-225 -92.5t-92 -226.5q0 -133 92.5 -226.5t223.5 -93.5t223.5 93.5t92.5 224.5zM231 561h140
q83 0 118 -17q57 -27 57 -93q0 -71 -77 -108l116 -200h-112l-95 182l-34 -2q-11 0 -15 1v-181h-98v418zM329 504v-138q114 2 114 74q0 64 -78 64h-36z" />
    <glyph glyph-name="macron" unicode="&#xaf;" horiz-adv-x="292" 
d="M320 612h-347v77h347v-77z" />
    <glyph glyph-name="degree" unicode="&#xb0;" horiz-adv-x="354" 
d="M338 594q0 -67 -47 -114.5t-114 -47.5t-114 47.5t-47 114.5t47 114t114 47q68 0 114.5 -46.5t46.5 -114.5zM256 596q0 33 -23 56t-56 23t-56 -23t-23 -56q0 -32 23.5 -55.5t55.5 -23.5q33 0 56 23t23 56z" />
    <glyph glyph-name="plusminus" unicode="&#xb1;" horiz-adv-x="724" 
d="M426 160h-127v205h-206v100h206v201h127v-201h205v-100h-205v-205zM631 0h-538v107h538v-107z" />
    <glyph glyph-name="twosuperior" unicode="&#xb2;" horiz-adv-x="417" 
d="M370 243h-332v29l142 154q72 78 72 130q0 27 -19.5 51.5t-60.5 24.5q-35 0 -62.5 -22.5t-42.5 -57.5l-29 8q7 62 49 98.5t107 36.5t111 -36t46 -100q0 -35 -18.5 -71t-35.5 -55.5t-52 -55.5l-65 -66h190v-68z" />
    <glyph glyph-name="threesuperior" unicode="&#xb3;" horiz-adv-x="417" 
d="M143 509h18q50 0 71 20.5t21 43.5q0 24 -19 42t-54 18q-71 0 -110 -79l-31 9q22 132 162 132q73 0 109.5 -35t36.5 -79q0 -71 -79 -98q44 -9 73 -39t29 -74q0 -21 -8 -42.5t-26 -44.5t-56 -37.5t-89 -14.5q-143 0 -162 128l30 10q34 -76 113 -76q31 0 52 10.5t29.5 26
t11.5 26t3 17.5q0 30 -21 52.5t-71 22.5q-25 0 -33 -1v62z" />
    <glyph glyph-name="acute" unicode="&#xb4;" horiz-adv-x="292" 
d="M257 736l-188 -175l-34 28l98 147h124z" />
    <glyph glyph-name="mu" unicode="&#xb5;" horiz-adv-x="583" 
d="M523 0h-134v63q-29 -38 -53 -54.5t-64 -16.5q-61 0 -80 39v-228h-134v709h134v-338q0 -49 22.5 -79t69.5 -30q54 0 105 57v390h134v-512z" />
    <glyph glyph-name="paragraph" unicode="&#xb6;" horiz-adv-x="641" 
d="M534 706v-67h-34v-806h-70v806h-132v-806h-71v481q-72 15 -113.5 63.5t-41.5 125.5q0 91 55.5 147t175.5 56h231z" />
    <glyph glyph-name="periodcentered" unicode="&#xb7;" horiz-adv-x="250" 
d="M204 280q0 -35 -22 -57t-57 -22q-34 0 -56.5 22.5t-22.5 56.5t22.5 56t55.5 22q35 0 57.5 -22t22.5 -56z" />
    <glyph glyph-name="cedilla" unicode="&#xb8;" horiz-adv-x="292" 
d="M97 2h71v-42q39 -2 65.5 -20t26.5 -57q0 -37 -34 -68.5t-106 -31.5q-30 0 -88 10l12 48q28 -7 52 -7q26 0 42 10.5t16 28.5q0 34 -47 34h-10v95z" />
    <glyph glyph-name="onesuperior" unicode="&#xb9;" horiz-adv-x="417" 
d="M264 243h-96v333l-80 -26l-13 26l160 107h29v-440z" />
    <glyph glyph-name="ordmasculine" unicode="&#xba;" horiz-adv-x="396" 
d="M369 542q0 -81 -47.5 -131t-128.5 -50q-78 0 -122 50.5t-44 128.5q0 49 17 86t44.5 56.5t55 28.5t54.5 9q78 0 124.5 -50.5t46.5 -127.5zM273 538q0 30 -5 55t-23 47t-48 22q-40 0 -57.5 -36.5t-17.5 -82.5q0 -30 5 -55t23 -47t48 -22q40 0 57.5 37t17.5 82z" />
    <glyph glyph-name="guillemotright" unicode="&#xbb;" horiz-adv-x="500" 
d="M479 270l-125 -127h-111l125 127l-125 125h111zM262 270l-124 -127h-111l124 127l-124 125h111z" />
    <glyph glyph-name="onequarter" unicode="&#xbc;" horiz-adv-x="958" 
d="M891 106h-59v-106h-91v103h-221v32l200 305h112v-271h59v-63zM226 243h-96v333l-80 -26l-13 26l159 107h30v-440zM741 169v185l-116 -185h116zM286 0h-84l332 683h84z" />
    <glyph glyph-name="onehalf" unicode="&#xbd;" horiz-adv-x="958" 
d="M883 0h-332v29l142 154q72 78 72 130q0 27 -19.5 51.5t-60.5 24.5q-35 0 -62.5 -22.5t-42.5 -57.5l-29 8q7 62 49 98.5t107 36.5t111 -36t46 -100q0 -35 -18.5 -71t-35.5 -55.5t-52 -55.5l-65 -66h190v-68zM236 243h-96v333l-80 -26l-13 26l159 107h30v-440zM284 0h-84
l332 683h84z" />
    <glyph glyph-name="threequarters" unicode="&#xbe;" horiz-adv-x="958" 
d="M699 683l-332 -683h-84l332 683h84zM143 509h18q50 0 71 20.5t21 43.5q0 24 -19 42t-54 18q-71 0 -110 -79l-31 9q22 132 162 132q73 0 109.5 -35t36.5 -79q0 -71 -79 -98q44 -9 73 -39t29 -74q0 -21 -8 -42.5t-26 -44.5t-56 -37.5t-89 -14.5q-143 0 -162 128l30 10
q34 -76 113 -76q31 0 52 10.5t29.5 26t11.5 26t3 17.5q0 30 -21 52.5t-71 22.5q-25 0 -33 -1v62zM929 106h-59v-106h-91v103h-221v32l200 305h112v-271h59v-63zM779 169v185l-116 -185h116z" />
    <glyph glyph-name="questiondown" unicode="&#xbf;" horiz-adv-x="542" 
d="M255 519h42q7 -38 7 -68q0 -77 -46 -144q-7 -10 -22.5 -30t-23.5 -31.5t-15.5 -30.5t-7.5 -39q0 -43 29 -71.5t72 -28.5q54 0 93 34.5t55 88.5l44 -9q-2 -35 -15.5 -70t-39 -67.5t-69.5 -52.5t-101 -20q-106 0 -162.5 55t-56.5 124q0 42 19 77.5t41.5 55.5t57.5 47.5
t52 46.5q18 19 28 43.5t13 40.5t6 49zM197 646q0 32 23 55t55 23t55.5 -23t23.5 -55t-23.5 -55t-55.5 -23q-31 0 -54.5 23t-23.5 55z" />
    <glyph glyph-name="Agrave" unicode="&#xc0;" horiz-adv-x="708" 
d="M708 0h-152l-70 156h-292l-70 -156h-125l336 706h49zM443 249l-105 229l-102 -229h207zM317 923l97 -145l-34 -30l-197 175h134z" />
    <glyph glyph-name="Aacute" unicode="&#xc1;" horiz-adv-x="708" 
d="M708 0h-152l-70 156h-292l-70 -156h-125l336 706h49zM443 249l-105 229l-102 -229h207zM411 923h124l-188 -175l-34 28z" />
    <glyph glyph-name="Acircumflex" unicode="&#xc2;" horiz-adv-x="708" 
d="M708 0h-152l-70 156h-292l-70 -156h-125l336 706h49zM443 249l-105 229l-102 -229h207zM317 923h95l100 -147l-33 -30l-114 105l-111 -105l-33 30z" />
    <glyph glyph-name="Atilde" unicode="&#xc3;" horiz-adv-x="708" 
d="M708 0h-152l-70 156h-292l-70 -156h-125l336 706h49zM443 249l-105 229l-102 -229h207zM515 900v-46q0 -86 -58 -86q-27 0 -77 21t-74 21q-32 0 -32 -41h-65v33q0 100 70 100q21 0 72 -19t73 -19q30 0 30 36h61z" />
    <glyph glyph-name="Adieresis" unicode="&#xc4;" horiz-adv-x="708" 
d="M708 0h-152l-70 156h-292l-70 -156h-125l336 706h49zM443 249l-105 229l-102 -229h207zM536 838q0 -29 -21.5 -50.5t-50.5 -21.5q-30 0 -51 21t-21 51q0 29 21.5 50.5t50.5 21.5t50.5 -21.5t21.5 -50.5zM325 838q0 -29 -21.5 -50.5t-50.5 -21.5t-51 21.5t-22 50.5
t22 50.5t51 21.5t50.5 -21.5t21.5 -50.5z" />
    <glyph glyph-name="Aring" unicode="&#xc5;" horiz-adv-x="708" 
d="M708 0h-152l-70 156h-292l-70 -156h-125l336 706h49zM443 249l-105 229l-102 -229h207zM448 836q0 -36 -25.5 -62t-61.5 -26t-62 26t-26 62t26 61.5t62 25.5q35 0 61 -26t26 -61zM402 836q0 17 -12 29.5t-29 12.5t-29.5 -12.5t-12.5 -29.5q0 -18 12 -30t30 -12
q17 0 29 12.5t12 29.5z" />
    <glyph glyph-name="AE" unicode="&#xc6;" horiz-adv-x="1000" 
d="M985 0h-488v175h-254l-101 -175h-143l430 706h513v-100h-302v-190h266v-100h-266v-217h345v-99zM497 271v335l-196 -335h196z" />
    <glyph glyph-name="Ccedilla" unicode="&#xc7;" horiz-adv-x="688" 
d="M629 174l40 -16q-57 -179 -274 -179v-19q39 -2 65.5 -20t26.5 -57q0 -37 -34 -68.5t-106 -31.5q-30 0 -88 10l12 48q28 -7 52 -7q26 0 42 10.5t16 28.5q0 34 -47 34h-10v78q-68 10 -120.5 40t-82.5 68.5t-49.5 86.5t-26 88.5t-6.5 80.5q0 174 104 277.5t258 103.5
q102 0 176 -44.5t91 -138.5l-40 -12q-24 53 -74 80t-110 27q-119 0 -186 -83t-67 -203t64 -204.5t179 -84.5q126 0 195 107z" />
    <glyph glyph-name="Egrave" unicode="&#xc8;" horiz-adv-x="562" 
d="M547 0h-483v706h442v-96h-299v-196h262v-97h-262v-221h340v-96zM233 923l97 -145l-34 -30l-197 175h134z" />
    <glyph glyph-name="Eacute" unicode="&#xc9;" horiz-adv-x="562" 
d="M547 0h-483v706h442v-96h-299v-196h262v-97h-262v-221h340v-96zM327 923h124l-188 -175l-34 28z" />
    <glyph glyph-name="Ecircumflex" unicode="&#xca;" horiz-adv-x="562" 
d="M547 0h-483v706h442v-96h-299v-196h262v-97h-262v-221h340v-96zM233 923h95l100 -147l-33 -30l-114 105l-111 -105l-33 30z" />
    <glyph glyph-name="Edieresis" unicode="&#xcb;" horiz-adv-x="562" 
d="M547 0h-483v706h442v-96h-299v-196h262v-97h-262v-221h340v-96zM457 838q0 -29 -21.5 -50.5t-50.5 -21.5q-30 0 -51 21t-21 51q0 29 21.5 50.5t50.5 21.5t50.5 -21.5t21.5 -50.5zM246 838q0 -29 -21.5 -50.5t-50.5 -21.5t-51 21.5t-22 50.5t22 50.5t51 21.5t50.5 -21.5
t21.5 -50.5z" />
    <glyph glyph-name="Igrave" unicode="&#xcc;" horiz-adv-x="271" 
d="M207 0h-143v706h143v-706zM87 923l97 -145l-34 -30l-197 175h134z" />
    <glyph glyph-name="Iacute" unicode="&#xcd;" horiz-adv-x="271" 
d="M207 0h-143v706h143v-706zM181 923h124l-188 -175l-34 28z" />
    <glyph glyph-name="Icircumflex" unicode="&#xce;" horiz-adv-x="271" 
d="M207 0h-143v706h143v-706zM87 923h95l100 -147l-33 -30l-114 105l-111 -105l-33 30z" />
    <glyph glyph-name="Idieresis" unicode="&#xcf;" horiz-adv-x="271" 
d="M207 0h-143v706h143v-706zM311 838q0 -29 -21.5 -50.5t-50.5 -21.5q-30 0 -51 21t-21 51q0 29 21.5 50.5t50.5 21.5t50.5 -21.5t21.5 -50.5zM100 838q0 -29 -21.5 -50.5t-50.5 -21.5t-51 21.5t-22 50.5t22 50.5t51 21.5t50.5 -21.5t21.5 -50.5z" />
    <glyph glyph-name="Eth" unicode="&#xd0;" horiz-adv-x="729" 
d="M63 706h255q93 0 142 -15q111 -33 169.5 -125t58.5 -212q0 -109 -55.5 -203t-153.5 -128q-66 -23 -187 -23h-229v325h-63v82h63v299zM207 612v-205h153v-82h-153v-228h107q59 0 104 22t70 59.5t37 82t12 94.5q0 88 -35 151q-35 65 -91.5 85.5t-144.5 20.5h-59z" />
    <glyph glyph-name="Ntilde" unicode="&#xd1;" horiz-adv-x="750" 
d="M686 -9h-35l-474 529v-520h-113v706h126l384 -432v432h112v-715zM526 900v-46q0 -86 -58 -86q-28 0 -77 21t-74 21q-32 0 -32 -41h-65v33q0 100 70 100q21 0 72 -19t73 -19q30 0 30 36h61z" />
    <glyph glyph-name="Ograve" unicode="&#xd2;" horiz-adv-x="771" 
d="M733 355q0 -48 -9 -95.5t-33.5 -99.5t-62.5 -91t-101.5 -64.5t-144.5 -25.5q-165 0 -254.5 102.5t-89.5 269.5q0 168 90 272.5t256 104.5q161 0 255 -100.5t94 -272.5zM580 355q0 52 -9.5 98t-30.5 88.5t-61 67.5t-95 25q-52 0 -91 -24.5t-60 -65.5t-30.5 -86t-9.5 -94
q0 -54 8 -100.5t28 -92t60 -72t97 -26.5q46 0 81 17.5t56 44.5t34 65.5t18 75.5t5 79zM337 923l97 -145l-34 -30l-197 175h134z" />
    <glyph glyph-name="Oacute" unicode="&#xd3;" horiz-adv-x="771" 
d="M733 355q0 -48 -9 -95.5t-33.5 -99.5t-62.5 -91t-101.5 -64.5t-144.5 -25.5q-165 0 -254.5 102.5t-89.5 269.5q0 168 90 272.5t256 104.5q161 0 255 -100.5t94 -272.5zM580 355q0 52 -9.5 98t-30.5 88.5t-61 67.5t-95 25q-52 0 -91 -24.5t-60 -65.5t-30.5 -86t-9.5 -94
q0 -54 8 -100.5t28 -92t60 -72t97 -26.5q46 0 81 17.5t56 44.5t34 65.5t18 75.5t5 79zM431 923h124l-188 -175l-34 28z" />
    <glyph glyph-name="Ocircumflex" unicode="&#xd4;" horiz-adv-x="771" 
d="M733 355q0 -48 -9 -95.5t-33.5 -99.5t-62.5 -91t-101.5 -64.5t-144.5 -25.5q-165 0 -254.5 102.5t-89.5 269.5q0 168 90 272.5t256 104.5q161 0 255 -100.5t94 -272.5zM580 355q0 52 -9.5 98t-30.5 88.5t-61 67.5t-95 25q-52 0 -91 -24.5t-60 -65.5t-30.5 -86t-9.5 -94
q0 -54 8 -100.5t28 -92t60 -72t97 -26.5q46 0 81 17.5t56 44.5t34 65.5t18 75.5t5 79zM337 923h95l100 -147l-33 -30l-114 105l-111 -105l-33 30z" />
    <glyph glyph-name="Otilde" unicode="&#xd5;" horiz-adv-x="771" 
d="M733 355q0 -48 -9 -95.5t-33.5 -99.5t-62.5 -91t-101.5 -64.5t-144.5 -25.5q-165 0 -254.5 102.5t-89.5 269.5q0 168 90 272.5t256 104.5q161 0 255 -100.5t94 -272.5zM580 355q0 52 -9.5 98t-30.5 88.5t-61 67.5t-95 25q-52 0 -91 -24.5t-60 -65.5t-30.5 -86t-9.5 -94
q0 -54 8 -100.5t28 -92t60 -72t97 -26.5q46 0 81 17.5t56 44.5t34 65.5t18 75.5t5 79zM536 900v-46q0 -86 -58 -86q-28 0 -77 21t-74 21q-32 0 -32 -41h-65v33q0 100 70 100q21 0 72 -19t73 -19q30 0 30 36h61z" />
    <glyph glyph-name="Odieresis" unicode="&#xd6;" horiz-adv-x="771" 
d="M733 355q0 -48 -9 -95.5t-33.5 -99.5t-62.5 -91t-101.5 -64.5t-144.5 -25.5q-165 0 -254.5 102.5t-89.5 269.5q0 168 90 272.5t256 104.5q161 0 255 -100.5t94 -272.5zM580 355q0 52 -9.5 98t-30.5 88.5t-61 67.5t-95 25q-52 0 -91 -24.5t-60 -65.5t-30.5 -86t-9.5 -94
q0 -54 8 -100.5t28 -92t60 -72t97 -26.5q46 0 81 17.5t56 44.5t34 65.5t18 75.5t5 79zM564 838q0 -29 -21.5 -50.5t-50.5 -21.5q-30 0 -51 21t-21 51q0 29 21.5 50.5t50.5 21.5t50.5 -21.5t21.5 -50.5zM353 838q0 -29 -21.5 -50.5t-50.5 -21.5t-51 21.5t-22 50.5t22 50.5
t51 21.5t50.5 -21.5t21.5 -50.5z" />
    <glyph glyph-name="multiply" unicode="&#xd7;" horiz-adv-x="724" 
d="M597 169l-85 -91l-156 151l-144 -149l-76 72l144 148l-154 150l85 90l154 -149l144 149l76 -72l-144 -149z" />
    <glyph glyph-name="Oslash" unicode="&#xd8;" horiz-adv-x="771" 
d="M710 754l43 -39l-97 -108q76 -108 76 -255q0 -45 -7 -89t-29.5 -97t-59 -92.5t-101 -66.5t-149.5 -27q-70 0 -124.5 17.5t-107.5 61.5l-90 -97l-43 39l92 101q-75 103 -75 249q0 170 88.5 273.5t255.5 103.5q141 0 234 -77zM202 199l335 366q-32 41 -67 58.5t-87 17.5
q-47 0 -83 -17.5t-58 -45t-36 -66.5t-19 -77.5t-5 -82.5q0 -82 20 -153zM565 508l-336 -367q47 -76 154 -76q203 0 203 293q0 84 -21 150z" />
    <glyph glyph-name="Ugrave" unicode="&#xd9;" horiz-adv-x="708" 
d="M644 0h-143v83q-74 -105 -209 -105q-90 0 -145 42q-54 41 -71 97.5t-17 153.5v435h144v-461q0 -74 33.5 -123.5t104.5 -49.5q85 0 160 79v555h143v-706zM306 923l97 -145l-34 -30l-197 175h134z" />
    <glyph glyph-name="Uacute" unicode="&#xda;" horiz-adv-x="708" 
d="M644 0h-143v83q-74 -105 -209 -105q-90 0 -145 42q-54 41 -71 97.5t-17 153.5v435h144v-461q0 -74 33.5 -123.5t104.5 -49.5q85 0 160 79v555h143v-706zM400 923h124l-188 -175l-34 28z" />
    <glyph glyph-name="Ucircumflex" unicode="&#xdb;" horiz-adv-x="708" 
d="M644 0h-143v83q-74 -105 -209 -105q-90 0 -145 42q-54 41 -71 97.5t-17 153.5v435h144v-461q0 -74 33.5 -123.5t104.5 -49.5q85 0 160 79v555h143v-706zM306 923h95l100 -147l-33 -30l-114 105l-111 -105l-33 30z" />
    <glyph glyph-name="Udieresis" unicode="&#xdc;" horiz-adv-x="708" 
d="M644 0h-143v83q-74 -105 -209 -105q-90 0 -145 42q-54 41 -71 97.5t-17 153.5v435h144v-461q0 -74 33.5 -123.5t104.5 -49.5q85 0 160 79v555h143v-706zM530 838q0 -29 -21.5 -50.5t-50.5 -21.5q-30 0 -51 21t-21 51q0 29 21.5 50.5t50.5 21.5t50.5 -21.5t21.5 -50.5z
M319 838q0 -29 -21.5 -50.5t-50.5 -21.5t-51 21.5t-22 50.5t22 50.5t51 21.5t50.5 -21.5t21.5 -50.5z" />
    <glyph glyph-name="Yacute" unicode="&#xdd;" horiz-adv-x="708" 
d="M-1 706h152l202 -511l235 511h122l-326 -698q-30 -64 -51.5 -100t-53.5 -68t-73.5 -45t-100.5 -13q-27 0 -81 6v40q53 5 86 16t66 41q30 27 48.5 57.5t51.5 102.5zM400 923h124l-188 -175l-34 28z" />
    <glyph glyph-name="Thorn" unicode="&#xde;" horiz-adv-x="562" 
d="M64 706h143v-132h128q62 0 108.5 -17t71 -45.5t36 -59t11.5 -64.5q0 -103 -83 -158.5t-192 -55.5q-17 0 -80 7v-181h-143v706zM207 477v-250q61 0 104 13t64 34.5t29.5 41.5t8.5 42q0 50 -34.5 85t-120.5 35q-39 0 -51 -1z" />
    <glyph glyph-name="germandbls" unicode="&#xdf;" horiz-adv-x="583" 
d="M193 0h-134v464q0 81 16 123q27 71 92 105.5t147 34.5q55 0 96 -16t61.5 -41.5t29.5 -50t9 -47.5q0 -62 -47.5 -103t-114.5 -59q81 -12 135.5 -77t54.5 -147t-52 -142t-133 -60q-71 0 -126 52l22 35q22 -11 45 -11q51 0 77 46.5t26 101.5q0 65 -31 111t-91 64v43
q45 17 70.5 52t25.5 82q0 43 -22 72t-64 29q-92 0 -92 -117v-544z" />
    <glyph glyph-name="agrave" unicode="&#xe0;" horiz-adv-x="562" 
d="M504 0h-130v59q-68 -74 -165 -74q-88 0 -130 51t-42 116q0 86 63.5 133.5t151.5 47.5q53 0 122 -21q0 60 -30 102t-103 42q-87 0 -140 -76l-34 17q55 137 212 137q225 0 225 -215v-319zM374 105v130q-50 20 -86 20q-47 0 -78.5 -25t-31.5 -71q0 -42 25 -67t67 -25
q47 0 104 38zM340 591l-34 -30l-197 175h134z" />
    <glyph glyph-name="aacute" unicode="&#xe1;" horiz-adv-x="562" 
d="M504 0h-130v59q-68 -74 -165 -74q-88 0 -130 51t-42 116q0 86 63.5 133.5t151.5 47.5q53 0 122 -21q0 60 -30 102t-103 42q-87 0 -140 -76l-34 17q55 137 212 137q225 0 225 -215v-319zM374 105v130q-50 20 -86 20q-47 0 -78.5 -25t-31.5 -71q0 -42 25 -67t67 -25
q47 0 104 38zM462 736l-188 -175l-34 28l98 147h124z" />
    <glyph glyph-name="acircumflex" unicode="&#xe2;" horiz-adv-x="562" 
d="M504 0h-130v59q-68 -74 -165 -74q-88 0 -130 51t-42 116q0 86 63.5 133.5t151.5 47.5q53 0 122 -21q0 60 -30 102t-103 42q-87 0 -140 -76l-34 17q55 137 212 137q225 0 225 -215v-319zM374 105v130q-50 20 -86 20q-47 0 -78.5 -25t-31.5 -71q0 -42 25 -67t67 -25
q47 0 104 38zM439 589l-33 -30l-114 105l-111 -105l-33 30l96 147h95z" />
    <glyph glyph-name="atilde" unicode="&#xe3;" horiz-adv-x="562" 
d="M504 0h-130v59q-68 -74 -165 -74q-88 0 -130 51t-42 116q0 86 63.5 133.5t151.5 47.5q53 0 122 -21q0 60 -30 102t-103 42q-87 0 -140 -76l-34 17q55 137 212 137q225 0 225 -215v-319zM374 105v130q-50 20 -86 20q-47 0 -78.5 -25t-31.5 -71q0 -42 25 -67t67 -25
q47 0 104 38zM442 713v-46q0 -86 -58 -86q-28 0 -77 21t-74 21q-32 0 -32 -41h-65v33q0 100 70 100q21 0 72 -19t73 -19q30 0 30 36h61z" />
    <glyph glyph-name="adieresis" unicode="&#xe4;" horiz-adv-x="562" 
d="M504 0h-130v59q-68 -74 -165 -74q-88 0 -130 51t-42 116q0 86 63.5 133.5t151.5 47.5q53 0 122 -21q0 60 -30 102t-103 42q-87 0 -140 -76l-34 17q55 137 212 137q225 0 225 -215v-319zM374 105v130q-50 20 -86 20q-47 0 -78.5 -25t-31.5 -71q0 -42 25 -67t67 -25
q47 0 104 38zM463 649q0 -29 -21.5 -50.5t-50.5 -21.5q-30 0 -51 21t-21 51q0 29 21.5 50.5t50.5 21.5t50.5 -21.5t21.5 -50.5zM252 649q0 -29 -21.5 -50.5t-50.5 -21.5t-51 21.5t-22 50.5t22 50.5t51 21.5t50.5 -21.5t21.5 -50.5z" />
    <glyph glyph-name="aring" unicode="&#xe5;" horiz-adv-x="562" 
d="M504 0h-130v59q-68 -74 -165 -74q-88 0 -130 51t-42 116q0 86 63.5 133.5t151.5 47.5q53 0 122 -21q0 60 -30 102t-103 42q-87 0 -140 -76l-34 17q55 137 212 137q225 0 225 -215v-319zM374 105v130q-50 20 -86 20q-47 0 -78.5 -25t-31.5 -71q0 -42 25 -67t67 -25
q47 0 104 38zM373 650q0 -36 -25.5 -62t-61.5 -26t-62 26t-26 62t26 61.5t62 25.5q35 0 61 -26t26 -61zM327 650q0 17 -12 29.5t-29 12.5t-29.5 -12.5t-12.5 -29.5q0 -18 12 -30t30 -12q17 0 29 12.5t12 29.5z" />
    <glyph glyph-name="ae" unicode="&#xe6;" horiz-adv-x="917" 
d="M885 242h-384q4 -80 55 -128t126 -48q50 0 85.5 22t67.5 66l34 -17q-27 -78 -89 -118t-147 -40q-62 0 -116.5 25t-89.5 73q-96 -98 -213 -98q-80 0 -131.5 45t-51.5 125q0 87 61 128.5t152 41.5h129q-1 63 -35 98t-91 35q-48 0 -87.5 -20.5t-62.5 -57.5l-37 16
q23 71 82 108t134 37q110 0 173 -66q73 65 183 65q118 0 185.5 -72.5t67.5 -193.5v-26zM503 319h239q-3 56 -30.5 93t-81.5 37q-57 0 -87.5 -37t-39.5 -93zM404 117q-23 50 -31 125h-99q-44 0 -73.5 -22.5t-29.5 -65.5t28 -67t72 -24q69 0 133 54z" />
    <glyph glyph-name="ccedilla" unicode="&#xe7;" horiz-adv-x="521" 
d="M517 369l-35 -12q-19 47 -57 74.5t-86 27.5q-69 0 -114 -56.5t-45 -146.5q0 -81 40.5 -141t118.5 -60q92 0 143 97l35 -13q-48 -157 -211 -160v-19q39 -2 65.5 -20t26.5 -57q0 -37 -34 -68.5t-106 -31.5q-30 0 -88 10l12 48q28 -7 52 -7q26 0 42 10.5t16 28.5
q0 34 -47 34h-10v79q-90 20 -143 92t-53 171q0 125 70.5 205t193.5 80q84 0 140 -42t74 -123z" />
    <glyph glyph-name="egrave" unicode="&#xe8;" 
d="M573 243h-394q5 -81 52.5 -130t127.5 -49q58 0 92.5 21t72.5 71l33 -16q-52 -161 -240 -161q-73 0 -129 25.5t-88 67.5t-47.5 90.5t-15.5 100.5q0 118 74.5 195t201.5 77q119 0 189.5 -71.5t70.5 -204.5v-16zM182 321h246q-7 60 -33 95t-84 35t-86 -34t-43 -96zM356 591
l-34 -30l-197 175h134z" />
    <glyph glyph-name="eacute" unicode="&#xe9;" 
d="M573 243h-394q5 -81 52.5 -130t127.5 -49q58 0 92.5 21t72.5 71l33 -16q-52 -161 -240 -161q-73 0 -129 25.5t-88 67.5t-47.5 90.5t-15.5 100.5q0 118 74.5 195t201.5 77q119 0 189.5 -71.5t70.5 -204.5v-16zM182 321h246q-7 60 -33 95t-84 35t-86 -34t-43 -96zM477 736
l-188 -175l-34 28l98 147h124z" />
    <glyph glyph-name="ecircumflex" unicode="&#xea;" 
d="M573 243h-394q5 -81 52.5 -130t127.5 -49q58 0 92.5 21t72.5 71l33 -16q-52 -161 -240 -161q-73 0 -129 25.5t-88 67.5t-47.5 90.5t-15.5 100.5q0 118 74.5 195t201.5 77q119 0 189.5 -71.5t70.5 -204.5v-16zM182 321h246q-7 60 -33 95t-84 35t-86 -34t-43 -96zM454 589
l-33 -30l-114 105l-111 -105l-33 30l96 147h95z" />
    <glyph glyph-name="edieresis" unicode="&#xeb;" 
d="M573 243h-394q5 -81 52.5 -130t127.5 -49q58 0 92.5 21t72.5 71l33 -16q-52 -161 -240 -161q-73 0 -129 25.5t-88 67.5t-47.5 90.5t-15.5 100.5q0 118 74.5 195t201.5 77q119 0 189.5 -71.5t70.5 -204.5v-16zM182 321h246q-7 60 -33 95t-84 35t-86 -34t-43 -96zM483 649
q0 -29 -21.5 -50.5t-50.5 -21.5q-30 0 -51 21t-21 51q0 29 21.5 50.5t50.5 21.5t50.5 -21.5t21.5 -50.5zM272 649q0 -29 -21.5 -50.5t-50.5 -21.5t-51 21.5t-22 50.5t22 50.5t51 21.5t50.5 -21.5t21.5 -50.5z" />
    <glyph glyph-name="igrave" unicode="&#xec;" horiz-adv-x="250" 
d="M191 0h-133v512h133v-512zM174 591l-34 -30l-197 175h134z" />
    <glyph glyph-name="iacute" unicode="&#xed;" horiz-adv-x="250" 
d="M191 0h-133v512h133v-512zM295 736l-188 -175l-34 28l98 147h124z" />
    <glyph glyph-name="icircumflex" unicode="&#xee;" horiz-adv-x="250" 
d="M191 0h-133v512h133v-512zM272 589l-33 -30l-114 105l-111 -105l-33 30l96 147h95z" />
    <glyph glyph-name="idieresis" unicode="&#xef;" horiz-adv-x="250" 
d="M191 0h-133v512h133v-512zM301 649q0 -29 -21.5 -50.5t-50.5 -21.5q-30 0 -51 21t-21 51q0 29 21.5 50.5t50.5 21.5t50.5 -21.5t21.5 -50.5zM90 649q0 -29 -21.5 -50.5t-50.5 -21.5t-51 21.5t-22 50.5t22 50.5t51 21.5t50.5 -21.5t21.5 -50.5z" />
    <glyph glyph-name="eth" unicode="&#xf0;" 
d="M482 705l31 -57l-72 -20q59 -64 90.5 -149.5t31.5 -174.5q0 -65 -15.5 -122t-47 -102.5t-84.5 -71.5t-121 -26q-122 0 -191 77t-69 201q0 117 67 195.5t171 78.5q55 0 99 -29q-21 43 -65 87l-157 -43l-29 59l129 35q-40 26 -62 37l129 43q33 -18 69 -44zM423 256
q0 34 -5 65.5t-18 63t-38.5 50.5t-62.5 19q-35 0 -60.5 -19t-38 -49.5t-18.5 -61.5t-6 -63q0 -34 5.5 -65.5t18 -63.5t38.5 -51t62 -19q46 0 75.5 34t38.5 74t9 86z" />
    <glyph glyph-name="ntilde" unicode="&#xf1;" horiz-adv-x="583" 
d="M522 0h-133v332q0 112 -86 112q-57 0 -111 -63v-381h-134v512h134v-67q62 82 166 82q77 0 120.5 -45t43.5 -119v-363zM442 713v-46q0 -86 -58 -86q-28 0 -77 21t-74 21q-32 0 -32 -41h-65v33q0 100 70 100q21 0 72 -19t73 -19q30 0 30 36h61z" />
    <glyph glyph-name="ograve" unicode="&#xf2;" 
d="M39 251q0 132 74.5 207t188.5 75q86 0 147.5 -40t89.5 -100.5t28 -133.5q0 -32 -6.5 -65.5t-25 -73.5t-47 -70t-78.5 -50.5t-114 -20.5q-118 0 -187.5 76t-69.5 196zM179 261q0 -34 5 -65.5t18 -64t39 -52t62 -19.5q35 0 60.5 19t38 49.5t18.5 61.5t6 63q0 34 -5.5 65.5
t-18 63.5t-38.5 51t-62 19q-45 0 -74.5 -33t-39 -73.5t-9.5 -84.5zM351 591l-34 -30l-197 175h134z" />
    <glyph glyph-name="oacute" unicode="&#xf3;" 
d="M39 251q0 132 74.5 207t188.5 75q86 0 147.5 -40t89.5 -100.5t28 -133.5q0 -32 -6.5 -65.5t-25 -73.5t-47 -70t-78.5 -50.5t-114 -20.5q-118 0 -187.5 76t-69.5 196zM179 261q0 -34 5 -65.5t18 -64t39 -52t62 -19.5q35 0 60.5 19t38 49.5t18.5 61.5t6 63q0 34 -5.5 65.5
t-18 63.5t-38.5 51t-62 19q-45 0 -74.5 -33t-39 -73.5t-9.5 -84.5zM472 736l-188 -175l-34 28l98 147h124z" />
    <glyph glyph-name="ocircumflex" unicode="&#xf4;" 
d="M39 251q0 132 74.5 207t188.5 75q86 0 147.5 -40t89.5 -100.5t28 -133.5q0 -32 -6.5 -65.5t-25 -73.5t-47 -70t-78.5 -50.5t-114 -20.5q-118 0 -187.5 76t-69.5 196zM179 261q0 -34 5 -65.5t18 -64t39 -52t62 -19.5q35 0 60.5 19t38 49.5t18.5 61.5t6 63q0 34 -5.5 65.5
t-18 63.5t-38.5 51t-62 19q-45 0 -74.5 -33t-39 -73.5t-9.5 -84.5zM449 589l-33 -30l-114 105l-111 -105l-33 30l96 147h95z" />
    <glyph glyph-name="otilde" unicode="&#xf5;" 
d="M39 251q0 132 74.5 207t188.5 75q86 0 147.5 -40t89.5 -100.5t28 -133.5q0 -32 -6.5 -65.5t-25 -73.5t-47 -70t-78.5 -50.5t-114 -20.5q-118 0 -187.5 76t-69.5 196zM179 261q0 -34 5 -65.5t18 -64t39 -52t62 -19.5q35 0 60.5 19t38 49.5t18.5 61.5t6 63q0 34 -5.5 65.5
t-18 63.5t-38.5 51t-62 19q-45 0 -74.5 -33t-39 -73.5t-9.5 -84.5zM453 713v-46q0 -86 -58 -86q-27 0 -77 21t-74 21q-32 0 -32 -41h-65v33q0 100 70 100q21 0 72 -19t73 -19q30 0 30 36h61z" />
    <glyph glyph-name="odieresis" unicode="&#xf6;" 
d="M39 251q0 132 74.5 207t188.5 75q86 0 147.5 -40t89.5 -100.5t28 -133.5q0 -32 -6.5 -65.5t-25 -73.5t-47 -70t-78.5 -50.5t-114 -20.5q-118 0 -187.5 76t-69.5 196zM179 261q0 -34 5 -65.5t18 -64t39 -52t62 -19.5q35 0 60.5 19t38 49.5t18.5 61.5t6 63q0 34 -5.5 65.5
t-18 63.5t-38.5 51t-62 19q-45 0 -74.5 -33t-39 -73.5t-9.5 -84.5zM481 649q0 -29 -21.5 -50.5t-50.5 -21.5q-30 0 -51 21t-21 51q0 29 21.5 50.5t50.5 21.5t50.5 -21.5t21.5 -50.5zM270 649q0 -29 -21.5 -50.5t-50.5 -21.5t-51 21.5t-22 50.5t22 50.5t51 21.5t50.5 -21.5
t21.5 -50.5z" />
    <glyph glyph-name="divide" unicode="&#xf7;" horiz-adv-x="724" 
d="M645 257h-566v106h566v-106zM438 139q0 -29 -20.5 -48.5t-50.5 -19.5q-32 0 -53 19.5t-21 48.5t21 49t52 20t51.5 -20t20.5 -49zM436 476q0 -29 -20.5 -48.5t-50.5 -19.5q-32 0 -53 19.5t-21 49.5q0 29 21.5 48.5t52.5 19.5q30 0 50.5 -20t20.5 -49z" />
    <glyph glyph-name="oslash" unicode="&#xf8;" 
d="M545 550l40 -39l-73 -75q54 -69 54 -175q0 -125 -71 -203t-197 -78q-102 0 -170 57l-69 -71l-40 38l71 75q-52 74 -52 179q0 125 73.5 200t194.5 75q97 0 167 -56zM182 174l217 226q-34 58 -101 58q-36 0 -61.5 -18.5t-38.5 -49.5t-18.5 -62t-5.5 -65q0 -41 8 -89z
M421 341l-218 -227q31 -58 97 -58q129 0 129 201q0 39 -8 84z" />
    <glyph glyph-name="ugrave" unicode="&#xf9;" horiz-adv-x="583" 
d="M523 0h-134v63q-63 -79 -159 -79q-81 0 -126.5 41.5t-45.5 123.5v363h134v-341q0 -46 21.5 -76t70.5 -30q54 0 105 57v390h134v-512zM340 591l-34 -30l-197 175h134z" />
    <glyph glyph-name="uacute" unicode="&#xfa;" horiz-adv-x="583" 
d="M523 0h-134v63q-63 -79 -159 -79q-81 0 -126.5 41.5t-45.5 123.5v363h134v-341q0 -46 21.5 -76t70.5 -30q54 0 105 57v390h134v-512zM462 736l-188 -175l-34 28l98 147h124z" />
    <glyph glyph-name="ucircumflex" unicode="&#xfb;" horiz-adv-x="583" 
d="M523 0h-134v63q-63 -79 -159 -79q-81 0 -126.5 41.5t-45.5 123.5v363h134v-341q0 -46 21.5 -76t70.5 -30q54 0 105 57v390h134v-512zM439 589l-33 -30l-114 105l-111 -105l-33 30l96 147h95z" />
    <glyph glyph-name="udieresis" unicode="&#xfc;" horiz-adv-x="583" 
d="M523 0h-134v63q-63 -79 -159 -79q-81 0 -126.5 41.5t-45.5 123.5v363h134v-341q0 -46 21.5 -76t70.5 -30q54 0 105 57v390h134v-512zM469 649q0 -29 -21.5 -50.5t-50.5 -21.5q-30 0 -51 21t-21 51q0 29 21.5 50.5t50.5 21.5t50.5 -21.5t21.5 -50.5zM258 649
q0 -29 -21.5 -50.5t-50.5 -21.5t-51 21.5t-22 50.5t22 50.5t51 21.5t50.5 -21.5t21.5 -50.5z" />
    <glyph glyph-name="yacute" unicode="&#xfd;" horiz-adv-x="500" 
d="M501 512l-219 -490q-16 -36 -24 -53t-23.5 -46t-27.5 -42.5t-32 -32t-40.5 -27t-48.5 -14.5t-62 -6q-6 0 -18.5 0.5t-15.5 0.5v38q31 0 59.5 14t48 33.5t39 50.5t30 54t24.5 55l8 19l-199 446h144l121 -297l127 297h109zM420 736l-188 -175l-34 28l98 147h124z" />
    <glyph glyph-name="thorn" unicode="&#xfe;" 
d="M58 706h133v-244q72 72 165 72q55 0 97 -24.5t65.5 -65.5t35 -88.5t11.5 -99.5q0 -112 -56 -194.5t-163 -82.5q-89 0 -155 77v-253h-133v903zM191 397v-272q43 -64 110 -64q36 0 62.5 18t39.5 48.5t18.5 61.5t5.5 65q0 35 -6 67.5t-19.5 63.5t-41 50t-64.5 19
q-59 0 -105 -57z" />
    <glyph glyph-name="ydieresis" unicode="&#xff;" horiz-adv-x="500" 
d="M501 512l-219 -490q-16 -36 -24 -53t-23.5 -46t-27.5 -42.5t-32 -32t-40.5 -27t-48.5 -14.5t-62 -6q-6 0 -18.5 0.5t-15.5 0.5v38q31 0 59.5 14t48 33.5t39 50.5t30 54t24.5 55l8 19l-199 446h144l121 -297l127 297h109zM426 649q0 -29 -21.5 -50.5t-50.5 -21.5
q-30 0 -51 21t-21 51q0 29 21.5 50.5t50.5 21.5t50.5 -21.5t21.5 -50.5zM215 649q0 -29 -21.5 -50.5t-50.5 -21.5t-51 21.5t-22 50.5t22 50.5t51 21.5t50.5 -21.5t21.5 -50.5z" />
    <glyph glyph-name="dotlessi" unicode="&#x131;" horiz-adv-x="250" 
d="M191 0h-133v512h133v-512z" />
    <glyph glyph-name="Lslash" unicode="&#x141;" horiz-adv-x="542" 
d="M526 0h-462v207l-64 -65v124l64 65v375h144v-232l158 158v-124l-158 -158v-251h318v-99z" />
    <glyph glyph-name="lslash" unicode="&#x142;" horiz-adv-x="250" 
d="M251 457l-59 -61v-396h-134v258l-59 -60v118l59 60v330h134v-192l59 61v-118z" />
    <glyph glyph-name="OE" unicode="&#x152;" horiz-adv-x="1062" 
d="M1005 706v-95h-308v-194h272v-98h-272v-221h352v-98h-495q-69 -21 -151 -21q-83 0 -148 22.5t-105.5 58.5t-66.5 86.5t-36 100.5t-10 106q0 162 83 263q94 113 277 113q83 0 157 -23h451zM554 121v470q-61 50 -153 50q-58 0 -101.5 -26.5t-66 -70.5t-33 -91t-10.5 -98
q0 -124 52 -205t155 -81q84 0 157 52z" />
    <glyph glyph-name="oe" unicode="&#x153;" horiz-adv-x="979" 
d="M949 243h-389q21 -178 178 -178q54 0 91 22t71 69l32 -16q-51 -161 -232 -161q-132 0 -207 78q-77 -78 -197 -78q-119 0 -189 76.5t-70 195.5q0 122 72 202.5t194 80.5q112 0 190 -75q69 75 191 75q126 0 195.5 -72t69.5 -199v-20zM565 321h239q-14 130 -112 130
q-55 0 -87.5 -36.5t-39.5 -93.5zM426 253q0 34 -5.5 65.5t-18 63.5t-38.5 51t-62 19q-46 0 -75 -33.5t-38.5 -74t-9.5 -86.5q0 -34 5.5 -65.5t18 -63t38.5 -50.5t62 -19q35 0 60.5 19t38 49.5t18.5 61.5t6 63z" />
    <glyph glyph-name="Scaron" unicode="&#x160;" 
d="M555 547l-41 -10q-10 29 -29.5 50.5t-39 32t-43.5 16.5t-36.5 7t-24.5 1q-24 0 -48 -5t-49.5 -16t-41 -34t-15.5 -55q0 -43 32 -67.5t103 -38.5q132 -25 189 -79.5t57 -135.5q0 -43 -16 -83t-48.5 -74.5t-89.5 -55.5t-131 -21q-128 0 -192 61t-72 150l39 14
q20 -46 51 -77t65 -43t55.5 -15.5t41.5 -3.5q73 0 111.5 36.5t38.5 83.5q0 30 -13 52t-37.5 34.5t-45.5 18.5t-52 11q-228 37 -228 206q0 25 5.5 50.5t23 58t46 56.5t79.5 40.5t118 16.5q43 0 80.5 -8.5t72 -28t57.5 -56.5t28 -89zM350 746h-95l-100 147l33 30l114 -105
l112 105l32 -30z" />
    <glyph glyph-name="scaron" unicode="&#x161;" horiz-adv-x="479" 
d="M438 398l-36 -11q-13 34 -48.5 52.5t-84.5 18.5q-40 0 -71 -16t-31 -52q0 -32 26.5 -48t96.5 -31q71 -16 105 -41q55 -42 55 -119q0 -25 -9.5 -51.5t-32 -55t-68.5 -47t-109 -18.5q-84 0 -146 38t-69 117l35 8q17 -45 62 -66.5t98 -21.5q56 0 79.5 25t23.5 51
q0 55 -89 78q-14 4 -38 9t-39 9.5t-28 9.5q-89 39 -89 129q0 65 54.5 117t157.5 52q75 0 129.5 -34t65.5 -102zM384 706l-96 -147h-95l-100 147l33 30l114 -105l112 105z" />
    <glyph glyph-name="Ydieresis" unicode="&#x178;" horiz-adv-x="708" 
d="M-1 706h152l202 -511l235 511h122l-326 -698q-30 -64 -51.5 -100t-53.5 -68t-73.5 -45t-100.5 -13q-27 0 -81 6v40q53 5 86 16t66 41q30 27 48.5 57.5t51.5 102.5zM530 838q0 -29 -21.5 -50.5t-50.5 -21.5q-30 0 -51 21t-21 51q0 29 21.5 50.5t50.5 21.5t50.5 -21.5
t21.5 -50.5zM319 838q0 -29 -21.5 -50.5t-50.5 -21.5t-51 21.5t-22 50.5t22 50.5t51 21.5t50.5 -21.5t21.5 -50.5z" />
    <glyph glyph-name="Zcaron" unicode="&#x17d;" horiz-adv-x="667" 
d="M634 0h-613v31l399 577h-368v98h574v-35l-396 -572h404v-99zM381 746h-95l-100 147l33 30l114 -105l112 105l32 -30z" />
    <glyph glyph-name="zcaron" unicode="&#x17e;" horiz-adv-x="521" 
d="M484 0h-472v34l279 395h-250v83h443v-28l-281 -400h281v-84zM405 706l-96 -147h-95l-100 147l33 30l114 -105l112 105z" />
    <glyph glyph-name="florin" unicode="&#x192;" horiz-adv-x="474" 
d="M481 657l-25 -30q-26 13 -50 13q-80 0 -95 -116l-5 -38h117l-11 -80h-117l-46 -349q-14 -114 -44 -158q-58 -87 -172 -87q-54 0 -92 27l23 31q22 -4 34 -4q31 0 53.5 16t35 46t18 53.5t9.5 56.5l48 368h-78l10 80h79q4 38 8 59t13.5 50t28 49t46.5 35q43 23 97 23
q74 0 115 -45z" />
    <glyph glyph-name="circumflex" unicode="&#x2c6;" horiz-adv-x="292" 
d="M291 589l-33 -30l-114 105l-111 -105l-33 30l96 147h95z" />
    <glyph glyph-name="caron" unicode="&#x2c7;" horiz-adv-x="292" 
d="M291 706l-96 -147h-95l-100 147l33 30l114 -105l112 105z" />
    <glyph glyph-name="breve" unicode="&#x2d8;" horiz-adv-x="292" 
d="M223 714h66q-11 -137 -147 -137q-127 0 -139 137h66q9 -32 27.5 -45.5t51.5 -13.5q65 0 75 59z" />
    <glyph glyph-name="dotaccent" unicode="&#x2d9;" horiz-adv-x="292" 
d="M218 649q0 -29 -21.5 -50.5t-50.5 -21.5q-30 0 -51 21t-21 51q0 29 21.5 50.5t50.5 21.5t50.5 -21.5t21.5 -50.5z" />
    <glyph glyph-name="ring" unicode="&#x2da;" horiz-adv-x="292" 
d="M233 650q0 -36 -25.5 -62t-61.5 -26t-62 26t-26 62t26 61.5t62 25.5q35 0 61 -26t26 -61zM187 650q0 17 -12 29.5t-29 12.5t-29.5 -12.5t-12.5 -29.5q0 -18 12 -30t30 -12q17 0 29 12.5t12 29.5z" />
    <glyph glyph-name="ogonek" unicode="&#x2db;" horiz-adv-x="292" 
d="M114 6h88q-2 -2 -10 -12.5t-11 -14.5t-10 -14t-10.5 -16.5t-8 -15t-6 -17t-1.5 -16.5q0 -29 22 -46t52 -17q3 0 10 0.5t8 0.5v-54q-12 -2 -46 -2q-137 0 -137 94q0 52 60 130z" />
    <glyph glyph-name="tilde" unicode="&#x2dc;" horiz-adv-x="292" 
d="M299 713v-46q0 -86 -58 -86q-27 0 -77 21t-74 21q-32 0 -32 -41h-65v33q0 100 70 100q21 0 72 -19t73 -19q30 0 30 36h61z" />
    <glyph glyph-name="hungarumlaut" unicode="&#x2dd;" horiz-adv-x="292" 
d="M339 736l-187 -175l-34 28l98 147h123zM174 736l-187 -175l-34 28l98 147h123z" />
    <glyph glyph-name="endash" unicode="&#x2013;" horiz-adv-x="648" 
d="M34 311h580v-86h-580v86z" />
    <glyph glyph-name="emdash" unicode="&#x2014;" horiz-adv-x="881" 
d="M34 311h813v-86h-813v86z" />
    <glyph glyph-name="quoteleft" unicode="&#x2018;" horiz-adv-x="250" 
d="M222 708l-56 -284h-145l161 294z" />
    <glyph glyph-name="quoteright" unicode="&#x2019;" horiz-adv-x="250" 
d="M222 706l-162 -292l-40 9l57 283h145z" />
    <glyph glyph-name="quotesinglbase" unicode="&#x201a;" horiz-adv-x="250" 
d="M222 133l-162 -292l-40 9l57 283h145z" />
    <glyph glyph-name="quotedblleft" unicode="&#x201c;" horiz-adv-x="437" 
d="M404 707l-53 -252h-141l157 266zM216 707l-53 -252h-139l156 266z" />
    <glyph glyph-name="quotedblright" unicode="&#x201d;" horiz-adv-x="437" 
d="M413 706l-156 -263l-37 13l53 250h140zM227 706l-157 -264l-37 13l52 251h142z" />
    <glyph glyph-name="quotedblbase" unicode="&#x201e;" horiz-adv-x="437" 
d="M413 133l-156 -265l-37 14l54 251h139zM227 133l-157 -265l-37 13l53 252h141z" />
    <glyph glyph-name="dagger" unicode="&#x2020;" horiz-adv-x="583" 
d="M559 397h-195v-582h-143v582h-194v97h194v212h143v-212h195v-97z" />
    <glyph glyph-name="daggerdbl" unicode="&#x2021;" horiz-adv-x="583" 
d="M556 39h-195v-254h-141v254h-194v94h194v283h-194v95h194v195h141v-195h195v-95h-195v-283h195v-94z" />
    <glyph glyph-name="bullet" unicode="&#x2022;" horiz-adv-x="371" 
d="M325 319q0 -62 -38.5 -100t-100.5 -38q-61 0 -100.5 39.5t-39.5 98.5t39.5 99t98.5 40q62 0 101.5 -39t39.5 -100z" />
    <glyph glyph-name="ellipsis" unicode="&#x2026;" horiz-adv-x="1000" 
d="M226 57q0 -26 -17 -44t-42 -18t-43 17.5t-18 43.5t18 43.5t43 17.5t42 -17t17 -43zM560 57q0 -26 -17 -44t-42 -18t-43 17.5t-18 43.5t18 43.5t43 17.5q26 0 42.5 -17t16.5 -43zM894 57q0 -26 -17.5 -44t-42.5 -18q-26 0 -43.5 17.5t-17.5 43.5t17.5 43.5t43.5 17.5
t43 -17.5t17 -42.5z" />
    <glyph glyph-name="perthousand" unicode="&#x2030;" horiz-adv-x="1375" 
d="M686 683l-333 -683h-84l333 683h84zM393 467q0 -64 -16.5 -115t-59 -86.5t-107.5 -35.5q-83 0 -134.5 57.5t-51.5 172.5q0 63 17 114t60 87t107 36q91 0 138 -67t47 -163zM290 467q0 165 -82 165q-25 0 -42.5 -18.5t-25 -48.5t-10.5 -55t-3 -50q0 -167 83 -167
q80 0 80 174zM934 224q0 -64 -16.5 -115t-59 -86.5t-107.5 -35.5q-83 0 -134.5 57.5t-51.5 172.5q0 63 17 114t60 87t107 36q91 0 138 -67t47 -163zM831 224q0 165 -82 165q-25 0 -42.5 -18.5t-25 -48.5t-10.5 -55t-3 -50q0 -167 83 -167q80 0 80 174zM1351 224
q0 -64 -16.5 -115t-59 -86.5t-107.5 -35.5q-83 0 -134.5 57.5t-51.5 172.5q0 63 17 114t60 87t107 36q91 0 138 -67t47 -163zM1248 224q0 165 -82 165q-25 0 -42.5 -18.5t-25 -48.5t-10.5 -55t-3 -50q0 -167 83 -167q80 0 80 174z" />
    <glyph glyph-name="guilsinglleft" unicode="&#x2039;" horiz-adv-x="292" 
d="M258 143h-111l-125 125l125 127h111l-125 -127z" />
    <glyph glyph-name="guilsinglright" unicode="&#x203a;" horiz-adv-x="292" 
d="M267 270l-125 -127h-111l125 127l-125 125h111z" />
    <glyph glyph-name="fraction" unicode="&#x2044;" horiz-adv-x="125" 
d="M-61 0h-84l332 683h84z" />
    <glyph glyph-name="Euro" unicode="&#x20ac;" horiz-adv-x="672" 
d="M466 439v-57h-224q-1 -18 -1 -38v-20h225v-57h-218q14 -98 62 -150t122 -52q56 0 95 24.5t72 80.5l36 -17q-49 -174 -233 -174q-131 0 -210 77t-98 211h-61v57h57q-1 6 -1 14q0 10 3 44h-59v57h66q24 123 107 197t198 74q96 0 156.5 -47t74.5 -131l-41 -13
q-45 105 -152 105q-71 0 -122.5 -49.5t-68.5 -135.5h215z" />
    <glyph glyph-name="trademark" unicode="&#x2122;" horiz-adv-x="724" 
d="M8 706h275v-66h-93v-266h-89v266h-93v66zM332 706h73l84 -187l70 187h73l54 -332h-81l-28 177l-75 -177h-47l-71 175l-26 -175h-78z" />
    <glyph glyph-name="minus" unicode="&#x2212;" horiz-adv-x="724" 
d="M632 245h-540v111h540v-111z" />
    </font>
</defs>
</svg>
