<?xml version="1.0" standalone="no"?>
<!DOCTYPE svg PUBLIC "-//W3C//DTD SVG 1.1//EN" "http://www.w3.org/Graphics/SVG/1.1/DTD/svg11.dtd" >
<svg xmlns="http://www.w3.org/2000/svg" xmlns:xlink="http://www.w3.org/1999/xlink" version="1.1">
<metadata>
Created by FontForge 20170731 at Mon Apr 24 23:20:24 2006
 By Aleksey,,,
(c) COPYRIGHT H. BERTHOLD AG 1992 Alle Rechte vorbehalten.
</metadata>
<defs>
<font id="CosmosBQ-Light" horiz-adv-x="562" >
  <font-face 
    font-family="Cosmos BQ"
    font-weight="400"
    font-stretch="normal"
    units-per-em="1000"
    panose-1="2 0 5 3 6 0 0 2 0 4"
    ascent="800"
    descent="-200"
    x-height="509"
    cap-height="706"
    bbox="-111 -261 1035 917"
    underline-thickness="50"
    underline-position="-150"
    unicode-range="U+000C-2122"
  />
<missing-glyph horiz-adv-x="292" 
 />
    <glyph glyph-name=".notdef" horiz-adv-x="292" 
 />
    <glyph glyph-name=".null" horiz-adv-x="0" 
 />
    <glyph glyph-name="nonmarkingreturn" horiz-adv-x="292" 
 />
    <glyph glyph-name="caron" horiz-adv-x="292" 
d="M-68 741l119 -114l121 114l23 -21l-105 -157h-76l-105 157z" />
    <glyph glyph-name="dotlessi" unicode="&#xd;" horiz-adv-x="229" 
d="M69 0v509h91v-509h-91z" />
    <glyph glyph-name="fraction" horiz-adv-x="125" 
d="M-66 0h-45l302 706h45z" />
    <glyph glyph-name="fi" horiz-adv-x="500" 
d="M80 0v452h-72v57h72v63q0 28 1 41.5t6 27.5q13 45 50 65.5t79 20.5q10 0 34 -3.5t47 -21.5q8 -5 12.5 -11t6.5 -8l-16 -21q-7 3 -21 8t-34 5q-27 0 -47 -14q-20 -15 -23.5 -37.5t-3.5 -64.5v-50h105v-57h-105v-452h-91zM339 0v509h91v-509h-91zM437 660q1 -3 0.5 -10
t-4.5 -15t-15 -19t-34 -11t-37.5 15t-14.5 38t14.5 39t39.5 16q23 0 36.5 -15t14.5 -38z" />
    <glyph glyph-name="fl" horiz-adv-x="500" 
d="M80 0v452h-72v57h72v63q0 28 1 41.5t6 27.5q13 45 50 65.5t79 20.5q10 0 34 -3.5t47 -21.5q8 -5 12.5 -11t6.5 -8l-16 -21q-7 3 -21 8t-34 5q-27 0 -47 -14q-20 -15 -23.5 -37.5t-3.5 -64.5v-50h105v-57h-105v-452h-91zM340 0v706h91v-706h-91z" />
    <glyph glyph-name="space" unicode=" " horiz-adv-x="292" 
 />
    <glyph glyph-name="space" unicode="&#xa0;" horiz-adv-x="292" 
 />
    <glyph glyph-name="exclam" unicode="!" horiz-adv-x="271" 
d="M208 38q0 -2 -0.5 -8.5t-2.5 -14.5q-6 -14 -19.5 -22t-28.5 -8q-21 0 -37 14.5t-15 37.5q0 23 15 37t37 14t36 -14t15 -36zM143 188q-5 26 -8.5 50.5t-6.5 50.5q-10 87 -14 172.5t-5 173.5v71h96v-66q-2 -92 -5 -155.5t-7 -113t-10 -91.5t-13 -92h-27z" />
    <glyph glyph-name="quotedbl" unicode="&#x22;" horiz-adv-x="396" 
d="M281 445l-32 243q-1 2 -1.5 8.5t0.5 14.5q2 13 8 20.5t13 11.5t14 5t11 1t10 -1t14 -6q16 -10 17 -23.5t1 -18.5l-36 -255h-19zM94 445l-33 243q0 2 -1 8.5t1 14.5q2 13 8 20.5t13 11.5t14 5t11 1q3 0 9.5 -1t13.5 -6q16 -10 17 -23.5t1 -18.5l-35 -255h-19z" />
    <glyph glyph-name="numbersign" unicode="#" horiz-adv-x="667" 
d="M332 0l38 259h-101l-38 -259h-58l36 259h-167v54h175l13 97h-167v57h174l32 241h63l-34 -241h100l31 241h60l-33 -241h168v-57h-175l-13 -97h168v-54h-175l-35 -259h-62zM390 410h-100l-14 -97h101z" />
    <glyph glyph-name="dollar" unicode="$" 
d="M490 505q-3 5 -8.5 14.5t-15.5 21.5q-27 34 -53 50.5t-42 22.5q-16 5 -30 8t-31 5l1 -241q11 -3 22 -5.5t22 -4.5q26 -6 45.5 -12t34 -12.5t25.5 -14t22 -16.5q58 -51 58 -131q0 -82 -56 -137q-24 -24 -50.5 -37.5t-50.5 -21t-43.5 -10t-29.5 -3.5v-93h-38v93
q-47 2 -90 11t-82 38q-25 19 -39 40.5t-21.5 42t-10 37.5t-3.5 28l26 7q11 -21 23.5 -40.5t29.5 -36.5q22 -23 48 -35.5t49 -18.5t42 -7.5t28 -2.5v263q-81 12 -124.5 35t-67.5 55q-23 30 -28 57t-5 42q0 25 4.5 43t8.5 27q13 33 34.5 55t44.5 35.5t43.5 20t30.5 8.5
q19 5 35.5 6t23.5 1v79h38l1 -79q8 -1 16.5 -1t16.5 -2q41 -7 78.5 -28t60.5 -56q17 -28 22.5 -55.5l7.5 -37.5zM272 627q-14 -2 -24 -4.5t-23 -7.5q-9 -3 -22.5 -10t-26 -19.5t-22 -31.5t-9.5 -47q0 -6 2 -22t12 -32q18 -30 50 -41t63 -18v233zM311 46q16 4 31 8.5t29 12.5
q33 17 52 45t19 65q0 7 -1 18t-5.5 24t-13.5 26t-25 24q-20 15 -41.5 20.5t-45.5 10.5z" />
    <glyph glyph-name="percent" unicode="%" horiz-adv-x="917" 
d="M371 469v-21.5t-3 -38.5t-9 -47t-18 -46q-4 -7 -13.5 -20t-26.5 -26q-31 -25 -60.5 -30t-44.5 -5q-39 0 -63 11.5t-36 21.5q-31 24 -52 69.5t-21 127.5q0 8 0.5 30.5t7 51t21 58.5t41.5 54q15 13 31 20.5t30 11t25.5 4t19.5 0.5q14 0 42 -5t57 -28q31 -24 51.5 -68.5
t20.5 -124.5zM303 473q-2 54 -10 86.5t-23 53.5q-26 35 -71 35q-8 0 -25.5 -3.5t-34.5 -17.5q-16 -14 -25 -33.5t-13.5 -41t-5.5 -43.5t-1 -40q0 -24 2.5 -56.5t13 -62t31.5 -49.5t59 -20q12 0 25 3t26 12t23.5 24.5t17.5 40.5q7 23 9 55.5t2 56.5zM892 225q0 -5 -0.5 -20.5
t-2.5 -36.5t-7.5 -44t-15.5 -44q-5 -9 -15.5 -25t-31.5 -32q-30 -23 -58.5 -27.5t-42.5 -4.5t-41.5 4t-56.5 26q-16 12 -29.5 29t-23.5 41t-16 56t-6 73q0 73 17 115t41 67q14 15 41.5 32t76.5 17q60 0 103 -36q29 -24 48.5 -68t19.5 -122zM823 229q0 31 -5.5 68.5
t-22.5 65.5q-3 5 -9 12t-15 13.5t-21.5 11t-29.5 4.5q-4 0 -13 -0.5t-20 -4.5q-73 -28 -73 -176v-9t1 -8q1 -24 4.5 -53.5t14.5 -55t31.5 -43t55.5 -17.5q25 0 41.5 9t26.5 21.5t15.5 25t7.5 19.5q5 14 8.5 45.5t2.5 71.5zM342 0h-60l293 686h60z" />
    <glyph glyph-name="ampersand" unicode="&#x26;" horiz-adv-x="625" 
d="M643 -14q-13 -2 -21.5 -3t-21.5 -1q-48 0 -75 11.5t-44 24.5q-9 7 -14.5 12t-19.5 19l-11.5 -11.5t-8.5 -6.5q-20 -15 -62 -33.5t-105 -18.5q-13 0 -36.5 2t-53.5 12q-61 20 -101.5 67.5t-40.5 114.5q0 29 6 48.5t10 29.5q14 30 35 51t42.5 35t40 21.5t26.5 10.5
q-3 5 -10.5 18.5t-15 31.5t-13.5 40.5t-6 45.5q0 36 13.5 64t36 47.5t52.5 30t64 10.5q30 0 56.5 -9t46.5 -26t31.5 -41.5t11.5 -55.5q0 -8 -1.5 -22.5t-9.5 -32.5q-9 -23 -25 -41t-35.5 -32t-41 -25t-42.5 -21q6 -8 12.5 -17t12.5 -17q12 -16 24 -31l24 -30l45 -54l39 -42
q6 12 12 25.5t10.5 30t7 37.5t2.5 49h30q2 -10 5 -22.5t3 -34.5q0 -45 -12 -79.5t-18 -48.5q18 -20 42 -44t47 -39q19 -13 34 -18t23 -7v-25zM402 94q-8 9 -16.5 17.5t-16.5 18.5q-22 23 -61.5 71.5t-86.5 117.5q-7 -3 -24 -11.5t-35 -24t-31 -39t-13 -56.5q0 -8 2 -24
t12 -36q19 -41 56.5 -62.5t81.5 -21.5q25 0 46.5 6t38 14t28.5 16.5t19 13.5zM266 403q17 7 32.5 14.5t29.5 18.5q5 4 12.5 11t15 18.5t12.5 26t5 33.5q0 32 -18.5 55t-52.5 23q-14 0 -24 -4.5t-15 -7.5q-13 -8 -20 -19.5t-10.5 -22.5t-4 -20.5t-0.5 -13.5q0 -11 4.5 -36
t19.5 -54q3 -6 6.5 -11.5t7.5 -10.5z" />
    <glyph glyph-name="quotesingle" unicode="'" horiz-adv-x="208" 
d="M94 445l-33 243q0 2 -1 8.5t1 14.5q2 13 8 20.5t13 11.5t14 5t11 1q3 0 9.5 -1t13.5 -6q16 -10 17 -23.5t1 -18.5l-35 -255h-19z" />
    <glyph glyph-name="parenleft" unicode="(" horiz-adv-x="271" 
d="M220 0q-18 19 -45 49.5t-51.5 74.5t-42 101.5t-17.5 129.5q0 20 3 51.5t13 69.5t29.5 80.5t52.5 85.5q19 25 34 40.5t24 23.5h24q-11 -21 -26 -55t-28.5 -79t-23 -100t-9.5 -119q0 -65 9.5 -120t23 -99t28.5 -77.5t26 -56.5h-24z" />
    <glyph glyph-name="parenright" unicode=")" horiz-adv-x="271" 
d="M51 706q18 -18 45 -49t51.5 -74.5t42 -101.5t17.5 -130q0 -15 -1.5 -37.5t-7 -50.5t-16 -61t-28.5 -68q-7 -12 -22 -36.5t-38 -52.5q-10 -12 -21 -23l-22 -22h-25q10 19 22.5 44.5t26.5 70.5q20 61 29.5 117.5t9.5 120.5q0 65 -9.5 120t-23 99t-28.5 77.5t-27 56.5h25z
" />
    <glyph glyph-name="asterisk" unicode="*" horiz-adv-x="354" 
d="M228 540l61 -86q-15 -14 -23 -20t-26 -16l-61 85l-66 -85q-9 5 -15 8.5t-11.5 7t-11 8.5t-12.5 12l65 86l-102 34q4 20 7 30.5t12 28.5l102 -34v107q11 1 18.5 2t14 1t14 -1t18.5 -2v-107l98 34q6 -13 10 -23.5t8 -35.5z" />
    <glyph glyph-name="plus" unicode="+" horiz-adv-x="667" 
d="M304 0v261h-262v60h262v260h60v-260h261v-60h-261v-261h-60z" />
    <glyph glyph-name="comma" unicode="," horiz-adv-x="229" 
d="M59 -165l-32 11l55 241h100z" />
    <glyph glyph-name="hyphen" unicode="-" horiz-adv-x="313" 
d="M288 239h-263v55h263v-55z" />
    <glyph glyph-name="period" unicode="." horiz-adv-x="229" 
d="M166 38q0 -2 -0.5 -8t-2.5 -14q-8 -20 -24.5 -25.5t-23.5 -5.5q-21 0 -37 14.5t-15 37.5q0 23 14.5 37t36.5 14q5 0 13.5 -2t17 -7t14.5 -15t7 -26z" />
    <glyph glyph-name="slash" unicode="/" horiz-adv-x="396" 
d="M92 0h-89l301 706h89z" />
    <glyph glyph-name="zero" unicode="0" horiz-adv-x="625" 
d="M581 350q0 -14 -0.5 -40.5t-5.5 -61.5q-8 -61 -29.5 -114t-71.5 -94q-24 -19 -48.5 -30t-46.5 -16.5t-40 -7t-29 -1.5q-10 0 -26.5 1t-36.5 6t-43 15t-45 27q-24 18 -45 44.5t-36.5 63.5t-24.5 86t-9 112q0 62 8.5 110t23.5 85t34.5 63t40.5 45q35 31 76.5 44.5
t88.5 13.5q31 0 55.5 -5.5t43.5 -13.5t33 -17t24 -18q22 -18 42 -44t34.5 -61.5t23.5 -83t9 -108.5zM482 355q-2 83 -13.5 132.5t-33.5 82.5q-5 8 -14.5 19t-24 21.5t-35 18t-47.5 7.5q-7 0 -18.5 -1t-25.5 -5.5t-29 -12.5t-29 -21t-21.5 -25.5t-10.5 -18.5q-17 -32 -27 -81
t-10 -126q0 -5 0.5 -25t3 -47.5t8 -58.5t15.5 -57q2 -5 8.5 -20t17.5 -29q15 -20 31.5 -32t33 -18t31 -7.5t24.5 -1.5q36 0 61.5 12t42 29t25.5 35t13 29q8 21 13 47t7.5 53t3 53t0.5 48z" />
    <glyph glyph-name="one" unicode="1" horiz-adv-x="625" 
d="M312 0v563l-144 -49l-11 24l222 148h29v-686h-96z" />
    <glyph glyph-name="two" unicode="2" horiz-adv-x="625" 
d="M563 0h-489v31l212 229q22 24 42 48q17 19 34.5 40t31 44.5t22 48.5t8.5 53q0 8 -1.5 21.5t-8.5 30.5q-15 42 -48.5 65.5t-77.5 22.5q-11 0 -29.5 -2.5t-41.5 -13.5q-26 -13 -44.5 -32t-32 -37.5t-21.5 -34.5l-11 -22l-28 8q1 9 4.5 26t11 38t21 43t35.5 41q20 17 58 35
t100 18q11 0 37.5 -2.5t55.5 -13.5q58 -23 91 -71t33 -110q0 -38 -11.5 -70.5t-30.5 -62t-42 -56.5t-47 -52l-183 -198h350v-65z" />
    <glyph glyph-name="three" unicode="3" horiz-adv-x="625" 
d="M63 188q14 -24 24.5 -38t18.5 -23t22.5 -22t35.5 -25.5t48.5 -21t61.5 -8.5q7 0 23 1.5t36 7.5q48 14 79.5 50t31.5 88q0 8 -2 21.5t-8.5 29t-18.5 31.5t-32 29q-28 18 -58 21.5t-62 5.5h-29v61h28q37 1 68.5 9t57.5 39q17 22 21 42t4 31q0 8 -2 22.5t-11 31.5
q-5 9 -14.5 20t-24 20t-34.5 15.5t-46 6.5q-51 0 -94.5 -24.5t-72.5 -64.5q-11 -14 -17.5 -26t-14.5 -27l-27 7q1 10 4.5 26t11 35t20.5 40t34 40q11 10 26 21t36 20t48.5 15t62.5 6q39 0 69.5 -8t53 -20t38 -26.5t24.5 -28.5q7 -10 18 -33t11 -56q0 -32 -10.5 -56
t-25 -41.5t-29 -28.5t-22.5 -16q-10 -5 -18.5 -9t-26.5 -10q26 -4 41.5 -9t26.5 -10q12 -6 28 -18t31 -31t25 -45.5t10 -62.5q0 -13 -2.5 -31.5t-10.5 -39t-23.5 -42t-42.5 -41.5q-39 -29 -86.5 -41t-95.5 -12q-63 0 -100 14.5t-59 30.5q-35 25 -56 61q-16 28 -21.5 53
t-7.5 36z" />
    <glyph glyph-name="four" unicode="4" horiz-adv-x="625" 
d="M580 188h-99v-188h-91v188h-343v26l336 472h98v-435h99v-63zM391 580l-229 -329h228z" />
    <glyph glyph-name="five" unicode="5" horiz-adv-x="625" 
d="M100 188q8 -15 16.5 -28.5t19.5 -27.5q7 -9 20 -22.5t33 -26t46.5 -22t59.5 -9.5q40 0 64.5 11.5t36.5 20.5q9 7 19.5 18t19.5 27.5t15.5 38.5t6.5 49q0 11 -2 30.5t-13 43.5q-6 13 -17.5 29.5t-30.5 31.5t-46 25t-64 10q-70 0 -125 -39q-8 -6 -15.5 -12.5t-15.5 -13.5
l-28 4l45 360h374l-6 -64h-290l-24 -194q5 2 10.5 4t10.5 4q27 10 53.5 12t34.5 2q14 0 42.5 -2.5t63.5 -16.5q69 -28 106.5 -85t37.5 -130q0 -26 -5.5 -52.5t-17.5 -49.5q-10 -19 -28 -41.5t-46.5 -42t-68.5 -32.5t-93 -13q-48 0 -83 12t-59.5 30t-39.5 38.5t-23 38.5
q-12 26 -15.5 45t-5.5 30z" />
    <glyph glyph-name="six" unicode="6" horiz-adv-x="625" 
d="M525 520q-7 14 -13 25.5t-16 24.5q-17 22 -37.5 35t-40 19.5t-36 8t-26.5 1.5q-48 0 -81 -16t-54.5 -38.5t-33.5 -46t-17 -38.5q-18 -50 -21.5 -90.5t-3.5 -58.5q7 8 13 14.5t13 13.5q10 9 24.5 21t35.5 22.5t48 17.5t61 7q11 0 28.5 -1.5t38.5 -7t44.5 -16.5t46.5 -30
q10 -8 23.5 -22.5t26 -35t21 -48.5t8.5 -63q0 -13 -3.5 -39.5t-18.5 -58.5q-9 -18 -26.5 -41.5t-46 -44.5t-68.5 -35t-94 -14q-47 0 -88.5 13t-78.5 43q-9 8 -25.5 24t-30.5 42q-28 47 -38.5 105.5t-10.5 111.5q0 11 1.5 38.5t7.5 63.5t19.5 76t37.5 76q17 26 34.5 43
t27.5 24q25 19 49.5 30.5t47 17t40.5 7t30 1.5q55 -1 106.5 -23t80.5 -73q14 -26 18 -46t6 -31zM475 213q0 8 -1.5 26t-9.5 38q-5 11 -14.5 27.5t-26 32t-41.5 26.5t-59 11q-8 0 -25.5 -2t-37.5 -10q-11 -5 -27 -15t-31 -27.5t-26 -43t-11 -59.5q0 -8 1.5 -25.5t9.5 -37.5
q17 -48 57 -77t91 -29q36 0 64 13.5t47.5 36t30 52.5t9.5 63z" />
    <glyph glyph-name="seven" unicode="7" horiz-adv-x="625" 
d="M167 0l296 623h-392l6 63h496v-26l-306 -660h-100z" />
    <glyph glyph-name="eight" unicode="8" horiz-adv-x="625" 
d="M428 372q22 -5 33.5 -10.5t21.5 -10.5q11 -6 26.5 -18.5t30 -32t24.5 -46t10 -62.5q0 -14 -3 -38t-20 -53q-24 -43 -60 -66.5t-72 -34.5t-65.5 -13t-39.5 -2q-11 0 -39 2t-62 11.5t-69.5 30t-60.5 58.5q-32 47 -32 105q0 37 11 65t27 47.5t33 31.5t28 18q12 7 22 10.5
t24 7.5q-12 6 -23.5 11.5t-22.5 13.5q-8 6 -19 15.5t-21 24.5t-16.5 35.5t-6.5 47.5q0 11 4 37.5t22 52.5q10 16 27.5 32.5t42 29.5t58 21t77.5 8q8 0 30.5 -1.5t47.5 -7.5q13 -3 37 -13t48 -29.5t42 -50.5t18 -77q0 -9 -1 -21.5t-6 -27t-14.5 -30.5t-26.5 -31
q-20 -18 -38.5 -27t-26.5 -13zM473 195q-1 35 -13.5 61.5t-34.5 44.5t-50.5 27.5t-61.5 9.5q-23 0 -39.5 -3.5t-24.5 -6.5q-46 -15 -72 -51.5t-26 -84.5q0 -23 4 -37.5t8 -22.5q6 -13 17.5 -28t29.5 -27.5t43.5 -21t60.5 -8.5q26 0 43 4t27 8q12 4 27.5 13.5t29.5 25.5
t23 40t9 57zM447 523q0 28 -11 50t-29 37t-42 22.5t-49 7.5q-8 0 -22.5 -1.5t-31.5 -7.5q-37 -14 -59.5 -43.5t-22.5 -68.5q0 -29 13 -55q18 -32 52.5 -47.5t70.5 -15.5q5 0 17 0.5t26 5.5q42 11 65.5 42t22.5 74z" />
    <glyph glyph-name="nine" unicode="9" horiz-adv-x="625" 
d="M88 191q8 -17 17 -35t21 -34q7 -9 19 -21t30 -22.5t42 -18t55 -7.5q48 0 76.5 15.5t42.5 28.5q25 23 41 52t25 61t13 65.5t5 64.5q-5 -9 -15.5 -22.5t-30.5 -28.5q-22 -16 -44 -25t-41.5 -13t-35.5 -5t-25 -1q-12 0 -34 2t-48.5 10t-55 24t-53.5 45q-7 8 -15 20.5
t-15.5 29.5t-12.5 38.5t-5 48.5q0 40 9.5 67.5t16.5 41.5q17 33 42 57t55 40t64 24t70 8q9 0 24.5 -1t35 -5t41.5 -12t44 -23q25 -17 47.5 -42t39.5 -61t26.5 -84.5t9.5 -112.5q0 -19 -2.5 -61t-15.5 -94q-3 -10 -8.5 -27.5t-15.5 -39t-26 -45t-40 -44.5q-26 -23 -53 -36
t-52 -19t-45 -7.5t-32 -1.5q-11 0 -29 1t-40 7t-45.5 18t-45.5 35q-21 23 -35 49q-7 13 -11.5 27t-7 26.5t-4 22t-2.5 13.5zM457 476q0 23 -4 39.5t-8 25.5q-18 47 -56.5 72t-87.5 25q-8 0 -25.5 -2t-37.5 -11q-46 -20 -69 -62t-23 -91q0 -33 10.5 -62.5t30.5 -51.5
t48.5 -34.5t63.5 -12.5q28 0 49.5 7t37.5 17.5t26.5 22t16.5 19.5q21 30 24.5 57.5t3.5 41.5z" />
    <glyph glyph-name="colon" unicode=":" horiz-adv-x="271" 
d="M208 38q0 -8 -1 -14t-2 -8q-6 -14 -19.5 -22.5t-28.5 -8.5q-23 0 -38 15t-14 37q0 23 14.5 37t36.5 14q5 0 13.5 -2t16.5 -7t14.5 -15t7.5 -26zM208 468q0 -8 -1 -14t-2 -8q-6 -14 -19.5 -22.5t-28.5 -8.5q-23 0 -38 15t-14 37q0 23 14.5 37t36.5 14q5 0 13.5 -2t16.5 -7
t14.5 -15t7.5 -26z" />
    <glyph glyph-name="semicolon" unicode=";" horiz-adv-x="271" 
d="M100 -165l-32 11l56 241h99zM214 468v-9t-3 -14q-6 -14 -19.5 -22t-27.5 -8q-22 0 -37.5 14.5t-15.5 37.5t14.5 37t37.5 14q5 0 13.5 -2t16.5 -7t14.5 -15t6.5 -26z" />
    <glyph glyph-name="less" unicode="&#x3c;" horiz-adv-x="667" 
d="M0 319v70l667 320v-64l-600 -291l600 -293v-64z" />
    <glyph glyph-name="equal" unicode="=" horiz-adv-x="667" 
d="M0 173v58h667v-58h-667zM0 349v59h667v-59h-667z" />
    <glyph glyph-name="greater" unicode="&#x3e;" horiz-adv-x="667" 
d="M0 61l600 293l-600 291v64l667 -320v-70l-667 -322v64z" />
    <glyph glyph-name="question" unicode="?" horiz-adv-x="500" 
d="M227 189q-5 23 -8 45t-3 45q0 27 5 47.5t12.5 36.5t16.5 27.5t17 19.5q6 7 13 13.5t14 12.5l18 16q24 21 40 43t16 55q0 25 -10 45t-27 33t-38.5 20t-45.5 7q-13 0 -30 -3t-36 -12t-39 -25t-38 -42q-8 -13 -14 -23.5t-17 -36.5l-27 5q1 9 3.5 32t12.5 49q7 19 20.5 41.5
t37.5 41.5t59 32t84 13q12 0 36 -2t54 -13q51 -18 81.5 -58.5t30.5 -95.5q0 -6 -0.5 -17.5t-4.5 -26.5q-5 -20 -12 -34t-16 -26t-21 -23t-27 -24l-18 -14q-13 -11 -24 -20t-22 -22q-35 -36 -47 -75t-17 -87h-29zM294 38v-9t-4 -14q-6 -14 -19 -22t-28 -8q-21 0 -37 14.5
t-15 37.5q0 23 14.5 37t37.5 14t36.5 -13.5t14.5 -36.5z" />
    <glyph glyph-name="at" unicode="@" horiz-adv-x="896" 
d="M585 492h59l-32 -147q-3 -16 -8.5 -38.5t-10 -47t-8 -47.5t-3.5 -39q0 -1 0.5 -9.5t4 -18t11 -17.5t21.5 -8q5 0 11 2t11 4q12 5 29 19t35 39q25 34 40.5 71t23 70t10 59t2.5 39q0 6 -0.5 18t-2.5 27t-6.5 32t-12.5 35q-21 48 -55 75t-69 39.5t-65.5 15.5t-44.5 3
q-21 0 -65 -5.5t-97 -30.5q-57 -27 -103 -69t-78.5 -94.5t-50 -112.5t-17.5 -123q0 -13 1.5 -35t8 -48.5t19.5 -56t37 -58.5q14 -18 37.5 -38t57 -37t77 -28t99.5 -11q17 0 40.5 1.5t52 7.5t62 18t69.5 32q45 25 73 48.5t42 37.5l27 -32q-16 -15 -31 -28t-32 -26
q-16 -12 -44 -30t-66 -34.5t-86.5 -28t-105.5 -11.5q-66 0 -133.5 19.5t-121.5 60.5q-19 14 -41 37t-41.5 57t-32.5 79t-13 104q0 21 3 54.5t14.5 74.5t32.5 86.5t57 90.5q16 21 46 50.5t74 56.5t102 46.5t132 19.5q12 0 34 -1t49 -7t56.5 -18.5t58.5 -35.5
q15 -12 32.5 -31.5t32.5 -47t24.5 -64t9.5 -83.5q0 -36 -6.5 -75t-19.5 -77t-32.5 -72.5t-44.5 -61.5l-15 -15t-27.5 -22t-37.5 -20t-45 -9q-20 0 -34 6t-23 14.5t-14 18t-6 16.5q-3 11 -3.5 19t0.5 19q-11 -15 -22 -28q-5 -5 -16 -15.5t-27.5 -21.5t-38 -19t-46.5 -8
q-28 0 -45.5 8t-26.5 15q-32 23 -44 60.5t-12 75.5q0 26 3 43t5 28q15 69 43 109t50 59q4 4 14 11t24.5 14.5t32 13t37.5 5.5q22 0 38.5 -6t28.5 -14.5t20 -18t12 -15.5q8 -11 13 -24.5t7 -16.5zM548 347q1 33 -8 55t-22.5 35.5t-30 19t-30.5 5.5q-20 0 -36.5 -8t-21.5 -11
q-23 -15 -39.5 -40t-28 -53.5t-17 -58t-5.5 -55.5q0 -32 8 -52.5t21 -33.5t28 -18t30 -5q12 0 32.5 6t43.5 26q26 23 41 52t22.5 57t10 49.5t2.5 29.5z" />
    <glyph glyph-name="A" unicode="A" horiz-adv-x="688" 
d="M584 0l-91 201h-316l-91 -201h-86l331 706h28l329 -706h-104zM358 499q-5 10 -7.5 17.5t-5 14t-4 14t-4.5 18.5q-2 -8 -3.5 -13.5t-3.5 -11.5t-5 -14t-9 -20l-111 -242h260z" />
    <glyph glyph-name="B" unicode="B" horiz-adv-x="604" 
d="M78 706h258q8 0 26.5 -2t41 -9t46.5 -21t42 -39q21 -29 25.5 -54t4.5 -38q0 -44 -22.5 -81.5t-60.5 -58.5q-16 -9 -32 -14t-33 -10q7 0 20.5 -0.5t30.5 -3.5t36.5 -9.5t37.5 -19.5q10 -7 22.5 -18t23.5 -28.5t18.5 -40.5t7.5 -54q0 -11 -2.5 -29.5t-10.5 -40t-23 -44.5
t-41 -43q-41 -32 -84 -39.5t-92 -8.5h-240v706zM280 60h17t17 1q31 1 54 7.5t39.5 16.5t27.5 21.5t18 23.5q12 22 15 41t3 29q0 13 -2.5 27t-7.5 26q-14 36 -41 54t-63 27q-48 13 -91.5 14.5t-91.5 2.5v-291h106zM174 646v-256q21 1 44 2t46 3.5t45.5 8t41.5 14.5
q25 12 39.5 27t22 30.5t10 30t2.5 25.5q0 6 -1 17t-5.5 23.5t-12.5 25t-23 23.5q-27 20 -57.5 23t-61.5 3h-90z" />
    <glyph glyph-name="C" unicode="C" horiz-adv-x="667" 
d="M625 528q-11 16 -21 29.5t-23 27.5q-10 10 -26 23t-38 24t-51 18.5t-65 7.5q-11 0 -28.5 -1t-39.5 -6.5t-46 -16.5t-47 -31q-35 -30 -54.5 -68t-28.5 -74t-11 -65t-2 -40q0 -14 2 -45.5t13 -68.5q12 -43 34.5 -78.5t54 -61t70.5 -39.5t85 -14q16 0 39.5 3t50.5 13t56 29
t56 51q7 8 13 16.5t12 16.5l27 -11q-6 -19 -20 -51t-50 -66q-29 -26 -58.5 -40.5t-56.5 -21.5t-49.5 -8t-35.5 -1q-60 0 -114 16.5t-102 54.5q-46 37 -71.5 82.5t-38 89t-15.5 78.5t-3 51q0 15 2 43.5t10.5 64t25.5 75t47 76.5q14 17 36.5 37.5t55 38t75.5 29.5t98 12
q47 0 84 -10t64 -25t46 -33t30 -34q18 -27 25 -50t9 -35z" />
    <glyph glyph-name="D" unicode="D" horiz-adv-x="729" 
d="M78 706h235q30 -1 52 -2t39.5 -3.5t31.5 -5.5t28 -7q55 -18 97 -51.5t69.5 -77.5t41.5 -96.5t14 -107.5q0 -15 -1.5 -40.5t-10.5 -60.5q-22 -85 -78 -146.5t-141 -87.5q-15 -5 -30.5 -8.5t-34 -5.5t-42.5 -3.5t-55 -2.5h-215v706zM270 60q14 1 28.5 1t28.5 1q12 1 32.5 3
t45 9.5t51 22.5t51.5 41q12 12 25.5 31t25 44.5t19 58.5t7.5 75q0 11 -2 37.5t-10 59.5t-25 68.5t-48 65.5q-11 10 -33 26t-57 27q-13 4 -26.5 7t-30 4.5t-37.5 2t-48 0.5h-92v-585h95z" />
    <glyph glyph-name="E" unicode="E" 
d="M555 0h-477v706h432v-61h-336v-246h297v-61h-297v-277h381v-61z" />
    <glyph glyph-name="F" unicode="F" horiz-adv-x="521" 
d="M78 0v706h436v-63h-337v-247h294v-62h-294v-334h-99z" />
    <glyph glyph-name="G" unicode="G" horiz-adv-x="729" 
d="M673 52q-12 -6 -24 -12.5t-25 -11.5q-12 -5 -34 -13t-51.5 -16t-65 -14t-74.5 -6q-14 0 -37 1.5t-51.5 7.5t-61 19t-64.5 36q-29 20 -55 49q-14 15 -29 37.5t-28 53.5t-21.5 70.5t-8.5 88.5q0 21 3 55t15.5 75t37.5 85t70 83q15 13 36 28.5t50 28.5t66.5 21.5t85.5 8.5
t85 -10t64 -25t45 -33.5t29 -36.5q8 -13 14 -26t11 -41l-23 -9q-5 5 -16 19.5t-26 28.5q-10 10 -25 21.5t-36 21t-48.5 16t-61.5 6.5q-12 0 -32.5 -1.5t-45 -8.5t-52 -21t-53.5 -38q-33 -30 -51 -66t-26.5 -69.5t-10.5 -60.5t-2 -40q0 -10 1.5 -31.5t6.5 -48.5
q2 -12 8 -35.5t19.5 -51.5t35.5 -56t56 -50q22 -14 43.5 -22t40.5 -12t34 -5t24 -1q45 0 78 9t47 14q11 3 20.5 7.5t19.5 9.5v187h-160v59h253v-275z" />
    <glyph glyph-name="H" unicode="H" horiz-adv-x="729" 
d="M554 0v338h-379v-338h-97v706h97v-306h379v306h97v-706h-97z" />
    <glyph glyph-name="I" unicode="I" horiz-adv-x="250" 
d="M77 0v706h96v-706h-96z" />
    <glyph glyph-name="J" unicode="J" horiz-adv-x="458" 
d="M386 236v-27t-1 -27q-2 -51 -18 -93.5t-60 -73.5q-17 -11 -47.5 -23.5t-79.5 -12.5q-6 0 -18 0.5t-27 4t-32.5 10t-33.5 18.5q-7 5 -18 14.5t-22 26.5t-17.5 33.5t-11.5 36.5l26 11q2 -4 8.5 -14.5t15.5 -21.5q15 -18 32 -29t32.5 -17t28.5 -7.5t22 -1.5q23 0 39.5 5.5
t28.5 13.5t19.5 17t12.5 17q10 15 14 28.5t6 19.5q5 19 6 55t0 86v421h95v-470z" />
    <glyph glyph-name="K" unicode="K" horiz-adv-x="604" 
d="M520 0l-346 358v-358h-96v706h96v-322l320 322h101l-321 -322l370 -384h-124z" />
    <glyph glyph-name="L" unicode="L" horiz-adv-x="521" 
d="M521 0h-443v706h98v-644h345v-62z" />
    <glyph glyph-name="M" unicode="M" horiz-adv-x="854" 
d="M731 0l-56 366q-4 28 -7 47t-4.5 33.5t-2 27.5t-0.5 30v16t1 16q-3 -14 -7 -27t-8 -27l-12 -36q-5 -14 -11 -27.5t-12 -27.5l-166 -391h-51l-171 392q-9 22 -15.5 38.5t-12.5 32.5t-11.5 33t-10.5 40v-36.5t-2 -41t-5 -50.5t-9 -64l-51 -344h-81l107 706h52l203 -465
q9 -23 15.5 -38.5t11 -27.5t7.5 -23t6 -24q4 11 7 22.5t7 22.5q5 13 9.5 25t9.5 24l205 484h51l111 -706h-97z" />
    <glyph glyph-name="N" unicode="N" horiz-adv-x="750" 
d="M643 -9l-424 503q-16 20 -30 39t-28 39v-572h-83v706h82l368 -438q11 -13 19 -22.5t15 -18.5t14 -19.5t16 -24.5l-5 523h85v-715h-29z" />
    <glyph glyph-name="O" unicode="O" horiz-adv-x="771" 
d="M728 356q0 -19 -3 -59.5t-20 -90.5q-37 -108 -120 -167.5t-197 -59.5q-53 0 -95 11.5t-74 29t-54 37t-35 34.5q-14 16 -29 39.5t-28 56t-21.5 73.5t-8.5 92q0 15 2 44t10.5 66t26 77t49.5 78q49 57 115 83.5t140 26.5q45 0 80.5 -8t62.5 -20t47 -26t34 -27
q18 -16 38.5 -41.5t38 -61t29.5 -82t12 -105.5zM626 358q0 11 -1.5 38t-10 61.5t-25.5 72t-47 69.5q-8 9 -21.5 20t-32.5 21.5t-44.5 17.5t-57.5 7q-15 0 -49 -5.5t-69 -28.5q-21 -14 -43 -37t-40 -57.5t-29.5 -80t-11.5 -104.5q0 -12 1.5 -42t11 -67.5t29.5 -77t57 -71.5
q31 -26 67.5 -39t76.5 -13q8 0 21 1t29.5 4.5t35 11t36.5 19.5q44 30 67.5 73.5t34.5 86t13 76.5t2 44z" />
    <glyph glyph-name="P" unicode="P" 
d="M78 0v706h221q28 0 57 -1t56 -7t52 -18.5t45 -36.5q12 -14 26 -42.5t14 -73.5q0 -46 -13.5 -74t-24.5 -42q-15 -19 -36.5 -36t-52.5 -29.5t-71 -20t-92 -7.5q-42 0 -84 3v-321h-97zM175 647v-289q5 0 27 -0.5t51.5 2.5t62 11t59.5 24q8 4 20.5 13.5t24.5 24.5t20.5 36.5
t8.5 49.5q0 9 -3.5 29t-17.5 43q-18 28 -50 41.5t-96 14.5h-107z" />
    <glyph glyph-name="Q" unicode="Q" horiz-adv-x="771" 
d="M852 -174q-27 -3 -55 -3q-17 0 -42.5 1.5t-63.5 7.5q-59 9 -114 25.5t-101.5 34.5t-80.5 34t-50 23q-56 27 -112.5 59.5t-99.5 79.5q-14 16 -29.5 39.5t-29 56t-22.5 74.5t-9 93q0 78 22.5 146.5t66 119.5t107.5 80.5t147 29.5q15 0 39 -1.5t52.5 -9t60.5 -22t64 -41.5
q45 -38 70.5 -83t38 -87.5t15 -77.5t2.5 -52q0 -16 -2.5 -51.5t-15.5 -79.5t-39 -90t-72 -82q-45 -35 -83.5 -46t-61.5 -14q12 -4 20 -7t15.5 -6.5l15 -7t18.5 -9.5l17 -9l27 -13.5t27 -12.5q17 -8 35 -15t36 -13q34 -12 77 -23.5t117 -20.5zM626 358q0 11 -1.5 38t-10 61.5
t-25.5 72t-47 69.5q-8 9 -21.5 20t-32.5 21.5t-44.5 17.5t-57.5 7q-15 0 -49 -5.5t-69 -28.5q-21 -14 -43 -37t-40 -57.5t-29.5 -80t-11.5 -104.5q0 -12 1.5 -42t11 -67.5t29.5 -77t57 -71.5q31 -26 67.5 -39t76.5 -13q8 0 21 1t29.5 4.5t35 11t36.5 19.5q44 30 67.5 73.5
t34.5 86t13 76.5t2 44z" />
    <glyph glyph-name="R" unicode="R" horiz-adv-x="604" 
d="M500 0l-189 325q-17 -3 -36.5 -4.5t-54.5 -1.5q-11 0 -23 0.5t-23 1.5v-321h-96v706h191q42 0 65.5 -1t44.5 -5q7 -1 20 -4t29 -9.5t33.5 -17.5t32.5 -28q21 -23 31 -53t10 -62q0 -33 -9 -58.5t-21 -45t-25.5 -32t-22.5 -19.5q-17 -11 -31 -17t-22 -9l201 -345h-105z
M174 645v-288q6 0 27.5 0.5t50 4t60 13t58.5 27.5q31 20 48.5 50t17.5 67q0 32 -15.5 60.5t-43.5 45.5q-25 14 -52 17t-53 3h-98z" />
    <glyph glyph-name="S" unicode="S" horiz-adv-x="542" 
d="M324 398q23 -7 44.5 -13.5t42.5 -17.5q12 -6 30 -18t34 -32t27.5 -48.5t11.5 -67.5q0 -11 -3 -36t-17 -53q-9 -21 -26.5 -44.5t-45.5 -43t-68 -32.5t-94 -13q-13 0 -40 2t-59.5 12.5t-64.5 33.5t-54 64q-17 31 -21 55.5t-5 38.5l26 7q2 -5 10 -21.5t20 -32.5
q7 -11 22 -26.5t37.5 -30t52.5 -25t69 -10.5q30 0 62.5 9t55.5 29q6 5 13.5 14t14.5 22t12 29.5t5 37.5q0 27 -11 52.5t-33 42.5q-17 14 -42.5 22.5t-69.5 19.5l-25 7q-2 0 -12 2.5t-23 6.5t-28 9.5t-28 11.5q-12 6 -29 18.5t-33 32t-27 47.5t-11 66q0 11 3 34.5t16 50.5
q9 17 25 37.5t41 38t60.5 29.5t83.5 12q75 0 131.5 -36.5t78.5 -111.5q4 -11 8 -40l-25 -9q-6 12 -19 34t-34.5 43t-53 37t-76.5 16q-18 0 -33.5 -2.5t-32.5 -9.5q-26 -11 -41.5 -26t-23.5 -31.5t-10.5 -31.5t-2.5 -25q0 -8 2.5 -25.5t15.5 -36.5q11 -16 28 -27t35.5 -18.5
t38.5 -12.5t37 -9z" />
    <glyph glyph-name="T" unicode="T" horiz-adv-x="542" 
d="M222 0v642h-222v64h542v-64h-221v-642h-99z" />
    <glyph glyph-name="U" unicode="U" horiz-adv-x="729" 
d="M555 0v104l-10 -12l-10 -12q-31 -35 -62.5 -55.5t-61 -30.5t-55 -12.5t-43.5 -2.5q-36 0 -71.5 7.5t-66.5 24t-55 42.5t-36 62q-8 25 -9.5 49.5t-2.5 50.5v491h96v-448q0 -14 0.5 -28t1.5 -28q3 -42 15.5 -73t50.5 -54q32 -20 61 -24t41 -4q16 0 36.5 3t44 11.5t49.5 24
t54 39.5q5 4 8.5 7t6.5 6l7 7t11 12v549h96v-706h-96z" />
    <glyph glyph-name="V" unicode="V" horiz-adv-x="667" 
d="M347 -9h-29l-328 715h106l222 -502q3 -8 6 -15t7 -15q3 -8 6 -15.5t6 -15.5q4 13 8 23t14 33l224 507h88z" />
    <glyph glyph-name="W" unicode="W" horiz-adv-x="896" 
d="M668 -9h-32l-162 446q-10 25 -15.5 43t-11.5 45q-5 -27 -14 -53t-17 -52l-161 -429h-30l-225 715h104l133 -465q3 -11 5.5 -18.5t4.5 -16.5t4 -21.5t4 -31.5q0 13 3 27q4 22 12.5 51.5t16.5 49.5l154 425h29l166 -475q5 -17 8 -27.5t5 -18t3 -14.5t2 -18q2 16 4.5 32
t7 35t11 42t15.5 54l125 390h79z" />
    <glyph glyph-name="X" unicode="X" horiz-adv-x="625" 
d="M515 0l-210 293l-217 -293h-92l262 358l-250 348h114l192 -269l196 269h94l-242 -334l267 -372h-114z" />
    <glyph glyph-name="Y" unicode="Y" horiz-adv-x="625" 
d="M311 -34q-9 -19 -16 -32.5t-13 -24t-12 -19t-13 -16.5q-20 -24 -44 -39.5t-46.5 -24.5t-41 -13t-27.5 -5q-14 -2 -25.5 -3t-37.5 -1h-29v33q4 0 15.5 1t23.5 3q11 2 39 10t56 28q40 27 64.5 69.5t44.5 83.5l15 31l-274 659h103l171 -420q7 -17 13.5 -34t12.5 -34l12 -33
l9 -33l18 48q5 11 9.5 22t9.5 22l203 462h84z" />
    <glyph glyph-name="Z" unicode="Z" horiz-adv-x="604" 
d="M587 0h-587v28l445 615h-397v63h534v-28l-442 -615h447v-63z" />
    <glyph glyph-name="bracketleft" unicode="[" horiz-adv-x="250" 
d="M250 0h-173v706h173v-52h-93v-602h93v-52z" />
    <glyph glyph-name="backslash" unicode="\" horiz-adv-x="354" 
d="M36 706h59l229 -724h-60z" />
    <glyph glyph-name="bracketright" unicode="]" horiz-adv-x="250" 
d="M0 706h173v-706h-173v52h93v602h-93v52z" />
    <glyph glyph-name="asciicircum" unicode="^" horiz-adv-x="729" 
d="M497 350l-131 274l-134 -274h-76l180 356h63l174 -356h-76z" />
    <glyph glyph-name="underscore" unicode="_" horiz-adv-x="500" 
d="M-10 -206v59h520v-59h-520z" />
    <glyph glyph-name="grave" unicode="`" horiz-adv-x="292" 
d="M-109 739h107l104 -153l-22 -19z" />
    <glyph glyph-name="a" unicode="a" horiz-adv-x="521" 
d="M370 0v59q-6 -8 -15.5 -20t-29.5 -26q-26 -18 -53.5 -26t-59.5 -8q-9 0 -28.5 1.5t-42.5 9t-46 23t-40 43.5q-6 10 -14.5 31t-8.5 51q0 12 4 36.5t21 51.5q15 25 37.5 43t48.5 29t54.5 16t57.5 5q18 0 36.5 -2t34.5 -4t28 -4t16 -3q0 28 -2.5 53t-19.5 50
q-18 28 -45.5 39.5t-59.5 11.5q-36 0 -68.5 -13t-57.5 -38q-13 -14 -19 -23.5t-11 -16.5l-26 10q2 8 8 25.5t18 37.5q9 14 23.5 29.5t36 28.5t51 21.5t68.5 8.5q8 0 25.5 -1t39.5 -7q11 -3 27.5 -10t34 -20.5t33 -34t24.5 -51.5q3 -10 4.5 -19.5t2.5 -21t1.5 -25.5t0.5 -34
v-306h-89zM370 246q-11 3 -38.5 8.5t-62.5 5.5q-22 0 -37.5 -3t-23.5 -6q-35 -12 -57.5 -40t-22.5 -66q1 -49 34.5 -77t79.5 -28q18 0 34.5 4t29 10t21.5 12t14 10q11 9 18 15.5t11 11.5v143z" />
    <glyph glyph-name="b" unicode="b" horiz-adv-x="583" 
d="M69 0v706h90v-257q8 9 15 16t16 15q59 50 135 50q13 0 43 -4.5t62 -26.5q18 -12 37 -31.5t35 -49t26 -68.5t10 -90q0 -14 -2.5 -45t-13.5 -66q-5 -15 -17 -43.5t-36 -56.5t-62 -49t-93 -21q-8 0 -21 1t-31 6q-35 9 -58 28t-45 48v-62h-90zM159 108q28 -29 56 -47t71 -18
q11 0 35 3.5t48 22.5q27 20 49 64t22 118q0 57 -11.5 98t-32 67.5t-47 39t-56.5 12.5q-17 0 -44.5 -6.5t-59.5 -32.5q-8 -7 -13 -12t-17 -19v-290z" />
    <glyph glyph-name="c" unicode="c" horiz-adv-x="521" 
d="M475 358q-7 12 -13 22t-15 21q-25 31 -59 47.5t-75 16.5q-25 0 -44.5 -6t-34 -14t-24.5 -17t-16 -16q-20 -22 -30.5 -45.5t-15 -45t-5.5 -39t-1 -26.5t1.5 -31.5t9.5 -50t25 -55.5t48 -48q10 -7 31.5 -16t53.5 -9q30 0 53.5 8.5t41.5 20.5t29.5 24.5t17.5 19.5q6 8 10 14
t12 21l27 -9q-8 -29 -15 -45.5t-15 -29.5q-9 -14 -23.5 -30t-37 -29.5t-53 -22.5t-70.5 -9q-32 0 -57 6t-44.5 14.5t-33.5 18.5t-24 19q-30 27 -47 58.5t-25 61.5t-9.5 54t-1.5 36q0 11 1 31.5t6.5 46t17 54.5t32.5 57q10 13 26 29.5t39.5 30.5t55.5 24t74 10q41 0 72 -10
t53.5 -25.5t37 -33t22.5 -32.5q6 -12 10 -24.5t9 -37.5z" />
    <glyph glyph-name="d" unicode="d" horiz-adv-x="583" 
d="M423 0v59q-9 -11 -21 -24.5t-30.5 -26t-44 -21t-59.5 -8.5q-36 0 -60 8t-37 14q-21 10 -43 29.5t-40 49t-30 71t-12 95.5q0 34 6 68.5t19.5 66.5t33.5 60t49 49q6 4 17 11t26.5 13.5t34.5 11t41 4.5q16 0 48.5 -6.5t65.5 -32.5q12 -9 19.5 -17.5t16.5 -20.5v253h91v-706
h-91zM423 401q-5 8 -9.5 13t-12.5 12q-29 27 -57 33.5t-43 6.5q-11 0 -34.5 -4.5t-48.5 -22.5q-22 -15 -36.5 -37t-23.5 -47t-12.5 -52t-3.5 -52q0 -7 1 -29.5t8.5 -50.5t23 -57t45.5 -49q35 -23 79 -23q25 0 45.5 7t36 17t26 20t16.5 15v300z" />
    <glyph glyph-name="e" unicode="e" 
d="M141 254q1 -20 3 -37t8 -36q18 -60 62 -96.5t109 -36.5q9 0 24 1.5t33 7t38 15.5t39 27q18 16 28 30.5t15 22.5l25 -10q-5 -15 -10 -29t-13 -28q-9 -15 -24.5 -33.5t-40 -34.5t-58 -27t-78.5 -11q-40 0 -67.5 8t-41.5 14q-22 10 -47.5 28.5t-47.5 48.5t-36.5 72.5
t-14.5 101.5q0 14 2.5 46t16.5 70q29 76 91.5 119t143.5 43q9 0 23 -1t32 -4.5t38 -11.5t41 -22q40 -27 61 -63t29.5 -70.5t9 -63t0.5 -40.5h-393zM445 309q-1 8 -2.5 25.5t-9.5 37.5q-17 43 -53 69t-83 26q-46 -1 -82.5 -26.5t-55.5 -67.5q-6 -13 -10 -25.5t-7 -38.5h303z
" />
    <glyph glyph-name="f" unicode="f" horiz-adv-x="271" 
d="M80 0v452h-72v57h72v63q0 28 1 41.5t6 27.5q13 45 50 65.5t79 20.5q10 0 34 -3.5t47 -21.5q8 -5 12.5 -11t6.5 -8l-16 -21q-7 3 -21 8t-34 5q-27 0 -47 -14q-20 -15 -23.5 -37.5t-3.5 -64.5v-50h105v-57h-105v-452h-91z" />
    <glyph glyph-name="g" unicode="g" 
d="M493 15q-1 -34 -7.5 -67t-25.5 -62q-10 -15 -26.5 -31t-41 -29.5t-57 -22.5t-74.5 -9q-8 0 -21 0.5t-29.5 4t-35.5 10t-37 18.5q-9 6 -28 22.5t-33 43.5q-7 12 -11 23.5t-9 36.5l29 9q1 -2 7 -13.5t14 -21.5q26 -34 66 -51.5t82 -17.5q8 0 22.5 1t31 6t33.5 16t32 31
q23 33 25.5 73t2.5 78v29q-6 -8 -10.5 -13.5t-11.5 -12.5t-19 -16t-28.5 -16.5t-38.5 -13t-49 -5.5q-13 0 -42 4t-59 23q-17 11 -34.5 29.5t-31.5 45t-23 62t-9 82.5q0 10 1.5 38.5t10.5 63t29 70.5t57 62q12 9 39.5 22t67.5 13q34 0 59.5 -10t43.5 -24t29.5 -28.5
t18.5 -24.5v66h91v-494zM402 384q-6 10 -12.5 19.5t-14.5 17.5q-5 4 -13.5 11.5t-21 15t-29 12.5t-35.5 5q-26 0 -45.5 -9t-33 -21.5t-21.5 -25.5t-11 -20q-8 -14 -16 -45t-8 -74q0 -31 7 -65t23 -62t43 -46t66 -18q23 0 43.5 6.5t36 15.5t26.5 18t16 13v252z" />
    <glyph glyph-name="h" unicode="h" 
d="M402 0v326q0 16 -0.5 32.5t-4 32.5t-11.5 30t-24 25q-8 5 -23.5 11t-38.5 6q-26 0 -46.5 -8t-36.5 -18.5t-26 -21t-15 -16.5q-6 -8 -10 -15t-6 -9v-375h-91v706h91l1 -273q8 10 22 26.5t36 32.5t51.5 27t68.5 11q36 0 61.5 -10t43 -24t27.5 -31t14 -30q5 -16 6.5 -30
t1.5 -44v-361h-91z" />
    <glyph glyph-name="i" unicode="i" horiz-adv-x="229" 
d="M69 0v509h91v-509h-91zM167 660q1 -3 0.5 -10t-4.5 -15t-15 -19t-34 -11t-37.5 15t-14.5 38t14.5 39t39.5 16q23 0 36.5 -15t14.5 -38z" />
    <glyph glyph-name="j" unicode="j" horiz-adv-x="229" 
d="M161 20q0 -25 -0.5 -51t-5.5 -51t-16.5 -47t-32.5 -40q-26 -22 -53 -28t-59 -9l-5 27q20 5 35.5 12.5t27.5 24.5q11 19 13.5 44.5t2.5 68.5v538h93v-489zM167 661q1 -23 -14 -39.5t-39 -16.5q-22 1 -37.5 15.5t-14.5 36.5q0 23 14.5 39t39.5 16q9 0 14.5 -1.5t9.5 -3.5
q8 -4 17.5 -14t9.5 -32z" />
    <glyph glyph-name="k" unicode="k" horiz-adv-x="500" 
d="M419 0q-30 19 -51.5 40t-29.5 29l-178 194v-263h-91v706h91v-411l236 214h96l-239 -218l162 -177q28 -29 55 -57.5t56 -56.5h-107z" />
    <glyph glyph-name="l" unicode="l" horiz-adv-x="229" 
d="M69 0v706h91v-706h-91z" />
    <glyph glyph-name="m" unicode="m" horiz-adv-x="854" 
d="M696 0v319v12t-0.5 25.5t-3 30.5t-7.5 29q-11 25 -33 36.5t-48 11.5q-29 0 -51 -10t-38.5 -23.5t-26.5 -27t-14 -19.5v-384h-91v313v19.5t-1 20.5q-1 43 -11.5 64t-29.5 32q-8 5 -20.5 10t-34.5 5q-9 0 -22 -2t-28 -8.5t-30.5 -18t-30.5 -29.5q-4 -5 -7.5 -10.5
t-7.5 -11.5v-384h-91v509h91l1 -70q2 4 7 10.5t13 15.5q7 9 19.5 20t30.5 21t41.5 17t53.5 7q28 0 49 -6.5t36.5 -16.5t25.5 -21t16 -21q7 -10 14 -35q3 5 9 13t14 18q7 9 20 20.5t31.5 22.5t43 18.5t55.5 7.5q7 0 21.5 -1t32.5 -6.5t36 -17.5t32 -33q16 -25 19.5 -59
t3.5 -92v-321h-89z" />
    <glyph glyph-name="n" unicode="n" 
d="M403 0v289q1 47 -1 76.5t-13 49.5q-3 6 -10 15t-21 17q-19 12 -36.5 14.5t-25.5 2.5q-24 0 -43.5 -7t-34.5 -16t-25 -18.5t-14 -15.5q-5 -5 -8.5 -10.5t-10.5 -17.5v-379h-91v509h91v-70q9 12 22.5 27.5t34.5 29.5t50 24t68 10q13 0 24.5 -1.5t24.5 -3.5
q25 -6 42.5 -16.5t29 -22.5t18.5 -24t10 -21q7 -19 8 -41t1 -42v-358h-90z" />
    <glyph glyph-name="o" unicode="o" horiz-adv-x="583" 
d="M538 262q0 -50 -11.5 -102t-43.5 -93q-10 -13 -26.5 -28t-40.5 -28.5t-56 -22.5t-72 -9q-11 0 -29 1.5t-40.5 7.5t-47 18t-47.5 33q-30 27 -45.5 58.5t-23 60.5t-8.5 53t-1 36q0 44 5.5 72t11.5 46q27 81 88 123t146 42q59 0 100 -19.5t67.5 -47t40.5 -57t20 -49.5
q5 -14 8.5 -37t4.5 -58zM441 256q0 5 -0.5 19t-3 33t-7.5 40t-14 41q-18 38 -49 61.5t-75 23.5q-29 0 -56 -12t-47.5 -38.5t-33 -67t-12.5 -97.5q0 -5 0.5 -21.5t3 -39t9 -47.5t18.5 -46q11 -18 21 -28t17 -15q24 -19 46.5 -23.5t33.5 -4.5t26 2.5t31 10t32 21.5t29 38
q12 21 18 45t9 46t3.5 38t0.5 21z" />
    <glyph glyph-name="p" unicode="p" horiz-adv-x="583" 
d="M158 449l22 22t35 27t49 22.5t63 9.5q36 0 60 -9t36 -16q20 -12 40.5 -32t37 -50t27 -70.5t10.5 -92.5q0 -51 -11 -91.5t-27.5 -71t-36 -51t-37.5 -32.5q-14 -10 -42.5 -22.5t-73.5 -12.5q-32 0 -56.5 7.5t-43 18t-31.5 22.5t-22 20v-247h-88v709h88zM158 89q5 -5 9 -8
t10 -8q21 -14 49 -23t54 -9q7 0 18 1t24.5 5t28.5 12t29 21q16 14 31 38.5t23 71.5q2 10 4 27t2 42q0 39 -7 70.5t-18 54.5t-25 39t-28 25q-21 14 -41.5 17t-28.5 3q-27 0 -49 -8.5t-39.5 -19.5t-29 -22t-17.5 -16z" />
    <glyph glyph-name="q" unicode="q" horiz-adv-x="583" 
d="M514 -200h-90l-1 254q-3 -4 -8 -10t-13 -14q-15 -15 -48.5 -33t-88.5 -18q-38 0 -66 9.5t-49 24t-34.5 30.5t-21.5 28q-25 37 -36.5 86t-11.5 93q0 13 2.5 42t13.5 64t33 71.5t61 64.5q55 38 119 38q7 0 20 -1t29 -5.5t33 -12.5t34 -23q13 -11 21.5 -22.5t11.5 -16.5v60
h90v-709zM424 397q-4 5 -7.5 10t-8.5 10q-5 6 -14.5 14.5t-23 17t-31 14.5t-39.5 6q-26 0 -44 -7.5t-26 -12.5q-16 -9 -31.5 -25t-28 -39.5t-20.5 -55t-8 -72.5q0 -6 1 -28t7.5 -50t21 -57t40.5 -50q10 -8 32 -18.5t55 -10.5q24 0 44.5 6.5t36.5 15.5t27 18t17 14v300z" />
    <glyph glyph-name="r" unicode="r" horiz-adv-x="354" 
d="M69 0v509h92l1 -70q4 6 14 19.5t26 27.5t38.5 24.5t51.5 10.5q11 0 22 -2t30 -10v-83q-19 10 -38 16t-41 6q-36 0 -64 -21q-13 -9 -25 -21q-5 -5 -7 -8t-8 -11v-387h-92z" />
    <glyph glyph-name="s" unicode="s" horiz-adv-x="458" 
d="M392 379q-12 22 -27 38q-7 7 -17.5 15.5t-25 16t-33.5 12.5t-43 5q-6 0 -17.5 -0.5t-26.5 -5.5q-26 -7 -46 -25t-20 -47q0 -4 1 -11t5 -16q11 -22 37 -34.5t71 -26.5l25 -7q9 -3 18.5 -5.5t18.5 -6.5q9 -3 28.5 -11.5t39 -25t34.5 -42t15 -62.5q0 -12 -4 -37t-24 -51
q-10 -14 -24.5 -27t-36 -23t-50 -16.5t-65.5 -6.5q-11 0 -34.5 2t-51.5 11t-56 29t-47 56q-8 15 -11.5 29t-6.5 30l27 8q12 -20 20.5 -30.5t16.5 -18.5q27 -26 64.5 -39.5t75.5 -13.5q19 0 39.5 4.5t37 14.5t27 26t10.5 40q0 6 -2 19.5t-13 27.5q-9 11 -22 19.5t-27.5 14.5
t-29.5 10.5t-27 8.5l-31 9l-18 6t-18 7q-9 3 -26.5 11t-34.5 23t-29.5 38t-12.5 58q0 36 16 65q7 14 20.5 29.5t34 28t49 20.5t65.5 8q8 0 30.5 -1.5t49 -10.5t53 -27.5t42.5 -51.5q6 -12 9 -25t5 -26z" />
    <glyph glyph-name="t" unicode="t" horiz-adv-x="292" 
d="M74 452h-70v57h70v136h92v-136h107v-57h-107v-292q0 -44 3 -69t20 -42q14 -14 28 -16.5t21 -2.5q22 0 38.5 7.5t22.5 10.5l14 -25q-6 -5 -16 -12.5t-23.5 -14.5t-31 -12t-39.5 -5q-9 0 -29.5 2.5t-43.5 16.5q-21 11 -32 26.5t-16 33t-6 37.5l-2 40v317z" />
    <glyph glyph-name="u" unicode="u" 
d="M493 0h-91v64l-9 -13.5t-17 -20.5q-18 -18 -38 -28t-38.5 -15t-33.5 -6.5t-23 -1.5q-36 0 -75 14t-64 43q-13 16 -20 32.5t-10 34t-4 36t-1 36.5v334h91v-297q0 -24 1.5 -53t9.5 -52q11 -32 39 -48.5t61 -16.5q19 0 36 4.5t30.5 11t23 13.5t14.5 11q11 9 17 16t10 12v399
h91v-509z" />
    <glyph glyph-name="v" unicode="v" horiz-adv-x="479" 
d="M254 -6h-31l-223 515h99l139 -342q2 -7 4.5 -12.5t5.5 -18.5q2 8 4 14t7 19l145 340h75z" />
    <glyph glyph-name="w" unicode="w" horiz-adv-x="729" 
d="M540 -6h-31l-132 313q-3 9 -7 19.5t-9 30.5q-2 -13 -7 -28.5t-15 -40.5l-121 -294h-28l-190 515h95l108 -305q4 -13 8 -24t7 -37q1 7 1.5 12t2 11t4 13t6.5 18l124 312h29l123 -294q6 -16 9.5 -25t5.5 -16t3 -14t2 -17q2 16 6 28t6 17l114 321h75z" />
    <glyph glyph-name="x" unicode="x" horiz-adv-x="500" 
d="M391 0l-150 206l-157 -206h-84l201 260l-182 249h109l128 -175l135 175h82l-176 -231l203 -278h-109z" />
    <glyph glyph-name="y" unicode="y" horiz-adv-x="479" 
d="M260 5q-9 -21 -19 -41t-21 -40q-7 -12 -21.5 -33.5t-38.5 -43t-58 -37.5t-80 -16h-9.5t-9.5 1v27q34 10 53 21.5t31 21.5q14 12 26 26t24 32.5t25 43t28 57.5l10 24l-197 461h101l144 -355l156 355h78z" />
    <glyph glyph-name="z" unicode="z" horiz-adv-x="458" 
d="M436 0h-430v24l302 428h-273v57h401v-25l-301 -426h301v-58z" />
    <glyph glyph-name="braceleft" unicode="{" horiz-adv-x="354" 
d="M152 583q1 36 9 70t36 60q13 11 26 17t18 8q14 5 36 6.5t36 3.5v-6q-23 -6 -41.5 -14.5t-32.5 -29.5q-19 -27 -20.5 -59.5t-1.5 -62.5v-99v-52.5t-2 -52.5q0 -2 -0.5 -11.5t-2.5 -22.5t-6.5 -27t-12.5 -25q-11 -16 -24.5 -24t-30.5 -14q7 -2 20 -7.5t27 -19.5
q13 -14 20 -31.5t9.5 -40.5t3 -51.5t0.5 -65.5v-111q0 -43 2.5 -65.5t12.5 -42.5q14 -28 33.5 -39t46.5 -19v-5q-8 1 -16 1.5t-16 1.5q-6 0 -16 1t-22.5 5t-26.5 11t-26 20q-15 15 -22.5 34t-11 39.5t-4 41t-0.5 39.5v163q0 28 -3 57t-21 53q-12 16 -24 22t-20 8v5q6 2 19 7
t24 19q10 12 15 29.5t7 37t2.5 37.5t0.5 32v169z" />
    <glyph glyph-name="bar" unicode="|" horiz-adv-x="229" 
d="M85 -250v998h59v-998h-59z" />
    <glyph glyph-name="braceright" unicode="}" horiz-adv-x="354" 
d="M203 -43q-1 -11 -1 -21.5v-21.5q-1 -35 -9 -69t-36 -60q-13 -12 -26 -18t-18 -8q-14 -5 -36 -6.5t-36 -2.5v5q23 6 41.5 15t32.5 29q19 27 20.5 60t1.5 62v100v52.5t2 52.5q1 22 5 44.5t17 41.5q14 20 31 27.5t24 9.5q-7 2 -20 8t-26 20q-14 14 -21 31.5t-9.5 40t-3 51.5
t-0.5 65v152q0 5 -1 17.5t-5.5 28t-13.5 31t-26 27.5q-11 8 -23.5 12.5t-25.5 8.5v6q8 -1 15.5 -1.5t15.5 -1.5q6 -1 16.5 -2t24 -5t27.5 -12t27 -22q14 -15 21 -33.5t10 -38.5t3.5 -40t0.5 -39v-162q0 -28 3 -57t21 -53q12 -16 24 -22t20 -9v-5q-5 -2 -18.5 -6.5
t-24.5 -18.5q-10 -12 -15 -30t-7 -37t-2 -38v-32v-126z" />
    <glyph glyph-name="asciitilde" unicode="~" horiz-adv-x="729" 
d="M341 269q-2 1 -10.5 5t-20 8.5t-25.5 8t-27 3.5q-17 0 -30 -5.5t-23.5 -15t-19.5 -21t-18 -23.5l-33 55q4 6 13.5 19t25 26.5t36.5 23.5t49 10q30 0 58 -11t54 -24l33 -15q25 -11 37.5 -15.5t27.5 -4.5q32 1 54.5 20.5t41.5 42.5l31 -55q-37 -47 -68 -62t-60 -15
q-21 0 -40.5 7t-56.5 24z" />
    <glyph glyph-name="exclamdown" unicode="&#xa1;" horiz-adv-x="271" 
d="M63 668q-1 8 0.5 14t2.5 9q6 14 19 22t28 8q22 0 37.5 -14.5t14.5 -37.5q0 -23 -14.5 -37t-36.5 -14q-23 0 -36.5 14t-14.5 36zM128 518q11 -64 21.5 -175.5t12.5 -270.5v-72h-96v66q2 92 5 155.5t7 113t9.5 92t13.5 92.5z" />
    <glyph glyph-name="sterling" unicode="&#xa3;" horiz-adv-x="583" 
d="M552 0h-425q-11 -1 -25 -1.5t-37 -9.5l-15 26q9 6 24.5 18t32.5 34q19 23 37 62.5t18 105.5q0 17 -1 26.5t-4 26.5h-146v59l135 1q-2 5 -5.5 17.5t-7 30t-6.5 37.5t-3 40q0 12 2.5 35.5t14.5 52.5q28 66 85.5 98.5t126.5 32.5q9 0 24.5 -1t34.5 -5.5t40 -14.5t40 -28
q20 -19 30.5 -37t14.5 -28q5 -14 8 -27.5t4.5 -25.5t2 -21t0.5 -13l-28 -5q-12 41 -30.5 71.5t-58.5 50.5q-23 11 -43.5 13.5t-29.5 2.5q-14 0 -29.5 -3t-29.5 -9q-44 -18 -64 -55.5t-20 -82.5q0 -20 2 -35t5.5 -29t7 -29t6.5 -34h160v-59h-148q2 -10 2.5 -29.5t-3.5 -45.5
q-5 -32 -16.5 -57t-26 -43t-28.5 -30.5t-23 -19.5h418z" />
    <glyph glyph-name="currency" unicode="&#xa4;" horiz-adv-x="667" 
d="M609 107l-46 -45l-74 75q-7 -5 -13.5 -10t-14.5 -10q-15 -10 -47.5 -22t-80.5 -12q-33 0 -64 7.5t-60 24.5q-9 5 -16.5 10.5t-15.5 11.5l-75 -73l-45 45l75 73q-7 10 -16.5 24t-18 33.5t-14.5 44.5t-6 57q0 31 6 55.5t14.5 43.5t18 33t16.5 23l-73 73l45 45l73 -72
q9 7 23 16t33.5 17.5t44.5 14.5t56 6q17 0 53 -5.5t75 -28.5q8 -5 14.5 -10t13.5 -10l74 73l46 -46l-74 -74q11 -14 22 -31q16 -27 24 -59t8 -65q0 -8 -1 -21.5t-4 -30t-9.5 -35.5t-18.5 -38q-7 -12 -13 -20.5t-9 -12.5zM529 340q0 8 -1 21t-4.5 29t-11.5 34.5t-22 36.5
q-7 9 -20 22t-32.5 25t-45 20.5t-58.5 8.5q-42 0 -78 -15t-62.5 -41.5t-41.5 -62.5t-15 -78t15.5 -78.5t42.5 -63t63 -41.5t78 -15q17 0 49 6t67 32q10 8 23.5 21.5t25.5 33t20 45.5t8 60z" />
    <glyph glyph-name="brokenbar" unicode="&#xa6;" horiz-adv-x="229" 
d="M144 190v-381h-59v381h59zM85 689h59v-381h-59v381z" />
    <glyph glyph-name="section" unicode="&#xa7;" horiz-adv-x="479" 
d="M62 3q4 -17 7 -28.5t11 -26.5q5 -9 15 -22.5t26 -26t38.5 -21.5t53.5 -9q17 0 28.5 2.5t17.5 4.5q32 11 51 36.5t19 60.5q0 30 -12.5 50t-31.5 33.5t-43 23t-46 17.5l-27 10q-10 4 -19.5 7.5t-19.5 8.5q-32 15 -52 33t-31 36t-15 36t-4 35q0 10 1.5 24t7.5 29.5t18 32
t33 30.5q11 8 21 13t33 14q-17 10 -25 15.5t-15 11.5q-17 15 -27 31t-15 31t-6.5 28t-1.5 21q0 14 4.5 40t23.5 56t44 46.5t49.5 25t45 10.5t30.5 2q9 0 26.5 -1.5t38.5 -8t42.5 -20t39.5 -37.5q14 -19 22 -38.5t12 -37.5t5 -32t1 -21l-27 -4q-3 9 -11 30.5t-24.5 44.5
t-44 41t-68.5 18q-44 -1 -76 -27.5t-33 -71.5q0 -26 11 -44.5t27.5 -31t37.5 -21t41 -15.5l32 -11q31 -11 47.5 -18.5t30.5 -16.5q25 -15 40 -32t23.5 -33.5t11 -32.5t2.5 -28q0 -24 -5.5 -40.5t-10.5 -24.5q-11 -20 -24.5 -34.5t-27.5 -24.5t-26 -16l-18 -9q8 -4 13 -7.5
t8 -5.5q9 -6 20 -17t20.5 -27t16.5 -37.5t7 -49.5q0 -9 -2 -27.5t-12 -41.5q-7 -16 -20.5 -35.5t-36.5 -37t-55.5 -29t-76.5 -11.5q-37 0 -61.5 7.5t-38.5 15.5q-33 18 -51.5 44t-27.5 52.5t-11.5 48.5t-2.5 31zM217 373q-11 4 -21 8t-21 8q-6 -5 -15.5 -13t-18.5 -20
t-15.5 -29t-6.5 -39q0 -9 4.5 -31t24.5 -39q18 -16 48.5 -28.5t51.5 -20.5l22 -8q10 -4 19.5 -7.5t20.5 -7.5q8 7 11 9t11 10q22 23 27.5 46t5.5 34q0 6 -1 15t-5 20t-11.5 22.5t-19.5 21.5q-8 7 -16.5 12t-19.5 9.5t-24.5 10t-32.5 12.5z" />
    <glyph glyph-name="dieresis" unicode="&#xa8;" horiz-adv-x="292" 
d="M13 657q0 -24 -15 -40t-39 -16q-23 0 -38.5 15t-15.5 39q0 23 15.5 38.5t39.5 15.5q22 0 37 -14.5t16 -37.5zM198 657q1 -24 -14 -40t-40 -16q-23 0 -38 15t-15 39q0 23 15 38.5t39 15.5q23 0 37.5 -14.5t15.5 -37.5z" />
    <glyph glyph-name="copyright" unicode="&#xa9;" horiz-adv-x="833" 
d="M773 351q0 -16 -3 -41.5t-12 -57t-26 -66.5t-47 -69q-51 -58 -120.5 -89t-147.5 -31q-76 0 -145 30t-120 86q-32 34 -50 70t-27 68.5t-11.5 59t-2.5 43.5q0 44 8.5 80.5t21 65t26.5 49t25 33.5q14 16 37.5 38t57.5 41.5t79 33.5t102 14q14 0 37 -2t51.5 -8.5t60 -20.5
t63.5 -38q18 -13 42.5 -37t47 -60t38 -84t15.5 -108zM740 352q0 13 -1.5 34.5t-8 47.5t-19.5 55.5t-35 59.5q-12 16 -33.5 38t-53 42t-74.5 34t-97 14q-13 0 -33.5 -1.5t-46 -8t-54.5 -19t-58 -33.5q-16 -12 -39 -33.5t-44 -54t-35.5 -76t-14.5 -98.5q0 -65 24 -123
q18 -46 49 -83t70.5 -63.5t85.5 -40.5t96 -14q25 0 52 4.5t51 12.5q50 16 90 46.5t68.5 71t44.5 88.5t16 100zM567 455q-7 8 -18.5 21t-29 25t-41 20.5t-54.5 8.5q-34 0 -66.5 -13t-56.5 -38q-6 -6 -15 -17t-16.5 -26.5t-13 -36t-5.5 -44.5q0 -34 12 -64q19 -51 63 -81
t98 -30q42 0 70 14.5t39 23.5q9 7 15 13.5t19 21.5l42 -36l-6 -8t-7 -8q-8 -9 -23 -22.5t-37 -25.5t-50.5 -21t-64.5 -9q-13 0 -38 3t-57 17q-64 29 -98.5 85t-34.5 125q0 49 17.5 92t48.5 74.5t73 49.5t92 18q12 0 31 -2t40.5 -9t45.5 -20.5t47 -36.5q6 -6 11.5 -12.5
t10.5 -12.5z" />
    <glyph glyph-name="guillemotleft" unicode="&#xab;" horiz-adv-x="396" 
d="M263 267l116 -117h-83l-116 117l116 116h83zM100 267l114 -117h-80l-117 117l117 116h80z" />
    <glyph glyph-name="logicalnot" unicode="&#xac;" horiz-adv-x="667" 
d="M0 262v59h667v-321h-60v262h-607z" />
    <glyph glyph-name="minus" unicode="&#xad;" horiz-adv-x="667" 
d="M0 262v59h667v-59h-667z" />
    <glyph glyph-name="registered" unicode="&#xae;" horiz-adv-x="833" 
d="M512 133q-5 10 -8.5 20.5t-6 23.5t-5 29t-5.5 38q-6 40 -16 57t-30 27q-18 8 -34 9.5t-36 1.5h-32v-207h-65v445h137h39t39 -3.5t36.5 -12t31.5 -24.5q6 -8 15.5 -26t9.5 -45q0 -22 -6.5 -38t-15.5 -27t-18.5 -18t-16.5 -11q-7 -3 -17 -6.5t-25 -6.5q8 -3 16 -6.5
t16 -9.5q26 -20 32.5 -50.5t11.5 -60.5q2 -10 7.5 -39.5t20.5 -60.5zM415 391h9.5t19.5 1t23.5 4.5t22.5 9.5q8 5 17 18.5t9 36.5q0 11 -3 21.5t-10 19.5q-14 19 -37.5 22t-65.5 3h-60v-136h75zM773 351q0 -16 -2.5 -41.5t-11.5 -56t-26 -64.5t-45 -67q-35 -42 -75 -67
t-77 -37.5t-68.5 -16.5t-50.5 -4q-60 0 -115.5 19t-102.5 54q-17 13 -41 37t-45.5 59t-36.5 82t-15 106q0 44 8.5 80.5t21 65t26.5 49t25 33.5q14 16 37.5 38t57.5 41.5t79 33.5t102 14q85 0 159.5 -36.5t126.5 -106.5q35 -48 52.5 -102t16.5 -113zM741 352q0 13 -1.5 34
t-8 47t-19 55t-34.5 59q-12 16 -33.5 38.5t-53.5 42.5t-75 34.5t-98 14.5q-13 0 -33.5 -1.5t-46 -8t-54.5 -19t-58 -33.5q-16 -12 -39 -33.5t-44 -54t-35.5 -76t-14.5 -98.5q0 -65 24 -123q18 -46 49 -83t70.5 -63.5t85.5 -40.5t96 -14q15 0 43.5 3t65.5 16q49 17 88.5 47.5
t67 70.5t43 87.5t15.5 98.5z" />
    <glyph glyph-name="degree" unicode="&#xb0;" horiz-adv-x="354" 
d="M177 748q31 0 57.5 -11.5t46.5 -31.5t31.5 -47t11.5 -57q0 -8 -2 -23.5t-10 -34.5q-17 -41 -54 -65t-81 -24q-31 0 -57.5 11.5t-46.5 31.5t-31.5 47t-11.5 57t11.5 57t31.5 47t47 31.5t57 11.5zM176 688q-35 -1 -60.5 -26t-25.5 -62q0 -18 7 -33.5t18.5 -27t27.5 -18.5
t34 -7q37 0 61.5 25.5t24.5 61.5q0 37 -25 62t-62 25z" />
    <glyph glyph-name="plusminus" unicode="&#xb1;" horiz-adv-x="667" 
d="M305 123v256h-264v59h264v256h59v-256h262v-59h-262v-256h-59zM41 0v59h585v-59h-585z" />
    <glyph glyph-name="acute" unicode="&#xb4;" horiz-adv-x="292" 
d="M23 568l-24 19l103 151h108z" />
    <glyph glyph-name="mu" unicode="&#xb5;" 
d="M531 138q2 -6 7.5 -25t5.5 -41q0 -15 -3.5 -30t-11 -27t-20 -19t-30.5 -7q-12 0 -25 4.5t-25 14.5t-22.5 27t-17.5 41q-2 -4 -12.5 -17.5t-22.5 -25.5q-22 -22 -51 -35t-61 -13q-22 0 -39.5 6.5t-30.5 15.5t-22 18t-13 14q-5 5 -7 8t-7 12q-1 -16 -1.5 -49.5t10.5 -78.5
q1 -3 4.5 -17t8.5 -26q4 -9 6.5 -14.5t10.5 -19.5q16 -28 26.5 -44t10.5 -32q0 -17 -10.5 -28t-27.5 -11q-23 0 -38 17.5t-26 55.5q-10 36 -13 69.5t-3 70.5q0 21 2 68t10 104q-3 21 -6 41.5t-5 40.5q-2 23 -3.5 46.5t-3.5 46.5q-1 17 -1.5 34.5t-0.5 34.5q0 39 6 57
q6 22 17.5 29.5t22.5 7.5q3 0 9 -1.5t11 -6.5q8 -7 12 -17t5.5 -19.5t1.5 -16.5v-8q0 -20 -1.5 -40t-3.5 -40q-3 -23 -6 -47l-6 -48q-2 -23 -4.5 -46t-7.5 -46q5 -11 9 -21t12 -21q14 -20 35 -33t47 -13q17 0 28.5 4t16.5 7q19 10 33 26.5t22.5 33t13 30t5.5 18.5
q6 23 10.5 66t3.5 103q0 12 -0.5 24t-0.5 24q0 1 0.5 18t2.5 30q0 3 2 9.5t6 13t11.5 12t19.5 5.5q18 0 27.5 -10.5t14 -25t5.5 -30t1 -27.5q0 -9 -1 -37t-5.5 -65t-14 -78.5t-27.5 -78.5q6 -19 17.5 -31t16.5 -15q3 -2 8.5 -4t14.5 -2q23 0 35 18q2 3 3.5 7t3.5 12
q1 5 1.5 9.5t0.5 12.5v8.5t-2 11.5z" />
    <glyph glyph-name="paragraph" unicode="&#xb6;" horiz-adv-x="667" 
d="M531 662h-33v-829h-46v829h-157v-829h-46v498q-6 1 -19.5 3t-28.5 7q-57 21 -84 68t-27 104q0 9 1 26t9 39q14 43 45.5 73t74.5 44q22 7 44.5 9t45.5 2h221v-44z" />
    <glyph glyph-name="periodcentered" unicode="&#xb7;" horiz-adv-x="187" 
d="M92 230q-8 0 -14.5 1.5t-8.5 3.5q-16 7 -25.5 22.5t-9.5 32.5q0 25 18 42t42 17q4 0 9.5 -0.5t12.5 -3.5q17 -7 27 -22.5t10 -33.5q0 -25 -18 -42.5t-43 -16.5z" />
    <glyph glyph-name="periodcentered" unicode="&#x2219;" horiz-adv-x="187" 
d="M92 230q-8 0 -14.5 1.5t-8.5 3.5q-16 7 -25.5 22.5t-9.5 32.5q0 25 18 42t42 17q4 0 9.5 -0.5t12.5 -3.5q17 -7 27 -22.5t10 -33.5q0 -25 -18 -42.5t-43 -16.5z" />
    <glyph glyph-name="cedilla" unicode="&#xb8;" horiz-adv-x="292" 
d="M96 -39q5 0 12 -0.5t18 -2.5q6 -2 16.5 -6.5t20.5 -13t17 -22t7 -33.5q0 -8 -2.5 -21t-14.5 -28q-19 -25 -49.5 -33t-59.5 -8q-11 0 -33 1.5t-51 8.5l8 33q16 -3 28.5 -5t27.5 -2q23 0 36.5 5.5t19.5 13.5q7 8 8.5 15t1.5 10q-1 3 -1.5 9t-5.5 13q-11 14 -30.5 16.5
t-34.5 2.5v92h61v-45z" />
    <glyph glyph-name="guillemotright" unicode="&#xbb;" horiz-adv-x="396" 
d="M133 266l-116 117h82l117 -117l-117 -116h-82zM296 266l-114 117h80l117 -117l-116 -116h-81z" />
    <glyph glyph-name="questiondown" unicode="&#xbf;" horiz-adv-x="500" 
d="M273 517q2 -8 6.5 -35t4.5 -56q0 -14 -1.5 -27.5t-5.5 -26.5q-6 -21 -16 -37.5t-20.5 -29.5t-20 -21.5t-14.5 -12.5l-19 -17q-5 -4 -9 -8l-9 -9q-25 -25 -31 -45t-6 -35q0 -10 2 -19.5t5 -18.5q14 -35 46 -51t68 -16q45 0 81 22.5t61 58.5q4 6 7.5 11.5t7 12.5t7.5 15.5
t9 21.5l28 -6l-4 -32t-12 -49q-7 -19 -21 -41.5t-37.5 -41.5t-58.5 -32t-84 -13q-9 0 -30 1.5t-46 9t-51.5 23t-46.5 44.5q-8 10 -18.5 33.5t-10.5 58.5q0 6 1.5 20.5t6.5 31.5q11 35 29 55.5t44 42.5l18 15q13 11 24 20t23 21q35 36 47 75t17 87h29zM206 668q0 3 0.5 9
t2.5 13q5 14 19 22.5t29 8.5q21 0 37 -14.5t15 -37.5q0 -23 -14.5 -37t-37.5 -14t-36.5 13.5t-14.5 36.5z" />
    <glyph glyph-name="Agrave" unicode="&#xc0;" horiz-adv-x="688" 
d="M584 0l-91 201h-316l-91 -201h-86l331 706h28l329 -706h-104zM358 499q-5 10 -7.5 17.5t-5 14t-4 14t-4.5 18.5q-2 -8 -3.5 -13.5t-3.5 -11.5t-5 -14t-9 -20l-111 -242h260zM182 916h108l104 -153l-23 -20z" />
    <glyph glyph-name="Aacute" unicode="&#xc1;" horiz-adv-x="688" 
d="M584 0l-91 201h-316l-91 -201h-86l331 706h28l329 -706h-104zM358 499q-5 10 -7.5 17.5t-5 14t-4 14t-4.5 18.5q-2 -8 -3.5 -13.5t-3.5 -11.5t-5 -14t-9 -20l-111 -242h260zM315 744l-24 20l102 151h108z" />
    <glyph glyph-name="Acircumflex" unicode="&#xc2;" horiz-adv-x="688" 
d="M584 0l-91 201h-316l-91 -201h-86l331 706h28l329 -706h-104zM358 499q-5 10 -7.5 17.5t-5 14t-4 14t-4.5 18.5q-2 -8 -3.5 -13.5t-3.5 -11.5t-5 -14t-9 -20l-111 -242h260zM464 740l-119 114l-122 -114l-22 21l105 156h75l106 -156z" />
    <glyph glyph-name="Atilde" unicode="&#xc3;" horiz-adv-x="688" 
d="M584 0l-91 201h-316l-91 -201h-86l331 706h28l329 -706h-104zM358 499q-5 10 -7.5 17.5t-5 14t-4 14t-4.5 18.5q-2 -8 -3.5 -13.5t-3.5 -11.5t-5 -14t-9 -20l-111 -242h260zM326 796q-25 8 -36.5 10.5t-25.5 2.5q-13 -1 -25.5 -4t-29.5 -21l-22 17q3 7 9.5 18t18 22
t28 19t40.5 8q16 0 32.5 -3.5t31.5 -6.5l11 -3q13 -4 21 -6.5t15 -4t13 -2t14 -0.5q19 0 31 6t26 19l21 -20q-4 -8 -11 -19t-19 -21.5t-29 -18t-41 -7.5q-11 0 -23 2t-35 8z" />
    <glyph glyph-name="Adieresis" unicode="&#xc4;" horiz-adv-x="688" 
d="M306 833q0 -23 -14.5 -39t-39.5 -16q-23 0 -38.5 15t-15.5 38q0 24 15.5 39t39.5 15q23 0 37.5 -14.5t15.5 -37.5zM491 833q1 -23 -14 -39t-40 -16q-22 0 -37.5 15t-15.5 38q0 24 15 39t39 15q23 0 37.5 -14.5t15.5 -37.5zM584 0l-91 201h-316l-91 -201h-86l331 706h28
l329 -706h-104zM358 499q-5 10 -7.5 17.5t-5 14t-4 14t-4.5 18.5q-2 -8 -3.5 -13.5t-3.5 -11.5t-5 -14t-9 -20l-111 -242h260z" />
    <glyph glyph-name="Aring" unicode="&#xc5;" horiz-adv-x="688" 
d="M419 824q0 -33 -22 -54t-54 -21q-31 0 -52.5 21t-21.5 53t21.5 54t54.5 22q32 0 53 -21.5t21 -53.5zM385 826q-1 17 -12 28t-28 11q-18 0 -29.5 -11.5t-11.5 -29.5q0 -17 12 -28.5t29 -11.5q17 1 28.5 12.5t11.5 29.5zM584 0l-91 201h-316l-91 -201h-86l331 706h28
l329 -706h-104zM358 499q-5 10 -7.5 17.5t-5 14t-4 14t-4.5 18.5q-2 -8 -3.5 -13.5t-3.5 -11.5t-5 -14t-9 -20l-111 -242h260z" />
    <glyph glyph-name="AE" unicode="&#xc6;" horiz-adv-x="938" 
d="M930 0h-471v204h-252l-118 -204h-89l413 706h476v-59h-334v-246h291v-62h-291v-277h375v-62zM459 651l-219 -387h219v387z" />
    <glyph glyph-name="Ccedilla" unicode="&#xc7;" horiz-adv-x="667" 
d="M396 -40q19 -1 37 -7q6 -3 15.5 -8t18.5 -14.5t15.5 -23.5t6.5 -34q0 -8 -3 -23t-16 -31q-14 -17 -33 -26t-36.5 -13t-31.5 -4h-18q-9 0 -17.5 0.5t-17.5 2t-20.5 4t-27.5 7.5l7 35q8 -2 26 -4.5t41 -2.5q36 0 50 15t14 32q0 8 -2 14t-4 9q-10 17 -30.5 20.5t-36.5 4.5
l-1 71q-18 2 -29 4t-19 4q-13 3 -33.5 11t-44.5 22t-49 36t-46 53q-35 51 -51.5 113.5t-16.5 123.5q0 15 2 43.5t10.5 64t25.5 75t47 76.5q14 17 36.5 37.5t55 38t75.5 29.5t98 12q47 0 84 -10t64 -25t46 -33t30 -34q18 -27 25 -50t9 -35l-26 -12q-11 16 -21 29.5t-23 27.5
q-10 10 -26 23t-38 24t-51 18.5t-65 7.5q-11 0 -28.5 -1t-39.5 -6.5t-46 -16.5t-47 -31q-35 -30 -54.5 -68t-28.5 -74t-11 -65t-2 -40q0 -14 2 -45.5t13 -68.5q12 -43 34.5 -78.5t54 -61t70.5 -39.5t85 -14q16 0 39.5 3t50.5 13t56 29t56 51q7 8 13 16.5t12 16.5l27 -11
q-3 -10 -8 -24t-16 -34q-6 -10 -17 -25.5t-28 -32t-41.5 -32t-55.5 -25.5q-31 -9 -58.5 -11t-37.5 -2z" />
    <glyph glyph-name="Egrave" unicode="&#xc8;" 
d="M555 0h-477v706h432v-61h-336v-246h297v-61h-297v-277h381v-61zM120 916h107l104 -153l-22 -20z" />
    <glyph glyph-name="Eacute" unicode="&#xc9;" 
d="M555 0h-477v706h432v-61h-336v-246h297v-61h-297v-277h381v-61zM273 744l-24 20l103 151h108z" />
    <glyph glyph-name="Ecircumflex" unicode="&#xca;" 
d="M555 0h-477v706h432v-61h-336v-246h297v-61h-297v-277h381v-61zM422 740l-119 114l-121 -114l-23 21l105 156h75l106 -156z" />
    <glyph glyph-name="Edieresis" unicode="&#xcb;" 
d="M555 0h-477v706h432v-61h-336v-246h297v-61h-297v-277h381v-61zM263 833q0 -23 -15 -39t-39 -16q-23 0 -38.5 15t-15.5 38q0 24 15.5 39t39.5 15q22 0 37 -14.5t16 -37.5zM448 833q1 -23 -14 -39t-40 -16q-22 0 -37.5 15t-15.5 38q0 24 15 39t39 15q23 0 37.5 -14.5
t15.5 -37.5z" />
    <glyph glyph-name="Igrave" unicode="&#xcc;" horiz-adv-x="250" 
d="M77 0v706h96v-706h-96zM-37 916h108l104 -153l-22 -20z" />
    <glyph glyph-name="Iacute" unicode="&#xcd;" horiz-adv-x="250" 
d="M77 0v706h96v-706h-96zM96 744l-24 20l102 151h109z" />
    <glyph glyph-name="Icircumflex" unicode="&#xce;" horiz-adv-x="250" 
d="M77 0v706h96v-706h-96zM245 740l-119 114l-121 -114l-23 21l105 156h75l106 -156z" />
    <glyph glyph-name="Idieresis" unicode="&#xcf;" horiz-adv-x="250" 
d="M77 0v706h96v-706h-96zM86 833q0 -23 -15 -39t-39 -16q-23 0 -38.5 15t-15.5 38q0 24 15.5 39t39.5 15q22 0 37 -14.5t16 -37.5zM271 833q1 -23 -14 -39t-40 -16q-23 0 -38.5 15t-14.5 38q0 24 15 39t39 15q23 0 37.5 -14.5t15.5 -37.5z" />
    <glyph glyph-name="Ntilde" unicode="&#xd1;" horiz-adv-x="750" 
d="M643 -9l-424 503q-16 20 -30 39t-28 39v-572h-83v706h82l368 -438q11 -13 19 -22.5t15 -18.5t14 -19.5t16 -24.5l-5 523h85v-715h-29zM357 796q-25 8 -36 10.5t-26 2.5q-12 -1 -25 -4t-30 -21l-22 17q3 7 10 18t18 22t28 19t40 8q16 0 32.5 -3.5t31.5 -6.5l11 -3
q13 -4 21.5 -6.5t15 -4t12.5 -2t14 -0.5q20 0 32 6t26 19l20 -20q-4 -8 -11 -19t-19 -21.5t-29 -18t-41 -7.5q-11 0 -23 2t-35 8z" />
    <glyph glyph-name="Ograve" unicode="&#xd2;" horiz-adv-x="771" 
d="M728 356q0 -19 -3 -59.5t-20 -90.5q-37 -108 -120 -167.5t-197 -59.5q-53 0 -95 11.5t-74 29t-54 37t-35 34.5q-14 16 -29 39.5t-28 56t-21.5 73.5t-8.5 92q0 15 2 44t10.5 66t26 77t49.5 78q49 57 115 83.5t140 26.5q45 0 80.5 -8t62.5 -20t47 -26t34 -27
q18 -16 38.5 -41.5t38 -61t29.5 -82t12 -105.5zM626 358q0 11 -1.5 38t-10 61.5t-25.5 72t-47 69.5q-8 9 -21.5 20t-32.5 21.5t-44.5 17.5t-57.5 7q-15 0 -49 -5.5t-69 -28.5q-21 -14 -43 -37t-40 -57.5t-29.5 -80t-11.5 -104.5q0 -12 1.5 -42t11 -67.5t29.5 -77t57 -71.5
q31 -26 67.5 -39t76.5 -13q8 0 21 1t29.5 4.5t35 11t36.5 19.5q44 30 67.5 73.5t34.5 86t13 76.5t2 44zM224 916h108l103 -153l-22 -20z" />
    <glyph glyph-name="Oacute" unicode="&#xd3;" horiz-adv-x="771" 
d="M728 356q0 -19 -3 -59.5t-20 -90.5q-37 -108 -120 -167.5t-197 -59.5q-53 0 -95 11.5t-74 29t-54 37t-35 34.5q-14 16 -29 39.5t-28 56t-21.5 73.5t-8.5 92q0 15 2 44t10.5 66t26 77t49.5 78q49 57 115 83.5t140 26.5q45 0 80.5 -8t62.5 -20t47 -26t34 -27
q18 -16 38.5 -41.5t38 -61t29.5 -82t12 -105.5zM626 358q0 11 -1.5 38t-10 61.5t-25.5 72t-47 69.5q-8 9 -21.5 20t-32.5 21.5t-44.5 17.5t-57.5 7q-15 0 -49 -5.5t-69 -28.5q-21 -14 -43 -37t-40 -57.5t-29.5 -80t-11.5 -104.5q0 -12 1.5 -42t11 -67.5t29.5 -77t57 -71.5
q31 -26 67.5 -39t76.5 -13q8 0 21 1t29.5 4.5t35 11t36.5 19.5q44 30 67.5 73.5t34.5 86t13 76.5t2 44zM356 744l-24 20l103 151h108z" />
    <glyph glyph-name="Ocircumflex" unicode="&#xd4;" horiz-adv-x="771" 
d="M728 356q0 -19 -3 -59.5t-20 -90.5q-37 -108 -120 -167.5t-197 -59.5q-53 0 -95 11.5t-74 29t-54 37t-35 34.5q-14 16 -29 39.5t-28 56t-21.5 73.5t-8.5 92q0 15 2 44t10.5 66t26 77t49.5 78q49 57 115 83.5t140 26.5q45 0 80.5 -8t62.5 -20t47 -26t34 -27
q18 -16 38.5 -41.5t38 -61t29.5 -82t12 -105.5zM626 358q0 11 -1.5 38t-10 61.5t-25.5 72t-47 69.5q-8 9 -21.5 20t-32.5 21.5t-44.5 17.5t-57.5 7q-15 0 -49 -5.5t-69 -28.5q-21 -14 -43 -37t-40 -57.5t-29.5 -80t-11.5 -104.5q0 -12 1.5 -42t11 -67.5t29.5 -77t57 -71.5
q31 -26 67.5 -39t76.5 -13q8 0 21 1t29.5 4.5t35 11t36.5 19.5q44 30 67.5 73.5t34.5 86t13 76.5t2 44zM505 740l-119 114l-121 -114l-23 21l105 156h76l105 -156z" />
    <glyph glyph-name="Otilde" unicode="&#xd5;" horiz-adv-x="771" 
d="M728 356q0 -19 -3 -59.5t-20 -90.5q-37 -108 -120 -167.5t-197 -59.5q-53 0 -95 11.5t-74 29t-54 37t-35 34.5q-14 16 -29 39.5t-28 56t-21.5 73.5t-8.5 92q0 15 2 44t10.5 66t26 77t49.5 78q49 57 115 83.5t140 26.5q45 0 80.5 -8t62.5 -20t47 -26t34 -27
q18 -16 38.5 -41.5t38 -61t29.5 -82t12 -105.5zM626 358q0 11 -1.5 38t-10 61.5t-25.5 72t-47 69.5q-8 9 -21.5 20t-32.5 21.5t-44.5 17.5t-57.5 7q-15 0 -49 -5.5t-69 -28.5q-21 -14 -43 -37t-40 -57.5t-29.5 -80t-11.5 -104.5q0 -12 1.5 -42t11 -67.5t29.5 -77t57 -71.5
q31 -26 67.5 -39t76.5 -13q8 0 21 1t29.5 4.5t35 11t36.5 19.5q44 30 67.5 73.5t34.5 86t13 76.5t2 44zM368 796q-25 8 -36.5 10.5t-25.5 2.5q-13 -1 -25.5 -4t-29.5 -21l-23 17q3 7 10 18t18.5 22t28 19t40.5 8q16 0 32.5 -3.5t30.5 -6.5l11 -3q13 -4 21.5 -6.5t15 -4
t12.5 -2t14 -0.5q20 0 32 6t26 19l21 -20q-4 -8 -11 -19t-19 -21.5t-29 -18t-41 -7.5q-11 0 -23.5 2t-34.5 8z" />
    <glyph glyph-name="Odieresis" unicode="&#xd6;" horiz-adv-x="771" 
d="M346 833q1 -23 -14 -39t-39 -16q-4 0 -8.5 0.5t-12.5 3.5q-11 4 -17.5 11t-10 14.5t-4.5 14t-1 10.5q0 9 2 15t4 9q14 29 48 29q23 0 38 -14.5t15 -37.5zM532 833q1 -23 -14.5 -39t-39.5 -16q-4 0 -8.5 0.5t-12.5 3.5q-11 4 -17.5 11t-10 14.5t-4.5 14t-1 10.5q0 9 2 15
t4 9q14 29 49 29q23 0 37.5 -14.5t15.5 -37.5zM728 356q0 -19 -3 -59.5t-20 -90.5q-37 -108 -120 -167.5t-197 -59.5q-53 0 -95 11.5t-74 29t-54 37t-35 34.5q-14 16 -29 39.5t-28 56t-21.5 73.5t-8.5 92q0 15 2 44t10.5 66t26 77t49.5 78q49 57 115 83.5t140 26.5
q45 0 80.5 -8t62.5 -20t47 -26t34 -27q18 -16 38.5 -41.5t38 -61t29.5 -82t12 -105.5zM626 358q0 11 -1.5 38t-10 61.5t-25.5 72t-47 69.5q-8 9 -21.5 20t-32.5 21.5t-44.5 17.5t-57.5 7q-15 0 -49 -5.5t-69 -28.5q-21 -14 -43 -37t-40 -57.5t-29.5 -80t-11.5 -104.5
q0 -12 1.5 -42t11 -67.5t29.5 -77t57 -71.5q31 -26 67.5 -39t76.5 -13q8 0 21 1t29.5 4.5t35 11t36.5 19.5q44 30 67.5 73.5t34.5 86t13 76.5t2 44z" />
    <glyph glyph-name="multiply" unicode="&#xd7;" horiz-adv-x="667" 
d="M333 249l-207 -207l-42 41l207 208l-207 206l42 42l207 -207l208 207l41 -42l-207 -206l207 -208l-41 -41z" />
    <glyph glyph-name="Oslash" unicode="&#xd8;" horiz-adv-x="771" 
d="M647 608q14 -17 28.5 -40t26 -53.5t19 -70t7.5 -90.5q0 -47 -6.5 -84.5t-17 -66.5t-22.5 -51t-24 -38q-13 -18 -35 -41t-55.5 -44t-78.5 -35.5t-103 -14.5q-38 0 -69.5 6.5t-57 16t-44 20.5t-30.5 19q-9 6 -15 11t-20 17l-97 -105l-29 28l99 108q-6 8 -11.5 15t-10.5 15
q-9 13 -19 33.5t-18.5 48t-14.5 61.5t-6 75q0 77 23 146t67 120.5t108.5 82t147.5 30.5q38 0 69.5 -6.5t56.5 -16t43.5 -20t30.5 -19.5q17 -12 31 -25l87 95l29 -29zM205 130q2 -4 13 -16t23 -23q29 -26 69.5 -38.5t78.5 -12.5q12 0 31.5 2t42.5 9.5t47 23t46 41.5
q12 14 25 36t23.5 51t17.5 66t7 82q0 7 -0.5 23t-3 37t-7.5 45t-14 48q-5 14 -9.5 23l-7.5 15zM565 580q-5 5 -12.5 14.5t-21.5 20.5q-30 26 -67.5 38.5t-77.5 12.5q-41 0 -71.5 -10.5t-52.5 -26t-36.5 -32.5t-23.5 -30q-11 -16 -21.5 -36.5t-19 -47.5t-13.5 -61t-5 -77
q0 -51 9 -93t32 -88z" />
    <glyph glyph-name="Ugrave" unicode="&#xd9;" horiz-adv-x="729" 
d="M555 0v104l-10 -12l-10 -12q-31 -35 -62.5 -55.5t-61 -30.5t-55 -12.5t-43.5 -2.5q-36 0 -71.5 7.5t-66.5 24t-55 42.5t-36 62q-8 25 -9.5 49.5t-2.5 50.5v491h96v-448q0 -14 0.5 -28t1.5 -28q3 -42 15.5 -73t50.5 -54q32 -20 61 -24t41 -4q16 0 36.5 3t44 11.5t49.5 24
t54 39.5q5 4 8.5 7t6.5 6l7 7t11 12v549h96v-706h-96zM203 916h108l104 -153l-23 -20z" />
    <glyph glyph-name="Uacute" unicode="&#xda;" horiz-adv-x="729" 
d="M555 0v104l-10 -12l-10 -12q-31 -35 -62.5 -55.5t-61 -30.5t-55 -12.5t-43.5 -2.5q-36 0 -71.5 7.5t-66.5 24t-55 42.5t-36 62q-8 25 -9.5 49.5t-2.5 50.5v491h96v-448q0 -14 0.5 -28t1.5 -28q3 -42 15.5 -73t50.5 -54q32 -20 61 -24t41 -4q16 0 36.5 3t44 11.5t49.5 24
t54 39.5q5 4 8.5 7t6.5 6l7 7t11 12v549h96v-706h-96zM335 744l-23 20l102 151h108z" />
    <glyph glyph-name="Ucircumflex" unicode="&#xdb;" horiz-adv-x="729" 
d="M555 0v104l-10 -12l-10 -12q-31 -35 -62.5 -55.5t-61 -30.5t-55 -12.5t-43.5 -2.5q-36 0 -71.5 7.5t-66.5 24t-55 42.5t-36 62q-8 25 -9.5 49.5t-2.5 50.5v491h96v-448q0 -14 0.5 -28t1.5 -28q3 -42 15.5 -73t50.5 -54q32 -20 61 -24t41 -4q16 0 36.5 3t44 11.5t49.5 24
t54 39.5q5 4 8.5 7t6.5 6l7 7t11 12v549h96v-706h-96zM484 740l-118 114l-122 -114l-22 21l104 156h76l105 -156z" />
    <glyph glyph-name="Udieresis" unicode="&#xdc;" horiz-adv-x="729" 
d="M325 833q0 -23 -14.5 -39t-39.5 -16q-23 0 -38.5 15t-14.5 38q0 24 15 39t39 15q7 0 12 -1t7 -2q9 -3 21 -13.5t13 -35.5zM510 833q1 -23 -14 -39t-39 -16q-23 0 -38.5 15t-15.5 38q0 24 15.5 39t38.5 15q7 0 12.5 -1t7.5 -2q8 -3 20 -13.5t13 -35.5zM555 0v104l-10 -12
l-10 -12q-31 -35 -62.5 -55.5t-61 -30.5t-55 -12.5t-43.5 -2.5q-36 0 -71.5 7.5t-66.5 24t-55 42.5t-36 62q-8 25 -9.5 49.5t-2.5 50.5v491h96v-448q0 -14 0.5 -28t1.5 -28q3 -42 15.5 -73t50.5 -54q32 -20 61 -24t41 -4q16 0 36.5 3t44 11.5t49.5 24t54 39.5q5 4 8.5 7
t6.5 6l7 7t11 12v549h96v-706h-96z" />
    <glyph glyph-name="germandbls" unicode="&#xdf;" 
d="M69 0v477v16t1.5 28.5t4 34.5t8.5 35q12 35 34 60.5t50.5 42.5t62.5 25t69 8q31 0 55.5 -6t43 -15t31.5 -20.5t21 -21.5q8 -9 17.5 -29t9.5 -50q0 -14 -6.5 -40.5t-30.5 -55.5q-15 -18 -33.5 -32t-36 -24t-31 -16.5t-18.5 -8.5q10 -3 25 -7t33 -12t38 -20.5t40 -31.5
q26 -24 41.5 -48.5t23.5 -47t10 -41.5t2 -34q0 -8 -1.5 -27t-9.5 -42q-20 -54 -66.5 -86t-103.5 -32q-8 0 -22 1.5t-30.5 6.5t-34 15t-33.5 27q-8 8 -14 15.5t-11 17.5l20 18q4 -4 13 -11.5t21.5 -14.5t29 -12.5t36.5 -5.5q15 0 26 3t17 5q38 16 55 53t16 75q0 14 -3 38.5
t-19 55.5q-13 27 -31.5 47t-41.5 34t-49 23t-54 16v29q8 2 22 7t32 16q34 20 58.5 55.5t24.5 77.5q0 10 -2 18.5t-3 11.5q-2 8 -8 20t-16.5 23t-27.5 19t-42 8q-21 0 -40 -7t-34 -21q-16 -15 -25 -33.5t-14 -43t-6.5 -56t-1.5 -71.5v-439h-92z" />
    <glyph glyph-name="agrave" unicode="&#xe0;" horiz-adv-x="521" 
d="M370 0v59q-6 -8 -15.5 -20t-29.5 -26q-26 -18 -53.5 -26t-59.5 -8q-9 0 -28.5 1.5t-42.5 9t-46 23t-40 43.5q-6 10 -14.5 31t-8.5 51q0 12 4 36.5t21 51.5q15 25 37.5 43t48.5 29t54.5 16t57.5 5q18 0 36.5 -2t34.5 -4t28 -4t16 -3q0 28 -2.5 53t-19.5 50
q-18 28 -45.5 39.5t-59.5 11.5q-36 0 -68.5 -13t-57.5 -38q-13 -14 -19 -23.5t-11 -16.5l-26 10q2 8 8 25.5t18 37.5q9 14 23.5 29.5t36 28.5t51 21.5t68.5 8.5q8 0 25.5 -1t39.5 -7q11 -3 27.5 -10t34 -20.5t33 -34t24.5 -51.5q3 -10 4.5 -19.5t2.5 -21t1.5 -25.5t0.5 -34
v-306h-89zM370 246q-11 3 -38.5 8.5t-62.5 5.5q-22 0 -37.5 -3t-23.5 -6q-35 -12 -57.5 -40t-22.5 -66q1 -49 34.5 -77t79.5 -28q18 0 34.5 4t29 10t21.5 12t14 10q11 9 18 15.5t11 11.5v143zM104 739h108l104 -153l-23 -19z" />
    <glyph glyph-name="aacute" unicode="&#xe1;" horiz-adv-x="521" 
d="M370 0v59q-6 -8 -15.5 -20t-29.5 -26q-26 -18 -53.5 -26t-59.5 -8q-9 0 -28.5 1.5t-42.5 9t-46 23t-40 43.5q-6 10 -14.5 31t-8.5 51q0 12 4 36.5t21 51.5q15 25 37.5 43t48.5 29t54.5 16t57.5 5q18 0 36.5 -2t34.5 -4t28 -4t16 -3q0 28 -2.5 53t-19.5 50
q-18 28 -45.5 39.5t-59.5 11.5q-36 0 -68.5 -13t-57.5 -38q-13 -14 -19 -23.5t-11 -16.5l-26 10q2 8 8 25.5t18 37.5q9 14 23.5 29.5t36 28.5t51 21.5t68.5 8.5q8 0 25.5 -1t39.5 -7q11 -3 27.5 -10t34 -20.5t33 -34t24.5 -51.5q3 -10 4.5 -19.5t2.5 -21t1.5 -25.5t0.5 -34
v-306h-89zM370 246q-11 3 -38.5 8.5t-62.5 5.5q-22 0 -37.5 -3t-23.5 -6q-35 -12 -57.5 -40t-22.5 -66q1 -49 34.5 -77t79.5 -28q18 0 34.5 4t29 10t21.5 12t14 10q11 9 18 15.5t11 11.5v143zM237 568l-24 19l102 151h108z" />
    <glyph glyph-name="acircumflex" unicode="&#xe2;" horiz-adv-x="521" 
d="M370 0v59q-6 -8 -15.5 -20t-29.5 -26q-26 -18 -53.5 -26t-59.5 -8q-9 0 -28.5 1.5t-42.5 9t-46 23t-40 43.5q-6 10 -14.5 31t-8.5 51q0 12 4 36.5t21 51.5q15 25 37.5 43t48.5 29t54.5 16t57.5 5q18 0 36.5 -2t34.5 -4t28 -4t16 -3q0 28 -2.5 53t-19.5 50
q-18 28 -45.5 39.5t-59.5 11.5q-36 0 -68.5 -13t-57.5 -38q-13 -14 -19 -23.5t-11 -16.5l-26 10q2 8 8 25.5t18 37.5q9 14 23.5 29.5t36 28.5t51 21.5t68.5 8.5q8 0 25.5 -1t39.5 -7q11 -3 27.5 -10t34 -20.5t33 -34t24.5 -51.5q3 -10 4.5 -19.5t2.5 -21t1.5 -25.5t0.5 -34
v-306h-89zM370 246q-11 3 -38.5 8.5t-62.5 5.5q-22 0 -37.5 -3t-23.5 -6q-35 -12 -57.5 -40t-22.5 -66q1 -49 34.5 -77t79.5 -28q18 0 34.5 4t29 10t21.5 12t14 10q11 9 18 15.5t11 11.5v143zM385 563l-118 114l-122 -114l-22 21l104 157h76l105 -157z" />
    <glyph glyph-name="atilde" unicode="&#xe3;" horiz-adv-x="521" 
d="M370 0v59q-6 -8 -15.5 -20t-29.5 -26q-26 -18 -53.5 -26t-59.5 -8q-9 0 -28.5 1.5t-42.5 9t-46 23t-40 43.5q-6 10 -14.5 31t-8.5 51q0 12 4 36.5t21 51.5q15 25 37.5 43t48.5 29t54.5 16t57.5 5q18 0 36.5 -2t34.5 -4t28 -4t16 -3q0 28 -2.5 53t-19.5 50
q-18 28 -45.5 39.5t-59.5 11.5q-36 0 -68.5 -13t-57.5 -38q-13 -14 -19 -23.5t-11 -16.5l-26 10q2 8 8 25.5t18 37.5q9 14 23.5 29.5t36 28.5t51 21.5t68.5 8.5q8 0 25.5 -1t39.5 -7q11 -3 27.5 -10t34 -20.5t33 -34t24.5 -51.5q3 -10 4.5 -19.5t2.5 -21t1.5 -25.5t0.5 -34
v-306h-89zM370 246q-11 3 -38.5 8.5t-62.5 5.5q-22 0 -37.5 -3t-23.5 -6q-35 -12 -57.5 -40t-22.5 -66q1 -49 34.5 -77t79.5 -28q18 0 34.5 4t29 10t21.5 12t14 10q11 9 18 15.5t11 11.5v143zM248 619q-25 8 -36.5 10.5t-25.5 2.5q-13 0 -25.5 -3.5t-29.5 -21.5l-23 17
q3 7 10 18.5t18.5 22.5t28 19t40.5 8q16 0 32.5 -3.5t31.5 -7.5l10 -3q13 -3 21.5 -5.5t15 -4t12.5 -2.5t14 -1q20 0 32 6t26 19l21 -20q-4 -8 -11 -19t-19 -21.5t-29 -18t-41 -7.5q-11 0 -23 2.5t-35 8.5z" />
    <glyph glyph-name="adieresis" unicode="&#xe4;" horiz-adv-x="521" 
d="M223 657q1 -24 -14 -40t-39 -16q-23 0 -38.5 15.5t-15.5 38.5t15.5 38.5t38.5 15.5t38 -14.5t15 -37.5zM409 657q1 -24 -14.5 -40t-39.5 -16q-23 0 -38.5 15.5t-15.5 38.5q1 23 16.5 38.5t38.5 15.5t37.5 -14.5t15.5 -37.5zM370 0v59q-5 -6 -13 -16.5t-23 -22.5
q-16 -13 -44 -27t-78 -14q-9 0 -28 1.5t-42.5 9t-47 23.5t-40.5 44q-16 26 -19 48.5t-3 33.5q0 8 1.5 21t6.5 29t14.5 33t25.5 34q22 23 49 36t52 19t45 7t28 1q18 0 46.5 -2.5t69.5 -10.5q0 28 -2.5 53.5t-19.5 50.5q-12 18 -27 28.5t-30 15t-28 5.5t-20 1q-9 0 -23.5 -1.5
t-31.5 -6.5t-35.5 -15t-35.5 -28q-13 -14 -19 -23.5t-11 -16.5l-26 10q2 8 7.5 26t18.5 38q9 14 23.5 29.5t36 28t50.5 21t68 8.5q46 0 79 -12.5t54.5 -31t34 -40t17.5 -40.5q6 -22 7 -49.5t2 -50.5v-306h-89zM370 246q-11 3 -38.5 8.5t-62.5 5.5q-6 0 -24 -1t-38 -8
q-8 -3 -21 -10t-26 -19.5t-22.5 -31.5t-9.5 -45q1 -49 34.5 -77t79.5 -28q28 0 54 10t47 27q7 5 14.5 12.5t12.5 13.5v143z" />
    <glyph glyph-name="aring" unicode="&#xe5;" horiz-adv-x="521" 
d="M337 647q0 -33 -21.5 -54t-55.5 -21q-31 1 -52 21t-21 52q0 4 1 12.5t5 18.5q8 21 27.5 34t42.5 13q32 -1 53 -22.5t21 -53.5zM302 649q0 17 -11.5 28.5t-28.5 11.5q-13 0 -20.5 -5t-12 -12t-6 -14t-1.5 -10q0 -2 1 -7.5t3 -10.5q10 -22 37 -22q17 0 28.5 11.5t10.5 29.5
zM370 0v59q-5 -6 -13 -16.5t-23 -22.5q-16 -13 -44 -27t-78 -14q-9 0 -28 1.5t-42.5 9t-47 23.5t-40.5 44q-16 26 -19 48.5t-3 33.5q0 8 1.5 21t6.5 29t14.5 33t25.5 34q22 23 49 36t52 19t45 7t28 1q18 0 46.5 -2.5t69.5 -10.5q0 28 -2.5 53.5t-19.5 50.5q-12 18 -27 28.5
t-30 15t-28 5.5t-20 1q-9 0 -23.5 -1.5t-31.5 -6.5t-35.5 -15t-35.5 -28q-13 -14 -19 -23.5t-11 -16.5l-26 10q2 8 7.5 26t18.5 38q9 14 23.5 29.5t36 28t50.5 21t68 8.5q46 0 79 -12.5t54.5 -31t34 -40t17.5 -40.5q6 -22 7 -49.5t2 -50.5v-306h-89zM370 246
q-11 3 -38.5 8.5t-62.5 5.5q-6 0 -24 -1t-38 -8q-8 -3 -21 -10t-26 -19.5t-22.5 -31.5t-9.5 -45q1 -49 34.5 -77t79.5 -28q28 0 54 10t47 27q7 5 14.5 12.5t12.5 13.5v143z" />
    <glyph glyph-name="ae" unicode="&#xe6;" horiz-adv-x="875" 
d="M371 310q-2 28 -3.5 42t-6.5 27q-4 10 -12.5 24.5t-23.5 27t-36.5 21.5t-51.5 9q-15 0 -38 -4t-52 -23q-5 -3 -16.5 -12.5t-22.5 -20.5q-8 -8 -12.5 -14.5t-10.5 -15.5l-24 10q2 5 4.5 17.5t8.5 26.5q7 16 21.5 34t37.5 34t55 26.5t74 10.5q33 0 62.5 -7.5t56.5 -25.5
q11 -8 20 -16.5t11 -11.5q5 -5 9 -11t10 -17q1 1 8.5 10t15.5 17q23 22 47.5 34.5t46.5 18.5t40.5 7.5t29.5 1.5q55 0 97.5 -20.5t71.5 -55t44 -80.5t15 -97v-23h-380q1 -31 6 -58t19 -55q3 -8 9 -18.5t16 -21.5t24.5 -22t34.5 -20q9 -3 26 -8t41 -5q11 0 28.5 2t40.5 12
q22 9 39 22t29.5 26t20 24.5t12.5 18.5l24 -11q-2 -8 -10 -29.5t-23 -43.5q-31 -45 -80.5 -66.5t-102.5 -21.5q-51 0 -100.5 19.5t-82.5 57.5q-18 22 -32 50q-4 -6 -11.5 -19t-19.5 -28q-22 -28 -45 -44t-45 -24t-41.5 -10t-33.5 -2q-27 0 -43.5 4t-27.5 8q-48 17 -78 56.5
t-29 92.5q0 42 19 77t53 58q32 22 67.5 27.5t72.5 7.5h127zM757 310q-1 7 -1.5 17.5t-4.5 24.5q-11 48 -46 81t-88 33q-13 0 -26.5 -2.5t-24.5 -6.5q-24 -10 -40.5 -25.5t-27 -32t-16.5 -30.5t-8 -21q-2 -8 -3.5 -15t-3.5 -23h290zM270 254q-5 0 -24.5 -1.5t-37.5 -6.5
q-10 -3 -23.5 -9t-26 -17.5t-21.5 -30t-9 -45.5q0 -45 30 -75t75 -30q8 0 23 2.5t34 11.5q20 9 37 22.5t29.5 27t21 25t11.5 16.5q-2 4 -3 7.5t-3 8.5q-5 14 -9 36.5t-4 57.5h-100z" />
    <glyph glyph-name="ccedilla" unicode="&#xe7;" horiz-adv-x="521" 
d="M307 -39q2 0 10.5 -0.5t17.5 -2.5q29 -7 45.5 -26.5t16.5 -48.5t-13 -45t-22 -22q-19 -14 -43.5 -18.5t-47.5 -4.5q-11 0 -33 1.5t-50 8.5l7 33q17 -3 28.5 -5t28.5 -2q5 0 18 1t27 9q20 12 20 34q0 3 -1 9t-5 11q-11 16 -30.5 18.5t-35.5 2.5v68q-15 2 -43 11t-60 32
q-53 40 -74.5 99.5t-21.5 122.5q0 11 1 31.5t6.5 46t17 54.5t32.5 57q10 13 26 29.5t39.5 30.5t55.5 24t74 10q41 0 72 -10t53.5 -25.5t37 -33t22.5 -32.5q6 -12 10 -24.5t9 -37.5l-27 -9q-7 12 -13 22t-15 21q-25 31 -59 47.5t-75 16.5q-25 0 -44.5 -6t-34 -14t-24.5 -17
t-16 -16q-20 -22 -30.5 -45.5t-15 -45t-5.5 -39t-1 -26.5t1.5 -31.5t9.5 -50t25 -55.5t48 -48q10 -7 31.5 -16t53.5 -9q30 0 53.5 8.5t41.5 20.5t29.5 24.5t17.5 19.5q6 8 10 14t12 21l27 -9q-8 -29 -14 -43t-14 -28q-19 -32 -43 -50t-48 -27.5t-44.5 -12.5t-32.5 -4z" />
    <glyph glyph-name="egrave" unicode="&#xe8;" 
d="M141 254q1 -20 3 -37t8 -36q18 -60 62 -96.5t109 -36.5q9 0 24 1.5t33 7t38 15.5t39 27q18 16 28 30.5t15 22.5l25 -10q-5 -15 -10 -29t-13 -28q-9 -15 -24.5 -33.5t-40 -34.5t-58 -27t-78.5 -11q-40 0 -67.5 8t-41.5 14q-22 10 -47.5 28.5t-47.5 48.5t-36.5 72.5
t-14.5 101.5q0 14 2.5 46t16.5 70q29 76 91.5 119t143.5 43q9 0 23 -1t32 -4.5t38 -11.5t41 -22q40 -27 61 -63t29.5 -70.5t9 -63t0.5 -40.5h-393zM445 309q-1 8 -2.5 25.5t-9.5 37.5q-17 43 -53 69t-83 26q-46 -1 -82.5 -26.5t-55.5 -67.5q-6 -13 -10 -25.5t-7 -38.5h303z
M135 739h108l104 -153l-22 -19z" />
    <glyph glyph-name="eacute" unicode="&#xe9;" 
d="M141 254q1 -20 3 -37t8 -36q18 -60 62 -96.5t109 -36.5q9 0 24 1.5t33 7t38 15.5t39 27q18 16 28 30.5t15 22.5l25 -10q-5 -15 -10 -29t-13 -28q-9 -15 -24.5 -33.5t-40 -34.5t-58 -27t-78.5 -11q-40 0 -67.5 8t-41.5 14q-22 10 -47.5 28.5t-47.5 48.5t-36.5 72.5
t-14.5 101.5q0 14 2.5 46t16.5 70q29 76 91.5 119t143.5 43q9 0 23 -1t32 -4.5t38 -11.5t41 -22q40 -27 61 -63t29.5 -70.5t9 -63t0.5 -40.5h-393zM445 309q-1 8 -2.5 25.5t-9.5 37.5q-17 43 -53 69t-83 26q-46 -1 -82.5 -26.5t-55.5 -67.5q-6 -13 -10 -25.5t-7 -38.5h303z
M268 568l-24 19l102 151h108z" />
    <glyph glyph-name="ecircumflex" unicode="&#xea;" 
d="M141 254q1 -20 3 -37t8 -36q18 -60 62 -96.5t109 -36.5q9 0 24 1.5t33 7t38 15.5t39 27q18 16 28 30.5t15 22.5l25 -10q-5 -15 -10 -29t-13 -28q-9 -15 -24.5 -33.5t-40 -34.5t-58 -27t-78.5 -11q-40 0 -67.5 8t-41.5 14q-22 10 -47.5 28.5t-47.5 48.5t-36.5 72.5
t-14.5 101.5q0 14 2.5 46t16.5 70q29 76 91.5 119t143.5 43q9 0 23 -1t32 -4.5t38 -11.5t41 -22q40 -27 61 -63t29.5 -70.5t9 -63t0.5 -40.5h-393zM445 309q-1 8 -2.5 25.5t-9.5 37.5q-17 43 -53 69t-83 26q-46 -1 -82.5 -26.5t-55.5 -67.5q-6 -13 -10 -25.5t-7 -38.5h303z
M417 563l-119 114l-121 -114l-23 21l105 157h75l106 -157z" />
    <glyph glyph-name="edieresis" unicode="&#xeb;" 
d="M141 254q1 -20 3 -37t8 -36q18 -60 62 -96.5t109 -36.5q9 0 24 1.5t33 7t38 15.5t39 27q18 16 28 30.5t15 22.5l25 -10q-5 -15 -10 -29t-13 -28q-9 -15 -24.5 -33.5t-40 -34.5t-58 -27t-78.5 -11q-40 0 -67.5 8t-41.5 14q-22 10 -47.5 28.5t-47.5 48.5t-36.5 72.5
t-14.5 101.5q0 14 2.5 46t16.5 70q29 76 91.5 119t143.5 43q9 0 23 -1t32 -4.5t38 -11.5t41 -22q40 -27 61 -63t29.5 -70.5t9 -63t0.5 -40.5h-393zM445 309q-1 8 -2.5 25.5t-9.5 37.5q-17 43 -53 69t-83 26q-46 -1 -82.5 -26.5t-55.5 -67.5q-6 -13 -10 -25.5t-7 -38.5h303z
M257 657q1 -24 -14 -40t-39 -16q-23 0 -38.5 15t-15.5 39q0 23 15.5 38.5t39.5 15.5q22 0 37 -14.5t15 -37.5zM443 657q1 -24 -14 -40t-40 -16q-23 0 -38.5 15t-15.5 39q1 23 16 38.5t39 15.5q23 0 37.5 -14.5t15.5 -37.5z" />
    <glyph glyph-name="igrave" unicode="&#xec;" horiz-adv-x="229" 
d="M69 0v509h91v-509h-91zM-47 739h108l104 -153l-23 -19z" />
    <glyph glyph-name="iacute" unicode="&#xed;" horiz-adv-x="229" 
d="M69 0v509h91v-509h-91zM85 568l-23 19l102 151h108z" />
    <glyph glyph-name="icircumflex" unicode="&#xee;" horiz-adv-x="229" 
d="M69 0v509h91v-509h-91zM234 563l-119 114l-121 -114l-22 21l104 157h76l105 -157z" />
    <glyph glyph-name="idieresis" unicode="&#xef;" horiz-adv-x="229" 
d="M69 0v509h91v-509h-91zM75 657q1 -24 -14 -40t-40 -16q-22 0 -37.5 15t-15.5 39q0 23 15 38.5t39 15.5q23 0 37.5 -14.5t15.5 -37.5zM261 657q0 -24 -15 -40t-39 -16q-23 0 -38.5 15t-15.5 39q0 23 15.5 38.5t39.5 15.5q22 0 37 -14.5t16 -37.5z" />
    <glyph glyph-name="ntilde" unicode="&#xf1;" 
d="M403 0v289q1 47 -1 76.5t-13 49.5q-3 6 -10 15t-21 17q-19 12 -36.5 14.5t-25.5 2.5q-24 0 -43.5 -7t-34.5 -16t-25 -18.5t-14 -15.5q-5 -5 -8.5 -10.5t-10.5 -17.5v-379h-91v509h91v-70q9 12 22.5 27.5t34.5 29.5t50 24t68 10q13 0 24.5 -1.5t24.5 -3.5
q25 -6 42.5 -16.5t29 -22.5t18.5 -24t10 -21q7 -19 8 -41t1 -42v-358h-90zM264 619q-13 4 -21.5 6.5t-15 4t-12.5 2t-13 0.5q-13 0 -26 -3.5t-30 -21.5l-22 17q3 7 10 18.5t18.5 22.5t28 19t40.5 8q16 0 32.5 -3.5t30.5 -7.5l11 -3q13 -3 21.5 -5.5t15 -4t12.5 -2.5t14 -1
q20 0 32 6t26 19l21 -20q-4 -8 -11 -19t-19 -21.5t-29 -18t-41 -7.5q-11 0 -23.5 2.5t-34.5 8.5z" />
    <glyph glyph-name="ograve" unicode="&#xf2;" horiz-adv-x="583" 
d="M538 262q0 -50 -11.5 -102t-43.5 -93q-10 -13 -26.5 -28t-40.5 -28.5t-56 -22.5t-72 -9q-11 0 -29 1.5t-40.5 7.5t-47 18t-47.5 33q-30 27 -45.5 58.5t-23 60.5t-8.5 53t-1 36q0 44 5.5 72t11.5 46q27 81 88 123t146 42q59 0 100 -19.5t67.5 -47t40.5 -57t20 -49.5
q5 -14 8.5 -37t4.5 -58zM441 256q0 5 -0.5 19t-3 33t-7.5 40t-14 41q-18 38 -49 61.5t-75 23.5q-29 0 -56 -12t-47.5 -38.5t-33 -67t-12.5 -97.5q0 -5 0.5 -21.5t3 -39t9 -47.5t18.5 -46q11 -18 21 -28t17 -15q24 -19 46.5 -23.5t33.5 -4.5t26 2.5t31 10t32 21.5t29 38
q12 21 18 45t9 46t3.5 38t0.5 21zM130 739h108l104 -153l-23 -19z" />
    <glyph glyph-name="oacute" unicode="&#xf3;" horiz-adv-x="583" 
d="M538 262q0 -50 -11.5 -102t-43.5 -93q-10 -13 -26.5 -28t-40.5 -28.5t-56 -22.5t-72 -9q-11 0 -29 1.5t-40.5 7.5t-47 18t-47.5 33q-30 27 -45.5 58.5t-23 60.5t-8.5 53t-1 36q0 44 5.5 72t11.5 46q27 81 88 123t146 42q59 0 100 -19.5t67.5 -47t40.5 -57t20 -49.5
q5 -14 8.5 -37t4.5 -58zM441 256q0 5 -0.5 19t-3 33t-7.5 40t-14 41q-18 38 -49 61.5t-75 23.5q-29 0 -56 -12t-47.5 -38.5t-33 -67t-12.5 -97.5q0 -5 0.5 -21.5t3 -39t9 -47.5t18.5 -46q11 -18 21 -28t17 -15q24 -19 46.5 -23.5t33.5 -4.5t26 2.5t31 10t32 21.5t29 38
q12 21 18 45t9 46t3.5 38t0.5 21zM263 568l-24 19l102 151h108z" />
    <glyph glyph-name="ocircumflex" unicode="&#xf4;" horiz-adv-x="583" 
d="M538 262q0 -50 -11.5 -102t-43.5 -93q-10 -13 -26.5 -28t-40.5 -28.5t-56 -22.5t-72 -9q-11 0 -29 1.5t-40.5 7.5t-47 18t-47.5 33q-30 27 -45.5 58.5t-23 60.5t-8.5 53t-1 36q0 44 5.5 72t11.5 46q27 81 88 123t146 42q59 0 100 -19.5t67.5 -47t40.5 -57t20 -49.5
q5 -14 8.5 -37t4.5 -58zM441 256q0 5 -0.5 19t-3 33t-7.5 40t-14 41q-18 38 -49 61.5t-75 23.5q-29 0 -56 -12t-47.5 -38.5t-33 -67t-12.5 -97.5q0 -5 0.5 -21.5t3 -39t9 -47.5t18.5 -46q11 -18 21 -28t17 -15q24 -19 46.5 -23.5t33.5 -4.5t26 2.5t31 10t32 21.5t29 38
q12 21 18 45t9 46t3.5 38t0.5 21zM411 563l-118 114l-122 -114l-22 21l104 157h76l105 -157z" />
    <glyph glyph-name="otilde" unicode="&#xf5;" horiz-adv-x="583" 
d="M538 262q0 -50 -11.5 -102t-43.5 -93q-10 -13 -26.5 -28t-40.5 -28.5t-56 -22.5t-72 -9q-11 0 -29 1.5t-40.5 7.5t-47 18t-47.5 33q-30 27 -45.5 58.5t-23 60.5t-8.5 53t-1 36q0 44 5.5 72t11.5 46q27 81 88 123t146 42q59 0 100 -19.5t67.5 -47t40.5 -57t20 -49.5
q5 -14 8.5 -37t4.5 -58zM441 256q0 5 -0.5 19t-3 33t-7.5 40t-14 41q-18 38 -49 61.5t-75 23.5q-29 0 -56 -12t-47.5 -38.5t-33 -67t-12.5 -97.5q0 -5 0.5 -21.5t3 -39t9 -47.5t18.5 -46q11 -18 21 -28t17 -15q24 -19 46.5 -23.5t33.5 -4.5t26 2.5t31 10t32 21.5t29 38
q12 21 18 45t9 46t3.5 38t0.5 21zM274 619q-25 8 -36.5 10.5t-25.5 2.5q-13 0 -25.5 -3.5t-29.5 -21.5l-22 17q3 7 9.5 18.5t18 22.5t28 19t40.5 8q16 0 32.5 -3.5t31.5 -7.5l11 -3q13 -3 21 -5.5t15 -4t13 -2.5t14 -1q19 0 31 6t26 19l21 -20q-4 -8 -11 -19t-19 -21.5
t-29 -18t-41 -7.5q-11 0 -23 2.5t-35 8.5z" />
    <glyph glyph-name="odieresis" unicode="&#xf6;" horiz-adv-x="583" 
d="M253 657q1 -24 -14 -40t-39 -16q-5 0 -9.5 0.5t-11.5 3.5q-11 4 -17.5 11t-10 14.5t-4.5 14.5t-1 10q0 16 6 24q13 30 48 30q23 0 37.5 -14.5t15.5 -37.5zM439 657q0 -24 -15 -40t-39 -16q-4 0 -8.5 0.5t-12.5 3.5q-11 4 -17.5 11t-10 14.5t-4.5 14.5t-1 10q0 9 2 15t4 9
q15 30 49 30q22 0 37 -14.5t16 -37.5zM538 262q0 -50 -11.5 -102t-43.5 -93q-10 -13 -26.5 -28t-40.5 -28.5t-56 -22.5t-72 -9q-11 0 -29 1.5t-40.5 7.5t-47 18t-47.5 33q-30 27 -45.5 58.5t-23 60.5t-8.5 53t-1 36q0 44 5.5 72t11.5 46q27 81 88 123t146 42q59 0 100 -19.5
t67.5 -47t40.5 -57t20 -49.5q5 -14 8.5 -37t4.5 -58zM441 256q0 5 -0.5 19t-3 33t-7.5 40t-14 41q-18 38 -49 61.5t-75 23.5q-29 0 -56 -12t-47.5 -38.5t-33 -67t-12.5 -97.5q0 -5 0.5 -21.5t3 -39t9 -47.5t18.5 -46q11 -18 21 -28t17 -15q24 -19 46.5 -23.5t33.5 -4.5
t26 2.5t31 10t32 21.5t29 38q12 21 18 45t9 46t3.5 38t0.5 21z" />
    <glyph glyph-name="divide" unicode="&#xf7;" horiz-adv-x="667" 
d="M381 160q0 -19 -13 -32t-33 -13t-33 13t-13 33q0 5 1 8.5t2 5.5q2 8 11.5 19.5t32.5 11.5q19 0 32.5 -13t12.5 -33zM381 420q0 -20 -13.5 -32.5t-33.5 -12.5q-19 0 -32 13t-13 33q1 20 14 32.5t33 13.5q19 -1 32.5 -14t12.5 -33zM0 261v59h667v-59h-667z" />
    <glyph glyph-name="oslash" unicode="&#xf8;" horiz-adv-x="583" 
d="M487 440q9 -14 18 -30t16.5 -36.5t12 -47.5t4.5 -62q0 -11 -1 -32t-6.5 -47.5t-16.5 -56t-32 -57.5q-10 -13 -26 -29t-39 -30t-55 -23.5t-73 -9.5q-9 0 -23.5 1t-32.5 5t-38.5 11.5t-41.5 20.5q-14 8 -21.5 15t-12.5 11l-62 -65l-28 26l64 68q-4 7 -8 13t-8 13
q-10 19 -20.5 55t-10.5 90q0 10 1 30.5t6 46t15.5 54t29.5 55.5q9 13 25.5 30.5t41 33.5t57.5 26.5t76 10.5q33 0 58.5 -6.5t45 -15.5t33.5 -19.5t25 -19.5l60 63l27 -27zM172 100l15 -17.5t23.5 -21t34 -18t45.5 -7.5q31 0 58.5 12.5t48.5 39.5t33 69t12 101q0 21 -2.5 47
t-14.5 68zM409 412q-6 7 -15 18t-23 21t-33.5 17t-44.5 7q-12 0 -35.5 -5t-47.5 -25q-28 -23 -47.5 -70t-19.5 -127q0 -29 3 -54t11 -52z" />
    <glyph glyph-name="ugrave" unicode="&#xf9;" 
d="M493 0h-91v64l-9 -13.5t-17 -20.5q-18 -18 -38 -28t-38.5 -15t-33.5 -6.5t-23 -1.5q-36 0 -75 14t-64 43q-13 16 -20 32.5t-10 34t-4 36t-1 36.5v334h91v-297q0 -24 1.5 -53t9.5 -52q11 -32 39 -48.5t61 -16.5q19 0 36 4.5t30.5 11t23 13.5t14.5 11q11 9 17 16t10 12v399
h91v-509zM120 739h107l104 -153l-22 -19z" />
    <glyph glyph-name="uacute" unicode="&#xfa;" 
d="M493 0h-91v64l-9 -13.5t-17 -20.5q-18 -18 -38 -28t-38.5 -15t-33.5 -6.5t-23 -1.5q-36 0 -75 14t-64 43q-13 16 -20 32.5t-10 34t-4 36t-1 36.5v334h91v-297q0 -24 1.5 -53t9.5 -52q11 -32 39 -48.5t61 -16.5q19 0 36 4.5t30.5 11t23 13.5t14.5 11q11 9 17 16t10 12v399
h91v-509zM252 568l-24 19l103 151h108z" />
    <glyph glyph-name="ucircumflex" unicode="&#xfb;" 
d="M493 0h-91v64l-9 -13.5t-17 -20.5q-18 -18 -38 -28t-38.5 -15t-33.5 -6.5t-23 -1.5q-36 0 -75 14t-64 43q-13 16 -20 32.5t-10 34t-4 36t-1 36.5v334h91v-297q0 -24 1.5 -53t9.5 -52q11 -32 39 -48.5t61 -16.5q19 0 36 4.5t30.5 11t23 13.5t14.5 11q11 9 17 16t10 12v399
h91v-509zM401 563l-119 114l-121 -114l-23 21l105 157h76l105 -157z" />
    <glyph glyph-name="udieresis" unicode="&#xfc;" 
d="M243 657q0 -24 -15 -40t-39 -16q-23 0 -38.5 15t-15.5 39q0 23 15.5 38.5t39.5 15.5q22 0 37 -14.5t16 -37.5zM428 657q1 -24 -14 -40t-40 -16q-23 0 -38.5 15t-14.5 39q0 23 15 38.5t39 15.5q23 0 37.5 -14.5t15.5 -37.5zM493 0h-91v64l-9 -13.5t-17 -20.5
q-18 -18 -38 -28t-38.5 -15t-33.5 -6.5t-23 -1.5q-36 0 -75 14t-64 43q-13 16 -20 32.5t-10 34t-4 36t-1 36.5v334h91v-297q0 -24 1.5 -53t9.5 -52q11 -32 39 -48.5t61 -16.5q19 0 36 4.5t30.5 11t23 13.5t14.5 11q11 9 17 16t10 12v399h91v-509z" />
    <glyph glyph-name="ydieresis" unicode="&#xff;" horiz-adv-x="479" 
d="M260 5q-9 -21 -19 -41t-21 -40q-7 -12 -21.5 -33.5t-38.5 -43t-58 -37.5t-80 -16h-9.5t-9.5 1v27q34 10 53 21.5t31 21.5q14 12 26 26t24 32.5t25 43t28 57.5l10 24l-197 461h101l144 -355l156 355h78zM200 657q1 -24 -14 -40t-40 -16q-22 0 -37.5 15t-15.5 39
q0 23 15 38.5t39 15.5q23 0 37.5 -14.5t15.5 -37.5zM386 657q0 -24 -15 -40t-39 -16q-23 0 -38.5 15t-15.5 39q0 23 15.5 38.5t39.5 15.5q22 0 37 -14.5t16 -37.5z" />
    <glyph glyph-name="OE" unicode="&#x152;" horiz-adv-x="1042" 
d="M1035 0h-457q-31 -2 -61 -7.5t-60 -9.5q-15 -2 -29.5 -3t-29.5 -1q-21 0 -64.5 5t-95.5 30q-51 23 -87.5 59t-60.5 80.5t-35.5 95.5t-11.5 104q0 14 1.5 41.5t9 62t23.5 72.5t44 74q14 18 37 39.5t56.5 40t78 31.5t101.5 13q20 0 36.5 -1.5t32 -3.5t32 -4.5t35.5 -5.5
q16 -2 32 -3t32 -3h397v-60h-333v-246h295v-62h-295v-277h377v-61zM560 625q-7 5 -14 8.5l-15 7.5q-30 14 -63 20.5t-65 6.5q-33 0 -58.5 -5.5t-45 -14.5t-33.5 -19t-24 -19q-36 -32 -55.5 -71t-28.5 -75.5t-11 -66t-2 -41.5q0 -9 1 -31.5t6 -51t15.5 -61t29.5 -61.5
q7 -11 21.5 -29t40.5 -38q17 -12 51.5 -27t87.5 -15q23 0 45.5 3.5t41 9t32.5 10.5t20 8q11 4 23 11v541z" />
    <glyph glyph-name="oe" unicode="&#x153;" horiz-adv-x="958" 
d="M541 253q1 -39 12.5 -76t33.5 -65.5t54.5 -46t77.5 -17.5q39 0 69 12.5t51 29t34.5 34t20.5 28.5l26 -11q-2 -8 -6.5 -22.5t-14.5 -31.5q-30 -54 -84 -81t-114 -27q-10 0 -27.5 1.5t-39 7t-45.5 16.5t-47 29q-14 12 -24.5 23t-21.5 25q-2 -3 -16 -19.5t-28 -28.5
q-10 -9 -24.5 -18.5t-34 -17.5t-44.5 -13t-56 -5q-14 0 -41 2.5t-60 16.5q-40 16 -67.5 42.5t-45 59.5t-25.5 71.5t-8 78.5q0 14 2 45t15 68q12 37 30 63t37.5 44t38.5 28.5t33 15.5q23 9 46.5 12.5t48.5 3.5q45 0 77.5 -10t56 -25.5t39 -33t27.5 -32.5q3 4 15 17.5t26 26.5
q23 20 47 31.5t45.5 17t39 7t28.5 1.5q48 0 89.5 -16t73.5 -50q24 -25 37.5 -53.5t20.5 -55t9 -47.5t2 -31q0 -6 -0.5 -12t-0.5 -12h-388zM839 309q-1 8 -3 24.5t-9 36.5q-16 43 -49 70t-81 27q-9 0 -21.5 -1.5t-31.5 -8.5q-23 -9 -39.5 -23.5t-27 -29t-16 -28t-8.5 -20.5
q-4 -12 -6.5 -23.5t-4.5 -23.5h297zM448 255q0 22 -2.5 46t-8.5 47.5t-16.5 44.5t-26.5 38q-27 28 -54.5 34t-42.5 6q-35 0 -56 -11.5t-31 -19.5q-20 -17 -33 -38.5t-20.5 -46t-10 -50t-2.5 -49.5q0 -80 19.5 -123.5t49.5 -66.5q25 -18 48.5 -22.5t34.5 -4.5q29 0 56.5 12
t49.5 37.5t34.5 66.5t11.5 100z" />
    <glyph glyph-name="Ydieresis" unicode="&#x178;" horiz-adv-x="625" 
d="M311 -34q-9 -19 -16 -32.5t-13 -24t-12 -19t-13 -16.5q-20 -24 -44 -39.5t-46.5 -24.5t-41 -13t-27.5 -5q-14 -2 -25.5 -3t-37.5 -1h-29v33q4 0 15.5 1t23.5 3q11 2 39 10t56 28q40 27 64.5 69.5t44.5 83.5l15 31l-274 659h103l171 -420q7 -17 13.5 -34t12.5 -34l12 -33
l9 -33l18 48q5 11 9.5 22t9.5 22l203 462h84zM273 833q1 -23 -14 -39t-40 -16q-23 0 -38 15t-15 38q0 24 15 39t39 15q23 0 37.5 -14.5t15.5 -37.5zM459 833q0 -23 -15 -39t-39 -16q-23 0 -38.5 15t-15.5 38q0 24 15.5 39t39.5 15q22 0 37 -14.5t16 -37.5z" />
    <glyph glyph-name="circumflex" unicode="&#x2c6;" horiz-adv-x="292" 
d="M172 563l-119 114l-121 -114l-23 21l105 157h75l106 -157z" />
    <glyph glyph-name="tilde" unicode="&#x2dc;" horiz-adv-x="292" 
d="M34 619q-25 8 -36 10.5t-26 2.5q-12 0 -25 -3.5t-30 -21.5l-22 17q3 7 10 18.5t18 22.5t28 19t40 8q17 0 33.5 -3.5t30.5 -7.5l11 -3q13 -3 21.5 -5.5t15 -4t12.5 -2.5t14 -1q20 0 32 6t26 19l21 -20q-4 -8 -11 -19t-19 -21.5t-29.5 -18t-41.5 -7.5q-11 0 -23 2.5
t-35 8.5z" />
    <glyph glyph-name="endash" unicode="&#x2013;" horiz-adv-x="625" 
d="M600 239h-575v55h575v-55z" />
    <glyph glyph-name="emdash" unicode="&#x2014;" horiz-adv-x="667" 
d="M0 262v59h667v-59h-667z" />
    <glyph glyph-name="quoteleft" unicode="&#x2018;" horiz-adv-x="229" 
d="M163 717l32 -11l-53 -213h-92z" />
    <glyph glyph-name="quoteright" unicode="&#x2019;" horiz-adv-x="229" 
d="M66 483l-32 10l53 213h92z" />
    <glyph glyph-name="quotesinglbase" unicode="&#x201a;" horiz-adv-x="229" 
d="M66 -137l-32 11l53 213h92z" />
    <glyph glyph-name="quotedblleft" unicode="&#x201c;" horiz-adv-x="375" 
d="M164 716l33 -10l-54 -213h-93zM308 716l33 -10l-53 -213h-92z" />
    <glyph glyph-name="quotedblright" unicode="&#x201d;" horiz-adv-x="375" 
d="M211 483l-34 10l55 213h93zM67 483l-33 10l53 213h92z" />
    <glyph glyph-name="quotedblbase" unicode="&#x201e;" horiz-adv-x="375" 
d="M211 -135l-34 8l55 214h93zM66 -137l-32 11l53 213h92z" />
    <glyph glyph-name="dagger" unicode="&#x2020;" horiz-adv-x="521" 
d="M214 -182v597h-198v64h198v227h95v-227h196v-64h-196v-597h-95z" />
    <glyph glyph-name="bullet" unicode="&#x2022;" horiz-adv-x="333" 
d="M286 353q0 -19 -4 -32t-7 -20q-14 -32 -43 -49.5t-64 -17.5q-7 0 -20.5 1.5t-30.5 9.5q-32 14 -51 43t-19 64q0 25 10 47t26.5 38.5t38.5 25.5t47 9t46 -9t37 -25t25 -38t9 -47z" />
    <glyph glyph-name="ellipsis" unicode="&#x2026;" horiz-adv-x="1000" 
d="M880 41q0 -19 -13.5 -33t-32.5 -14q-20 0 -33.5 13.5t-13.5 33.5t14 33t33 13q20 0 33 -13t13 -33zM547 41q0 -19 -13.5 -33.5t-33.5 -13.5q-20 0 -33 13.5t-13 33.5t13.5 33t33.5 13t32.5 -13t13.5 -33zM213 41q0 -19 -13 -33.5t-33 -13.5q-20 0 -33.5 13.5t-13.5 33.5
t14 33t33 13q20 0 33 -13t13 -33z" />
    <glyph glyph-name="trademark" unicode="&#x2122;" horiz-adv-x="687" 
d="M574 374v218q1 17 1 33.5t1 33.5q-4 -14 -8.5 -28.5t-8.5 -28.5l-72 -228h-42l-72 229q-2 7 -4.5 14t-4.5 14q-2 8 -4 14.5t-4 12.5q2 -16 2 -32.5v-33.5l2 -218h-46v332h67l86 -272l85 272h68v-332h-46zM132 374v291h-108v41h262v-41h-106v-291h-48z" />
    <glyph glyph-name="Tilde" horiz-adv-x="292" 
d="M34 796q-25 8 -36 10.5t-26 2.5q-12 -1 -25 -4t-30 -21l-22 17q3 7 10 18t18 22t28 19t40 8q17 0 33.5 -3.5t30.5 -6.5l11 -3q13 -4 21.5 -6.5t15 -4t12.5 -2t14 -0.5q20 0 32 6t26 19l21 -20q-4 -8 -11 -19t-19 -21.5t-29.5 -18t-41.5 -7.5q-11 0 -23 2t-35 8z" />
    <glyph glyph-name="Dieresis" horiz-adv-x="292" 
d="M13 833q0 -23 -15 -39t-39 -16q-23 0 -38.5 15t-15.5 38q0 24 15.5 39t39.5 15q22 0 37 -14.5t16 -37.5zM198 833q1 -23 -14 -39t-40 -16q-23 0 -38 15t-15 38q0 24 15 39t39 15q23 0 37.5 -14.5t15.5 -37.5z" />
    <glyph glyph-name="Caron" horiz-adv-x="292" 
d="M-68 917l119 -114l121 114l23 -20l-105 -157h-76l-105 157z" />
    <glyph glyph-name="Circumflex" horiz-adv-x="292" 
d="M172 740l-119 114l-121 -114l-23 21l105 156h75l106 -156z" />
    <glyph glyph-name="onefitted" horiz-adv-x="437" 
d="M218 0v563l-144 -49l-10 24l222 148h29v-686h-97z" />
    <glyph glyph-name="Grave" horiz-adv-x="292" 
d="M-109 916h107l104 -153l-22 -20z" />
    <glyph glyph-name="Acute" horiz-adv-x="292" 
d="M23 744l-24 20l103 151h108z" />
    </font>
</defs>
</svg>
