<?xml version="1.0" encoding="utf-8"?>
<!-- Generator: Adobe Illustrator 16.0.0, SVG Export Plug-In . SVG Version: 6.00 Build 0)  -->
<!DOCTYPE svg PUBLIC "-//W3C//DTD SVG 1.1//EN" "http://www.w3.org/Graphics/SVG/1.1/DTD/svg11.dtd">
<svg version="1.1" id="Layer_1" xmlns="http://www.w3.org/2000/svg" xmlns:xlink="http://www.w3.org/1999/xlink" x="0px" y="0px"
	 width="33px" height="26px" viewBox="0 0 33 26" enable-background="new 0 0 33 26" xml:space="preserve">
<rect display="none" fill="#3A4DA1" width="33" height="26"/>
<g>
	<path fill="#FFFFFF" d="M28.22,10.756L16.856,2.435c-0.22-0.16-0.517-0.16-0.736,0L4.755,10.756
		c-0.277,0.203-0.338,0.593-0.134,0.871c0.203,0.276,0.593,0.337,0.87,0.134L16.488,3.71l10.996,8.051
		c0.111,0.081,0.24,0.121,0.367,0.121c0.191,0,0.383-0.089,0.504-0.255C28.558,11.349,28.497,10.959,28.22,10.756"/>
	<path fill="none" stroke="#FFFFFF" stroke-width="0.5" stroke-miterlimit="10" d="M28.22,10.756L16.856,2.435
		c-0.22-0.16-0.517-0.16-0.736,0L4.755,10.756c-0.277,0.203-0.338,0.593-0.134,0.871c0.203,0.276,0.593,0.337,0.87,0.134
		L16.488,3.71l10.996,8.051c0.111,0.081,0.24,0.121,0.367,0.121c0.191,0,0.383-0.089,0.504-0.255
		C28.558,11.349,28.497,10.959,28.22,10.756z"/>
	<path fill="#FFFFFF" d="M25.208,11.901c-0.344,0-0.623,0.279-0.623,0.623v9.916h-4.982v-5.412c0-1.719-1.398-3.115-3.115-3.115
		s-3.115,1.396-3.115,3.115v5.412H8.39v-9.916c0-0.344-0.279-0.623-0.623-0.623c-0.344,0-0.623,0.279-0.623,0.623v10.539
		c0,0.344,0.279,0.623,0.623,0.623h6.229c0.328,0,0.596-0.254,0.621-0.574c0.001-0.016,0.002-0.031,0.002-0.049v-6.035
		c0-1.031,0.838-1.869,1.869-1.869c1.031,0,1.869,0.838,1.869,1.869v6.035c0,0.018,0.001,0.033,0.002,0.048
		c0.025,0.321,0.293,0.575,0.621,0.575h6.229c0.344,0,0.623-0.279,0.623-0.623V12.524C25.831,12.181,25.552,11.901,25.208,11.901"/>
</g>
</svg>
